<?xml version="1.0" encoding="utf-8"?>

<!DOCTYPE svg PUBLIC "-//W3C//DTD SVG 1.0//EN" "http://www.w3.org/TR/2001/REC-SVG-20010904/DTD/svg10.dtd">
<!-- Uploaded to: SVG Repo, www.svgrepo.com, Generator: SVG Repo Mixer Tools -->
<svg version="1.0" id="Layer_1" xmlns="http://www.w3.org/2000/svg" xmlns:xlink="http://www.w3.org/1999/xlink" 
	 width="800px" height="800px" viewBox="0 0 64 64" enable-background="new 0 0 64 64" xml:space="preserve">
<g>
	<path fill="#231F20" d="M61.935,2.064c-2.739-2.739-7.181-2.739-9.92,0l-4.25,4.254l9.919,9.917l4.251-4.249
		C64.674,9.246,64.674,4.805,61.935,2.064z"/>
	
		<rect x="43.585" y="12.4" transform="matrix(-0.7071 -0.7071 0.7071 -0.7071 76.9007 58.657)" fill="#231F20" width="14.028" height="2.003"/>
	<path fill="#231F20" d="M20.919,33.162c2.307,0.614,4.489,1.813,6.298,3.621c1.808,1.809,3.007,3.992,3.621,6.297l22.594-22.594
		l-9.918-9.918L20.919,33.162z"/>
	<path fill="#231F20" d="M8.795,38.199c-4.701,4.702-5.241,9.118-5.814,13.796c-0.406,3.318-0.827,6.751-2.861,10.527
		c-0.21,0.391-0.139,0.872,0.174,1.185s0.794,0.383,1.185,0.174c3.776-2.034,7.209-2.455,10.527-2.861
		c4.677-0.573,9.094-1.113,13.796-5.815c8.403-8.403,0.084-16.919,0-17.005C25.715,38.115,17.2,29.796,8.795,38.199z M22.966,52.371
		c-0.392,0.392-1.025,0.392-1.417,0s-0.392-1.025,0-1.417c2.348-2.349,2.348-6.155,0-8.503c-0.392-0.393-0.392-1.025,0-1.417
		s1.025-0.392,1.417,0C26.096,44.164,26.096,49.241,22.966,52.371z"/>
</g>
</svg>