<?xml version="1.0" encoding="UTF-8"?>
<!DOCTYPE svg PUBLIC "-//W3C//DTD SVG 1.1//EN" "http://www.w3.org/Graphics/SVG/1.1/DTD/svg11.dtd">
<svg xmlns="http://www.w3.org/2000/svg" version="1.1" width="512px" height="512px" style="shape-rendering:geometricPrecision; text-rendering:geometricPrecision; image-rendering:optimizeQuality; fill-rule:evenodd; clip-rule:evenodd" xmlns:xlink="http://www.w3.org/1999/xlink">
<g><path style="opacity:0.996" fill="#feb74d" d="M 443.5,99.5 C 438.369,104.13 433.369,108.963 428.5,114C 424.186,116.66 419.519,118.327 414.5,119C 363.833,119.333 313.167,119.667 262.5,120C 241.415,159.384 208.415,177.717 163.5,175C 120.74,166.729 93.0736,141.896 80.5,100.5C 93.5341,51.8194 125.201,26.1527 175.5,23.5C 215.835,24.6871 245.168,43.1871 263.5,79C 317.167,79.3333 370.833,79.6667 424.5,80C 431.036,86.3685 437.369,92.8685 443.5,99.5 Z"/></g>
<g><path style="opacity:1" fill="#eeedec" d="M 136.5,87.5 C 163.339,86.8381 176.172,99.8381 175,126.5C 168.734,144.887 155.901,153.054 136.5,151C 118.128,144.772 109.961,131.938 112,112.5C 115.683,99.6514 123.85,91.3181 136.5,87.5 Z"/></g>
<g><path style="opacity:1" fill="#ffa726" d="M 443.5,99.5 C 450.479,105.812 457.146,112.479 463.5,119.5C 450.5,133.167 437.167,146.5 423.5,159.5C 415.5,151.833 407.5,144.167 399.5,136.5C 391.5,144.167 383.5,151.833 375.5,159.5C 367.5,151.833 359.5,144.167 351.5,136.5C 343.681,143.819 336.014,151.319 328.5,159C 306.833,159.333 285.167,159.667 263.5,160C 240.215,202.976 204.215,220.976 155.5,214C 118.052,204.553 93.552,181.386 82,144.5C 78.3416,129.917 77.8416,115.25 80.5,100.5C 93.0736,141.896 120.74,166.729 163.5,175C 208.415,177.717 241.415,159.384 262.5,120C 313.167,119.667 363.833,119.333 414.5,119C 419.519,118.327 424.186,116.66 428.5,114C 433.369,108.963 438.369,104.13 443.5,99.5 Z"/></g>
<g><path style="opacity:0.998" fill="#fecbbb" d="M 465.5,224.5 C 463.74,229.835 462.24,235.502 461,241.5C 435.403,279.028 409.07,316.028 382,352.5C 368.34,369.753 350.506,379.92 328.5,383C 279.5,383.333 230.5,383.667 181.5,384C 173.196,386.301 166.529,390.968 161.5,398C 160.552,398.483 159.552,398.649 158.5,398.5C 134.116,375.117 110.449,351.117 87.5,326.5C 97.9651,316.535 108.298,306.369 118.5,296C 129.495,287.672 141.828,282.338 155.5,280C 215.668,279.168 275.668,279.335 335.5,280.5C 337.069,299.882 328.735,312.715 310.5,319C 289.5,319.333 268.5,319.667 247.5,320C 237.686,326.514 237.019,333.847 245.5,342C 260.077,343.151 274.744,343.651 289.5,343.5C 303.5,343.333 317.5,343.167 331.5,343C 352.825,337.877 361.825,324.377 358.5,302.5C 385.297,278.206 411.963,253.706 438.5,229C 446.944,223.667 455.944,222.167 465.5,224.5 Z"/></g>
<g><path style="opacity:1" fill="#ffab91" d="M 465.5,224.5 C 476.742,227.241 483.909,234.241 487,245.5C 487.829,252.234 487.496,258.901 486,265.5C 459.912,302.676 433.579,339.676 407,376.5C 393.818,393.182 376.651,403.349 355.5,407C 305.472,407.033 255.472,407.699 205.5,409C 196.987,411.686 189.987,416.52 184.5,423.5C 175.887,416.223 167.553,408.557 159.5,400.5C 159.167,399.833 158.833,399.167 158.5,398.5C 159.552,398.649 160.552,398.483 161.5,398C 166.529,390.968 173.196,386.301 181.5,384C 230.5,383.667 279.5,383.333 328.5,383C 350.506,379.92 368.34,369.753 382,352.5C 409.07,316.028 435.403,279.028 461,241.5C 462.24,235.502 463.74,229.835 465.5,224.5 Z"/></g>
<g><path style="opacity:1" fill="#ffab91" d="M 335.5,280.5 C 347.73,283.063 355.397,290.397 358.5,302.5C 361.825,324.377 352.825,337.877 331.5,343C 317.5,343.167 303.5,343.333 289.5,343.5C 274.744,343.651 260.077,343.151 245.5,342C 237.019,333.847 237.686,326.514 247.5,320C 268.5,319.667 289.5,319.333 310.5,319C 328.735,312.715 337.069,299.882 335.5,280.5 Z"/></g>
<g><path style="opacity:0.997" fill="#ee524f" d="M 87.5,326.5 C 110.449,351.117 134.116,375.117 158.5,398.5C 158.833,399.167 159.167,399.833 159.5,400.5C 151.671,408.162 143.671,415.662 135.5,423C 128.592,425.664 122.259,424.831 116.5,420.5C 93.8201,397.32 70.9867,374.32 48,351.5C 45.9116,345.737 46.0782,340.07 48.5,334.5C 53.7773,327.718 60.1106,322.218 67.5,318C 71.2613,317.262 74.9279,317.595 78.5,319C 81.6653,321.335 84.6653,323.835 87.5,326.5 Z"/></g>
<g><path style="opacity:1" fill="#e53935" d="M 48.5,334.5 C 46.0782,340.07 45.9116,345.737 48,351.5C 70.9867,374.32 93.8201,397.32 116.5,420.5C 122.259,424.831 128.592,425.664 135.5,423C 143.671,415.662 151.671,408.162 159.5,400.5C 167.553,408.557 175.887,416.223 184.5,423.5C 188.309,426.809 191.142,430.809 193,435.5C 193.887,440.072 193.22,444.405 191,448.5C 178.167,461.333 165.333,474.167 152.5,487C 151.833,487.667 151.167,487.667 150.5,487C 108.333,444.833 66.1667,402.667 24,360.5C 23.3333,359.833 23.3333,359.167 24,358.5C 32.035,350.298 40.2017,342.298 48.5,334.5 Z"/></g>
</svg>
