<?xml version="1.0" encoding="utf-8"?>

<!DOCTYPE svg PUBLIC "-//W3C//DTD SVG 1.1//EN" "http://www.w3.org/Graphics/SVG/1.1/DTD/svg11.dtd">
<!-- Uploaded to: SVG Repo, www.svgrepo.com, Generator: SVG Repo Mixer Tools -->
<svg height="800px" width="800px" version="1.1" id="_x32_" xmlns="http://www.w3.org/2000/svg" xmlns:xlink="http://www.w3.org/1999/xlink" 
	 viewBox="0 0 512 512"  xml:space="preserve">
<style type="text/css">
	.st0{fill:#000000;}
</style>
<g>
	<path class="st0" d="M460.192,307.187c-21.615-21.674-51.79-35.144-84.818-35.144c-13.689,0-26.814,2.427-39.113,6.66
		l120.722-158.304c26.182-34.338,19.555-83.437-14.783-109.631L428.085,0L256,225.671L83.914,0L69.8,10.768
		C35.461,36.962,28.835,86.06,55.04,120.399l120.72,158.328c-12.297-4.257-25.446-6.684-39.135-6.684
		c-33.028,0-63.225,13.47-84.829,35.144c-21.674,21.615-35.168,51.801-35.144,84.84c-0.024,33.028,13.47,63.225,35.144,84.83
		C73.4,498.528,103.597,512.024,136.626,512c33.038,0.024,63.213-13.472,84.84-35.144c18.993-18.947,31.704-44.508,34.534-72.784
		c2.83,28.276,15.519,53.838,34.535,72.784c21.615,21.672,51.779,35.168,84.84,35.144c33.027,0.024,63.203-13.472,84.818-35.144
		c21.662-21.604,35.156-51.802,35.156-84.83C495.348,358.988,481.854,328.802,460.192,307.187z M179.039,434.43
		c-10.951,10.918-25.745,17.578-42.414,17.578c-16.658,0-31.475-6.66-42.426-17.554c-10.894-10.952-17.554-25.769-17.566-42.427
		c0.012-16.668,6.672-31.463,17.566-42.414c10.952-10.905,25.768-17.566,42.426-17.566c16.668,0,31.463,6.662,42.414,17.566
		c10.906,10.952,17.556,25.746,17.567,42.414C196.595,408.684,189.945,423.49,179.039,434.43z M417.777,434.43
		c-10.95,10.918-25.768,17.578-42.403,17.578c-16.68,0-31.485-6.66-42.437-17.554c-10.882-10.952-17.544-25.769-17.566-42.427
		c0.022-16.668,6.684-31.463,17.566-42.414c10.952-10.905,25.756-17.566,42.437-17.566c16.634,0,31.452,6.662,42.403,17.566
		c10.906,10.952,17.556,25.746,17.568,42.414C435.333,408.684,428.683,423.49,417.777,434.43z"/>
</g>
</svg>