<?xml version="1.0" encoding="iso-8859-1"?>
<!-- Uploaded to: SVG Repo, www.svgrepo.com, Generator: SVG Repo Mixer Tools -->
<svg height="800px" width="800px" version="1.1" id="Layer_1" xmlns="http://www.w3.org/2000/svg" xmlns:xlink="http://www.w3.org/1999/xlink" 
	 viewBox="0 0 392.533 392.533" xml:space="preserve">
<path style="fill:#FFC10D;" d="M359.822,147.329H32.711c-6.012,0-10.925,4.848-10.925,10.925v75.96
	c0,6.012,4.848,10.925,10.925,10.925h327.111c6.012,0,10.925-4.848,10.925-10.925v-75.96
	C370.747,152.242,365.834,147.329,359.822,147.329z"/>
<g>
	<path style="fill:#FFFFFF;" d="M104.404,125.543c2.521-13.446,5.689-26.117,9.438-37.818c-15.903-2.004-31.806-4.59-47.774-7.628
		c-11.895,13.382-21.786,28.574-29.285,45.446H104.404z"/>
	<path style="fill:#FFFFFF;" d="M185.341,92.768c-16.485-0.259-32.84-1.164-49.196-2.651c-3.685,10.796-6.982,22.691-9.503,35.362
		h58.828V92.703h-0.129V92.768z"/>
	<path style="fill:#FFFFFF;" d="M85.463,61.608c12.024,2.069,24.113,3.814,36.267,5.172c6.206-14.287,13.317-26.57,21.269-36.655
		C121.859,36.913,102.4,47.644,85.463,61.608z"/>
	<path style="fill:#FFFFFF;" d="M185.341,23.79c-15.127,5.301-29.349,21.463-40.663,45.253c13.511,1.099,27.022,1.681,40.663,1.939
		V23.79z"/>
	<path style="fill:#FFFFFF;" d="M278.691,87.79c3.814,11.636,6.853,24.242,9.438,37.818h67.62
		c-7.499-16.873-17.39-32.065-29.285-45.446C310.562,83.265,294.659,85.851,278.691,87.79z"/>
	<path style="fill:#FFFFFF;" d="M307.071,61.608c-16.937-13.899-36.396-24.63-57.471-31.354
		c7.952,10.02,15.063,22.303,21.269,36.655C282.958,65.358,295.046,63.677,307.071,61.608z"/>
	<path style="fill:#FFFFFF;" d="M256.388,90.182c-16.356,1.487-32.84,2.392-49.196,2.651v32.776h58.828
		C263.434,112.873,260.202,100.978,256.388,90.182z"/>
	<path style="fill:#FFFFFF;" d="M207.192,70.982c13.511-0.259,27.152-0.84,40.663-1.939c-11.313-23.725-25.471-39.952-40.663-45.253
		V70.982z"/>
	<path style="fill:#FFFFFF;" d="M288.129,266.99c-2.521,13.447-5.689,26.117-9.438,37.818c15.903,2.004,31.806,4.59,47.774,7.628
		c11.895-13.382,21.786-28.574,29.285-45.446L288.129,266.99L288.129,266.99z"/>
	<path style="fill:#FFFFFF;" d="M207.192,368.743c15.127-5.301,29.349-21.463,40.663-45.253
		c-13.511-1.099-27.022-1.681-40.663-1.939V368.743z"/>
	<path style="fill:#FFFFFF;" d="M207.192,299.766c16.485,0.259,32.84,1.164,49.196,2.65c3.685-10.796,6.982-22.691,9.503-35.362
		h-58.828v32.776h0.129V299.766z"/>
	<path style="fill:#FFFFFF;" d="M307.071,330.925c-12.024-2.069-24.113-3.814-36.267-5.172
		c-6.206,14.287-13.317,26.57-21.269,36.655C270.675,355.62,290.133,344.889,307.071,330.925z"/>
	<path style="fill:#FFFFFF;" d="M185.341,321.552c-13.511,0.259-27.152,0.84-40.663,1.939
		c11.313,23.725,25.471,39.952,40.663,45.253V321.552z"/>
	<path style="fill:#FFFFFF;" d="M36.848,266.99c7.499,16.873,17.39,32.065,29.285,45.447c15.838-3.103,31.741-5.689,47.774-7.628
		c-3.814-11.636-6.853-24.242-9.438-37.689h-67.62V266.99z"/>
	<path style="fill:#FFFFFF;" d="M136.145,302.352c16.356-1.487,32.84-2.392,49.196-2.65v-32.776h-58.828
		C129.099,279.661,132.331,291.556,136.145,302.352z"/>
	<path style="fill:#FFFFFF;" d="M121.729,325.754c-12.024,1.422-24.178,3.103-36.267,5.172
		c16.937,13.899,36.396,24.63,57.471,31.354C134.982,352.388,127.806,340.04,121.729,325.754z"/>
</g>
<g>
	<path style="fill:#194F82;" d="M383.03,135.305C355.62,53.204,279.855,0,196.267,0C112.42,0,37.236,53.139,9.826,134.917
		C3.814,140.865,0,149.139,0,158.255v75.96c0,8.792,3.556,16.873,9.244,22.82c29.608,82.812,103.046,135.499,187.022,135.499
		c83.846,0,159.741-53.85,186.44-134.917c6.012-5.947,9.826-14.222,9.826-23.337v-75.96
		C392.533,149.269,388.913,141.188,383.03,135.305z M355.685,125.543h-67.62c-2.521-13.446-5.689-26.117-9.438-37.818
		c15.903-2.004,31.806-4.59,47.774-7.628C338.295,93.479,348.25,108.735,355.685,125.543z M307.071,61.608
		c-12.024,2.069-24.113,3.814-36.267,5.172c-6.077-14.287-13.317-26.57-21.269-36.655C270.675,36.913,290.133,47.644,307.071,61.608
		z M207.192,23.79c15.127,5.301,29.349,21.463,40.663,45.253c-13.511,1.099-27.152,1.681-40.663,1.939V23.79z M207.063,92.768h0.065
		c16.485-0.259,32.84-1.164,49.196-2.651c3.685,10.796,6.982,22.691,9.503,35.362h-58.828V92.768H207.063z M185.341,23.79v47.192
		c-13.511-0.259-27.152-0.84-40.663-1.939C155.992,45.253,170.214,29.156,185.341,23.79z M185.277,92.768v32.776h-58.699
		c2.521-12.671,5.818-24.566,9.503-35.362C152.436,91.669,168.921,92.574,185.277,92.768z M142.933,30.125
		c-7.952,10.02-15.063,22.303-21.269,36.655c-12.024-1.422-24.178-3.103-36.267-5.172C102.4,47.644,121.859,36.913,142.933,30.125z
		 M66.133,80.097c15.838,3.103,31.741,5.689,47.774,7.628c-3.814,11.636-6.853,24.242-9.438,37.818h-67.62
		C44.283,108.735,54.238,93.479,66.133,80.097z M36.848,266.99h67.62c2.521,13.447,5.689,26.117,9.438,37.689
		c-15.903,2.004-31.806,4.59-47.774,7.628C54.238,299.055,44.283,283.798,36.848,266.99z M85.463,330.925
		c12.024-2.069,24.113-3.814,36.267-5.172c6.206,14.287,13.317,26.57,21.269,36.655C121.859,355.62,102.4,344.889,85.463,330.925z
		 M185.341,368.743c-15.127-5.301-29.349-21.463-40.663-45.253c13.511-1.099,27.152-1.681,40.663-1.939V368.743z M185.471,299.766
		h-0.065c-16.485,0.259-32.84,1.164-49.196,2.65c-3.685-10.796-6.982-22.691-9.503-35.362h58.828v32.711H185.471z M207.192,368.743
		v-47.192c13.511,0.259,27.152,0.84,40.663,1.939C236.541,347.281,222.319,363.378,207.192,368.743z M207.257,299.766V266.99h58.699
		c-2.521,12.671-5.818,24.566-9.503,35.362C240.097,300.865,223.612,299.96,207.257,299.766z M249.6,362.408
		c7.952-10.02,15.063-22.303,21.269-36.655c12.024,1.422,24.178,3.103,36.267,5.172C290.133,344.889,270.675,355.62,249.6,362.408z
		 M326.4,312.436c-15.838-3.103-31.741-5.689-47.774-7.628c3.814-11.636,6.853-24.242,9.438-37.818h67.62
		C348.25,283.798,338.295,299.055,326.4,312.436z M359.822,245.204H32.711c-6.012,0-10.925-4.848-10.925-10.925v-75.96
		c0-6.012,4.848-10.925,10.925-10.925h327.111c6.012,0,10.925,4.848,10.925,10.925v75.96h0.065
		C370.747,240.291,365.899,245.204,359.822,245.204z"/>
	<polygon style="fill:#194F82;" points="120.76,202.085 109.899,168.21 94.836,168.21 83.911,202.085 72.986,168.21 56.889,168.21 
		75.895,224.259 92.057,224.259 102.4,193.745 112.679,224.259 128.905,224.259 147.911,168.21 131.685,168.21 	"/>
	<polygon style="fill:#194F82;" points="214.562,202.15 203.701,168.275 188.638,168.275 177.713,202.15 166.853,168.275 
		150.691,168.275 169.697,224.259 185.859,224.259 196.267,193.81 206.481,224.323 222.707,224.323 241.713,168.275 
		225.487,168.275 	"/>
	<polygon style="fill:#194F82;" points="308.493,202.085 297.568,168.21 282.505,168.21 271.58,202.085 260.719,168.21 
		244.558,168.21 263.564,224.259 279.725,224.259 290.069,193.745 300.347,224.259 316.574,224.259 335.58,168.21 319.354,168.21 	
		"/>
</g>
<g>
	<path style="fill:#56ACE0;" d="M270.675,326.141c0.129-0.065,0.323-0.259,0.453-0.323c-0.065,0-0.259,0-0.323,0
		C270.739,325.947,270.739,326.012,270.675,326.141z"/>
	<path style="fill:#56ACE0;" d="M121.406,325.754c0.129,0.065,0.323,0.259,0.453,0.323c-0.065-0.129-0.065-0.259-0.129-0.388
		C121.6,325.754,121.471,325.754,121.406,325.754z"/>
	<path style="fill:#56ACE0;" d="M271.127,66.78c-0.129-0.065-0.323-0.259-0.453-0.323c0.065,0.129,0.065,0.259,0.129,0.388
		C270.933,66.78,271.063,66.78,271.127,66.78z"/>
	<path style="fill:#56ACE0;" d="M121.859,66.392c-0.129,0.065-0.323,0.259-0.453,0.323c0.065,0,0.259,0,0.323,0
		C121.794,66.586,121.794,66.521,121.859,66.392z"/>
	<path style="fill:#56ACE0;" d="M70.723,266.99c7.24,14.933,16.743,28.38,28.057,39.887c5.042-0.776,10.02-1.552,15.127-2.133
		c-3.814-11.636-6.853-24.242-9.438-37.689H70.723V266.99z"/>
	<path style="fill:#56ACE0;" d="M70.723,266.99L70.723,266.99L70.723,266.99z"/>
	<path style="fill:#56ACE0;" d="M185.277,266.99h-58.699c2.521,12.671,5.818,24.566,9.503,35.362
		c16.356-1.487,32.84-2.392,49.196-2.65V266.99z"/>
	<path style="fill:#56ACE0;" d="M288.129,267.055v-0.065c-2.521,13.447-5.689,26.117-9.438,37.818
		c5.042,0.646,10.02,1.422,15.127,2.133c11.313-11.507,20.816-24.954,28.057-39.887H288.129z"/>
	<path style="fill:#56ACE0;" d="M144.743,69.107c13.511,1.099,27.152,1.681,40.663,1.939V44.154
		c-10.279,0.84-20.234,2.844-29.802,5.947C151.725,55.725,148.04,61.996,144.743,69.107z"/>
	<path style="fill:#56ACE0;" d="M207.192,348.444c10.279-0.84,20.234-2.844,29.802-5.947c3.814-5.624,7.499-11.895,10.796-19.006
		c-13.511-1.099-27.152-1.681-40.663-1.939v26.893H207.192z"/>
	<path style="fill:#56ACE0;" d="M207.192,299.766c16.485,0.259,32.84,1.164,49.196,2.65c3.814-10.796,6.982-22.691,9.568-35.362
		h-58.828v32.711H207.192z"/>
	<path style="fill:#56ACE0;" d="M207.257,92.768v32.776h58.699c-2.521-12.671-5.818-24.566-9.503-35.362
		C240.097,91.669,223.612,92.574,207.257,92.768z"/>
	<path style="fill:#56ACE0;" d="M236.994,50.036c-9.568-3.103-19.523-5.107-29.802-5.947v26.893
		c13.511-0.259,27.152-0.84,40.663-1.939C244.493,62.061,240.808,55.725,236.994,50.036z"/>
	<path style="fill:#56ACE0;" d="M155.539,342.497c9.568,3.103,19.523,5.107,29.802,5.947v-26.893
		c-13.576,0.259-27.152,0.84-40.663,1.939C148.04,330.473,151.79,336.808,155.539,342.497z"/>
	<path style="fill:#56ACE0;" d="M321.81,125.608v-0.065c-7.24-14.933-16.743-28.38-28.057-39.887
		c-5.042,0.776-10.02,1.552-15.127,2.133c3.814,11.636,6.853,24.242,9.438,37.818H321.81z"/>
	<path style="fill:#56ACE0;" d="M104.404,125.543c2.521-13.446,5.689-26.117,9.438-37.818c-5.042-0.646-10.02-1.422-15.127-2.133
		c-11.313,11.507-20.816,24.954-28.057,39.887h33.745C104.404,125.479,104.404,125.543,104.404,125.543z"/>
	<path style="fill:#56ACE0;" d="M126.578,125.543h58.828V92.768c-16.485-0.259-32.84-1.164-49.196-2.651
		C132.331,100.978,129.099,112.873,126.578,125.543z"/>
</g>
</svg>