<svg xmlns="http://www.w3.org/2000/svg" xmlns:xlink="http://www.w3.org/1999/xlink" version="1.1" width="1080" height="1080" viewBox="0 0 1080 1080" xml:space="preserve">
<desc>Created with Fabric.js 3.5.0</desc>
<defs>
</defs>
<rect x="0" y="0" width="100%" height="100%" fill="#ffffff"/>
<g transform="matrix(6.701 0 0 6.701 540.1265 540.1273)" id="65340">
<path style="stroke: rgb(178,22,84); stroke-width: 55; stroke-dasharray: none; stroke-linecap: butt; stroke-dashoffset: 0; stroke-linejoin: miter; stroke-miterlimit: 4; is-custom-font: none; font-file-url: none; fill: none; fill-rule: nonzero; opacity: 1;" vector-effect="non-scaling-stroke" transform=" translate(-79, -78.9999)" d="M 154.685 2.50049 H 154.711 L 154.738 2.49994 C 155.15 2.49126 155.491 2.81853 155.5 3.2304 L 155.5 3.23069 C 155.5 3.24095 155.5 3.25176 155.5 3.26283 L 155.499 3.28886 V 3.3149 V 154.686 C 155.499 155.135 155.135 155.5 154.685 155.5 H 3.31409 C 2.86449 155.5 2.5 155.135 2.5 154.686 V 3.3149 C 2.5 2.86483 2.86465 2.50049 3.31409 2.50049 H 154.685 Z" stroke-linecap="round"/>
</g>
<g transform="matrix(1 0 0 1 676.1068 546.6497)" style="" id="307980">
		
<path xml:space="preserve" font-family="Roboto" font-size="348" font-weight="bold" style="stroke: none; stroke-width: 0; stroke-dasharray: none; stroke-linecap: butt; stroke-dashoffset: 0; stroke-linejoin: miter; stroke-miterlimit: 4; is-custom-font: none; font-file-url: none; fill: rgb(20,45,157); fill-rule: nonzero; opacity: 1; white-space: pre;" d="M-490.26-154.81L-534.95-154.81L-534.95-67.64L-585.93-67.64L-585.93-315.04L-489.41-315.04Q-461.54-315.04-440.39-304.85Q-419.23-294.65-407.85-275.88Q-396.46-257.10-396.46-233.14L-396.46-233.14Q-396.46-196.78-421.36-175.79Q-446.25-154.81-490.26-154.81L-490.26-154.81ZM-534.95-273.75L-534.95-196.10L-489.41-196.10Q-469.19-196.10-458.57-205.61Q-447.95-215.13-447.95-232.80L-447.95-232.80Q-447.95-250.98-458.66-262.20Q-469.36-273.41-488.22-273.75L-488.22-273.75L-534.95-273.75ZM-310.48-315.04L-310.48-108.59L-202.24-108.59L-202.24-67.64L-361.46-67.64L-361.46-315.04L-310.48-315.04ZM-12.95-67.64L-30.11-118.61L-119.49-118.61L-136.48-67.64L-190.69-67.64L-98.59-315.04L-51.35-315.04L41.25-67.64L-12.95-67.64ZM-74.97-252.51L-105.73-159.90L-43.88-159.90L-74.97-252.51ZM230.21-315.04L230.21-273.75L154.42-273.75L154.42-67.64L103.45-67.64L103.45-273.75L28.68-273.75L28.68-315.04L230.21-315.04Z"/><path xml:space="preserve" font-family="Roboto" font-size="348" font-weight="bold" style="stroke: none; stroke-width: 0; stroke-dasharray: none; stroke-linecap: butt; stroke-dashoffset: 0; stroke-linejoin: miter; stroke-miterlimit: 4; is-custom-font: none; font-file-url: none; fill: rgb(20,45,157); fill-rule: nonzero; opacity: 1; white-space: pre;" d="M-437.08 144.05L-437.08 185.18L-534.95 185.18L-534.95 286.28L-585.93 286.28L-585.93 38.87L-424.84 38.87L-424.84 80.16L-534.95 80.16L-534.95 144.05L-437.08 144.05ZM-192.05 157.14L-192.05 168.18Q-192.05 204.72-204.96 232.24Q-217.88 259.77-241.92 274.72Q-265.96 289.68-297.06 289.68L-297.06 289.68Q-327.82 289.68-351.94 274.89Q-376.07 260.11-389.33 232.67Q-402.58 205.23-402.75 169.54L-402.75 169.54L-402.75 157.31Q-402.75 120.77-389.58 92.99Q-376.41 65.21-352.37 50.34Q-328.33 35.47-297.40 35.47Q-266.47 35.47-242.43 50.34Q-218.39 65.21-205.22 92.99Q-192.05 120.77-192.05 157.14L-192.05 157.14ZM-243.70 169.03L-243.70 156.97Q-243.70 118.06-257.64 97.84Q-271.57 77.61-297.40 77.61L-297.40 77.61Q-323.06 77.61-336.99 97.58Q-350.92 117.55-351.09 156.12L-351.09 156.12L-351.09 168.18Q-351.09 206.08-337.16 226.98Q-323.23 247.88-297.06 247.88L-297.06 247.88Q-271.40 247.88-257.64 227.74Q-243.87 207.60-243.70 169.03L-243.70 169.03ZM-17.03 286.28L-63.42 195.71L-104.03 195.71L-104.03 286.28L-155.00 286.28L-155.00 38.87L-63.08 38.87Q-19.24 38.87 4.55 58.41Q28.34 77.95 28.34 113.64L28.34 113.64Q28.34 138.96 17.38 155.86Q6.42 172.77-15.84 182.80L-15.84 182.80L37.69 283.90L37.69 286.28L-17.03 286.28ZM-104.03 80.16L-104.03 154.42L-62.91 154.42Q-43.71 154.42-33.17 144.65Q-22.64 134.88-22.64 117.72L-22.64 117.72Q-22.64 100.21-32.58 90.19Q-42.52 80.16-63.08 80.16L-63.08 80.16L-104.03 80.16ZM67.08 38.87L133.69 38.87L197.24 218.31L260.45 38.87L327.40 38.87L327.40 286.28L276.26 286.28L276.26 218.65L281.35 101.91L214.58 286.28L179.57 286.28L112.96 102.08L118.06 218.65L118.06 286.28L67.08 286.28L67.08 38.87Z"/></g>
</svg>