<svg xmlns="http://www.w3.org/2000/svg" xmlns:xlink="http://www.w3.org/1999/xlink" version="1.1" width="1080" height="1080" viewBox="0 0 1080 1080" xml:space="preserve">
<desc>Created with Fabric.js 3.5.0</desc>
<defs>
</defs>
<rect x="0" y="0" width="100%" height="100%" fill="#ffffff"/>
<g transform="matrix(6.701 0 0 6.701 540.1265 540.1273)" id="65340">
<path style="stroke: rgb(178,22,84); stroke-width: 55; stroke-dasharray: none; stroke-linecap: butt; stroke-dashoffset: 0; stroke-linejoin: miter; stroke-miterlimit: 4; is-custom-font: none; font-file-url: none; fill: none; fill-rule: nonzero; opacity: 1;" vector-effect="non-scaling-stroke" transform=" translate(-79, -78.9999)" d="M 154.685 2.50049 H 154.711 L 154.738 2.49994 C 155.15 2.49126 155.491 2.81853 155.5 3.2304 L 155.5 3.23069 C 155.5 3.24095 155.5 3.25176 155.5 3.26283 L 155.499 3.28886 V 3.3149 V 154.686 C 155.499 155.135 155.135 155.5 154.685 155.5 H 3.31409 C 2.86449 155.5 2.5 155.135 2.5 154.686 V 3.3149 C 2.5 2.86483 2.86465 2.50049 3.31409 2.50049 H 154.685 Z" stroke-linecap="round"/>
</g>
<g transform="matrix(1 0 0 1 540 540)" style="" id="418991">
		
<path xml:space="preserve" font-family="AttackGraffiti ZVJPZ" font-size="654" style="stroke: none; stroke-width: 0; stroke-dasharray: none; stroke-linecap: butt; stroke-dashoffset: 0; stroke-linejoin: miter; stroke-miterlimit: 4; is-custom-font: true; font-file-url: https://cdn.pixelied.com/user-assets/fonts/f9dcbca2-3c70-47b6-a73e-64672bf11c84.otf; fill: rgb(94,34,149); fill-rule: nonzero; opacity: 1; white-space: pre;" d="M8.18 186.48C8.18 178.63 6.21 171.44 1.63 165.55C-44.14 102.77-109.55 38.68-123.93 7.94C-125.89 1.40-134.40-2.52-141.59-2.52C-152.06-2.52-161.21 5.98-161.21 15.79C-161.21 17.10-160.56 18.40-160.56 19.71C-166.44 9.25-169.71-2.52-184.75-2.52C-195.87-2.52-203.72 5.32-203.72 16.44C-203.72 19.06-203.07 21.67-201.76 24.29C-191.95 45.22-171.02 91.00-144.86 138.09C-156.63 136.78-170.37 136.12-199.14 136.12L-225.30 136.12C-225.96-81.00-239.04-160.79-280.24-292.25C-284.82-305.98-298.55-317.10-314.90-317.10C-322.75-317.10-330.60-314.48-336.48-309.90C-342.37-314.48-350.22-317.10-358.06-317.10C-377.69-317.10-394.04-300.75-394.04-281.13C-394.04-277.20-394.04-273.28-392.73-270.01C-367.88-190.22-363.95-124.82-363.95-28.68C-363.95 6.63-364.61 46.53-364.61 92.31L-364.61 150.51C-364.61 153.78-363.95 157.05-363.30 160.32C-386.19 172.09-399.92 189.10-399.92 213.30L-399.92 217.22C-399.92 236.84-383.57 253.19-363.95 253.19C-363.95 253.19-322.10 249.27-295.28 242.73L-295.28 253.19C-295.28 260.38-294.63 279.35-288.74 279.35C-280.24 279.35-279.59 268.23-279.59 263.00C-279.59 255.15-280.24 246.65-280.24 238.80C-231.19 227.03-172.33 212.64-107.58 212.64L-103.66 212.64L-91.23 217.22C-85.35 221.14-78.15 223.11-70.96 223.11C-63.11 223.11-55.92 220.49-49.38 215.91C-42.84 220.49-35.64 223.11-27.80 223.11C-8.18 223.11 8.18 206.10 8.18 186.48ZM-368.53-242.54C-369.18-246.47-369.18-249.74-369.18-253.01C-369.18-261.51-366.57-266.09-362.64-266.09C-358.06-266.09-352.18-260.20-349.56-247.77C-341.06-211.80-335.18-185.64-332.56-103.89L-332.56-101.93C-332.56-88.85-338.44-81.66-344.33-81.66C-350.22-81.66-355.45-88.20-356.10-101.93C-358.72-181.72-360.68-207.23-368.53-242.54ZM-27.80 203.49C-31.06 203.49-34.33 202.18-36.95 200.87C-34.99 196.29-33.68 191.06-33.68 185.83C-33.68 174.06-39.57 163.59-48.07 157.05C-67.04 131.55-88.62 106.69-108.24 83.80C-120.01 61.57-129.17 41.29-135.71 26.91C-131.78 33.45-127.20 40.64-121.32 47.83C-87.96 89.04-46.11 133.51-14.06 177.33C-12.10 179.94-11.44 182.56-11.44 186.48C-11.44 196.29-17.99 203.49-27.80 203.49ZM-268.47 138.09C-269.12-80.35-282.20-160.79-323.40-292.25C-323.40-292.90-324.06-293.55-324.06-294.21C-321.44-296.17-318.17-297.48-314.90-297.48C-308.36-297.48-301.17-292.25-299.21-286.36C-258.66-156.87-247.54-80.35-244.92 136.78C-252.77 137.43-260.62 137.43-268.47 138.09ZM-63.11-169.29C-65.07-166.68-66.38-166.02-67.69-166.02C-69.00-166.02-69.65-167.33-69.65-169.95C-69.65-172.56-69.00-175.18-67.69-177.80C-27.80-239.93 105.62-293.55 142.90-293.55C146.17-293.55 149.44-291.59 149.44-287.67C149.44-285.71 145.52-283.09 134.40-279.17C62.46-255.62-21.26-222.92-63.11-169.29ZM27.14 197.60C19.29 204.14 14.06 214.60 14.06 225.72L14.06 228.99L13.41 228.99C6.87 227.68 0.98 219.84 0.98 212.64C0.98 204.14 8.83 196.29 17.33 196.29L21.26 196.29C23.22 196.95 25.18 196.95 27.14 197.60ZM23.22-185.64C30.41-139.86 33.68-85.58 33.68-31.30C33.68-14.95 33.68 0.75 32.37 17.10C22.56 22.33 13.41 26.25 4.91 30.18C-5.56 34.75-17.33 45.87-17.33 63.53C-17.33 77.92-9.48 86.42-6.21 89.69C2.29 98.19 10.79 100.81 24.52 101.46C21.91 127.62 19.95 152.47 19.95 176.02L19.95 176.67L17.33 176.67C-2.29 176.67-18.64 193.02-18.64 212.64C-18.64 237.49 1.63 248.61 24.52 251.23C29.10 255.81 34.99 259.73 41.53 261.04C69.00 267.58 95.81 270.19 121.97 270.19C231.19 270.19 381.61 219.18 381.61 106.04C381.61 79.88 357.41 63.53 322.10 53.72C296.59 39.33 256.04 31.48 213.53 28.21C297.24-28.68 403.85-122.86 403.85-252.35C403.85-293.55 385.53-327.56 335.83-338.68C318.82-349.80 295.28-355.68 262.58-355.68C94.50-355.68-119.36-253.01-155.98-152.29C-157.29-148.37-157.94-143.79-157.94-139.86C-157.94-120.24-141.59-103.89-121.97-103.89L-117.39-103.89C-110.85-96.05-100.39-90.81-89.27-90.81C-73.58-90.81-59.84-101.28-55.26-114.36C-49.38-130.71-34.34-146.40-14.71-161.45C-15.37-135.94-16.68-111.09-16.68-84.93C-16.68-77.73-16.02-58.77-10.14-58.77C-1.64-58.77-0.98-69.89-0.98-75.12C-0.98-106.51-2.94-137.25-4.25-168.64C4.25-174.53 13.41-180.41 23.22-185.64ZM91.89-216.38C148.13-237.96 203.07-251.70 225.30-251.70C238.38-251.70 248.85-251.04 258.66-249.08C267.81-241.89 273.05-232.73 273.70-221.61C261.93-232.08 241.65-236.66 225.30-236.66C217.46-236.66 196.53-235.35 196.53-228.81C196.53-226.85 198.49-225.54 203.07-225.54C231.19-225.54 265.85-213.77 271.08-197.42C256.04-139.21 180.83-74.46 108.89-27.38C108.24-94.74 102.35-162.10 91.89-216.38ZM108.89 5.98L108.89-4.49C167.75-42.42 234.46-91.47 271.08-149.67C284.16-171.26 293.32-194.15 293.32-217.69C293.32-224.88 292.67-230.77 290.70-236.66C301.82-228.15 306.40-217.69 306.40-204.61C306.40-132.67 197.84-47.00 108.89 5.98ZM29.76 47.83C21.91 53.72 15.37 63.53 15.37 76.61C15.37 77.92 16.02 79.23 16.02 80.53C15.37 80.53 14.72 79.88 14.06 79.88C11.45 79.23 10.14 77.92 7.52 75.30C5.56 73.34 2.29 70.72 2.29 63.53C2.29 55.68 8.17 50.45 12.75 48.49C18.64 45.87 23.87 43.26 30.41 39.99C30.41 42.60 29.76 45.22 29.76 47.83ZM102.35 113.89C125.24 112.58 148.78 111.27 174.29 111.27C222.03 111.27 255.39 113.89 277.62 117.81C279.59 119.77 279.59 121.74 279.59 123.70C279.59 149.20 169.06 183.87 91.23 184.52C96.47 162.94 99.08 138.74 102.35 113.89ZM-125.24-123.51C-132.44-125.48-138.32-132.67-138.32-139.86C-138.32-141.83-138.32-143.79-137.67-145.75C-131.78-162.10-119.36-179.76-101.70-197.42C-43.49-254.97 65.73-306.63 171.02-326.91C35.64-294.21-95.16-216.38-123.28-139.21C-124.59-135.29-125.24-130.71-125.24-126.78ZM190.64 190.41C222.69 181.90 256.04 171.44 278.93 155.74C288.09 148.55 299.20 140.05 299.20 123.70C308.36 127.62 312.29 132.20 312.29 136.78C312.29 155.09 252.77 178.63 190.64 190.41Z"/></g>
</svg>