<svg xmlns="http://www.w3.org/2000/svg" xmlns:xlink="http://www.w3.org/1999/xlink" version="1.1" width="1080" height="1080" viewBox="0 0 1080 1080" xml:space="preserve">
<desc>Created with Fabric.js 3.5.0</desc>
<defs>
</defs>
<rect x="0" y="0" width="100%" height="100%" fill="#ffffff"/>
<g transform="matrix(6.701 0 0 6.701 540.1265 540.1273)" id="65340">
<path style="stroke: rgb(178,22,84); stroke-width: 55; stroke-dasharray: none; stroke-linecap: butt; stroke-dashoffset: 0; stroke-linejoin: miter; stroke-miterlimit: 4; is-custom-font: none; font-file-url: none; fill: none; fill-rule: nonzero; opacity: 1;" vector-effect="non-scaling-stroke" transform=" translate(-79, -78.9999)" d="M 154.685 2.50049 H 154.711 L 154.738 2.49994 C 155.15 2.49126 155.491 2.81853 155.5 3.2304 L 155.5 3.23069 C 155.5 3.24095 155.5 3.25176 155.5 3.26283 L 155.499 3.28886 V 3.3149 V 154.686 C 155.499 155.135 155.135 155.5 154.685 155.5 H 3.31409 C 2.86449 155.5 2.5 155.135 2.5 154.686 V 3.3149 C 2.5 2.86483 2.86465 2.50049 3.31409 2.50049 H 154.685 Z" stroke-linecap="round"/>
</g>
<g transform="matrix(1 0 0 1 566.9024 549.5865)" style="" id="754944">
		
<path xml:space="preserve" font-family="SketchBook B pB" font-size="949" style="stroke: none; stroke-width: 0; stroke-dasharray: none; stroke-linecap: butt; stroke-dashoffset: 0; stroke-linejoin: miter; stroke-miterlimit: 4; is-custom-font: true; font-file-url: https://cdn.pixelied.com/user-assets/fonts/e1adda6a-1cc7-49e8-b33d-55514ae3eb0f.ttf; fill: rgb(0,74,173); fill-rule: nonzero; opacity: 1; white-space: pre;" d="M-416.35-371.93L-416.35-371.93L-403.84-369.61L-370.48-369.61Q-368.16-369.61-368.16-366.83L-368.16-366.83L-363.06-369.61L-357.97-366.83Q-355.19-366.83-355.19-369.61L-355.19-369.61Q-322.29-364.51-322.29-361.73L-322.29-361.73L-317.19-364.51Q-312.56-361.73-307.00-361.73L-307.00-361.73Q-307.00-366.83-294.02-366.83L-294.02-366.83L-291.70-356.64Q-294.02-351.54-294.02-349.22L-294.02-349.22Q-288.92-348.29-288.92-344.12L-288.92-344.12L-288.92-341.34L-294.02-341.34L-294.02-346.44L-299.12-346.44L-286.61-328.83L-296.80-320.96L-294.02-315.86L-296.80-310.76L-294.02-310.76L-288.92-313.54L-286.61-308.44L-288.92-303.35L-294.02-305.66L-296.80-305.66L-296.80-300.57L-291.70-300.57L-294.02-295.47Q-293.09-290.37-288.92-290.37L-288.92-290.37L-294.02-280.18Q-291.70-275.08-291.70-272.76L-291.70-272.76Q-294.02-272.76-294.02-269.98L-294.02-269.98L-288.92-269.98L-291.70-257.47L-288.92-244.50Q-291.70-244.50-291.70-242.18L-291.70-242.18Q-286.61-241.25-286.61-237.08L-286.61-237.08L-286.61-234.30Q-286.61-229.21-291.70-229.21L-291.70-229.21Q-286.61-220.87-286.61-213.91L-286.61-213.91L-286.61-211.60Q-286.61-208.82-288.92-208.82L-288.92-208.82L-283.83-181.01L-283.83-173.14L-281.51-173.14L-281.51-168.04Q-288.92-168.04-288.92-162.94L-288.92-162.94Q-283.83-162.02-283.83-157.85L-283.83-157.85L-286.61-145.33Q-283.83-140.24-283.83-137.46L-283.83-137.46L-288.92-135.14L-286.61-119.85L-288.92-104.56L-283.83-73.97L-288.92-71.19L-286.61-66.10L-286.61-58.68L-288.92-45.71Q-283.83-45.24-283.83-40.61L-283.83-40.61L-286.61-35.51L-283.83-30.42Q-288.92-14.20-288.92-10.03L-288.92-10.03Q-288.92-4.93-286.61 17.77L-286.61 17.77L-288.92 33.07Q-286.61 38.16-286.61 40.94L-286.61 40.94Q-291.24 43.26-294.02 43.26L-294.02 43.26L-294.02 46.04L-288.92 53.45L-288.92 56.24L-294.02 63.65L-294.02 66.43Q-294.02 70.14-276.41 81.72L-276.41 81.72Q-283.83 81.72-294.02 84.04L-294.02 84.04L-294.02 86.82L-258.34 89.14L-263.44 81.72L-263.44 78.94L-250.93 81.72L-250.93 86.82L-256.02 86.82L-256.02 89.14L-232.85 89.14L-217.56 86.82Q-213.39 89.14-207.37 89.14L-207.37 89.14Q-205.05 89.14-205.05 86.82L-205.05 86.82L-192.08 89.14L-164.27 89.14Q-158.25 89.14-154.08 91.92L-154.08 91.92Q-149.45 90.06-115.62 86.82L-115.62 86.82Q-110.99 89.14-108.21 89.14L-108.21 89.14Q-108.21 85.43-100.33 81.72L-100.33 81.72Q-94.30 86.82-90.13 86.82L-90.13 86.82L-90.13 91.92Q-90.13 97.01-95.23 97.01L-95.23 97.01Q-95.23 94.23-98.01 94.23L-98.01 94.23L-98.01 97.01Q-85.04 109.52-85.04 137.79L-85.04 137.79Q-87.82 142.42-87.82 145.20L-87.82 145.20L-85.04 150.30Q-87.82 155.40-87.82 158.18L-87.82 158.18Q-85.04 158.18-85.04 160.50L-85.04 160.50L-90.13 163.28Q-87.82 168.37-85.04 185.98L-85.04 185.98Q-92.91 206.83-92.91 209.15L-92.91 209.15Q-87.82 209.61-87.82 214.25L-87.82 214.25L-92.91 221.66L-90.13 226.76Q-95.23 227.69-95.23 231.86L-95.23 231.86Q-90.13 232.78-90.13 236.95L-90.13 236.95Q-92.91 236.95-92.91 239.73L-92.91 239.73Q-87.82 240.20-87.82 244.83L-87.82 244.83Q-87.82 249.93-92.91 249.93L-92.91 249.93Q-95.23 244.83-95.23 242.05L-95.23 242.05L-100.33 242.05L-98.01 247.15L-98.01 255.02Q-98.01 260.12-120.72 262.44L-120.72 262.44Q-120.72 260.12-123.50 260.12L-123.50 260.12L-123.50 265.22Q-110.52 265.22-110.52 270.32L-110.52 270.32L-118.40 275.41L-120.72 275.41L-133.69 272.63Q-133.69 280.51-176.79 282.83L-176.79 282.83Q-181.88 280.51-184.66 280.51L-184.66 280.51L-184.66 285.61L-197.17 282.83Q-205.98 282.83-210.15 285.61L-210.15 285.61L-225.44 282.83Q-228.22 282.83-253.24 287.92L-253.24 287.92L-271.32 287.92Q-273.63 287.92-273.63 285.61L-273.63 285.61Q-304.22 293.02-314.41 293.02L-314.41 293.02L-319.51 290.70Q-325.07 293.02-342.68 295.80L-342.68 295.80L-342.68 293.02L-355.19 298.12L-360.28 295.80Q-365.38 298.12-368.16 298.12L-368.16 298.12L-370.48 293.02Q-386.23 298.12-390.87 298.12L-390.87 298.12L-390.87 293.02L-398.74 298.12L-411.26 298.12Q-416.35 298.12-416.35 293.02L-416.35 293.02L-416.35 290.70L-414.04 290.70L-408.94 293.02Q-408.94 287.92-401.06 287.92L-401.06 287.92L-401.06 285.61Q-419.13 272.63-419.13 267.54L-419.13 267.54L-419.13 260.12L-421.45 260.12L-421.45 255.02L-416.35 255.02Q-424.23 245.29-424.23 236.95L-424.23 236.95Q-419.13 236.95-419.13 231.86L-419.13 231.86L-419.13 229.54L-426.55 229.54L-426.55 224.44L-424.23 224.44L-414.04 229.54L-411.26 229.54L-411.26 226.76Q-415.89 226.76-429.33 209.15L-429.33 209.15L-429.33 206.37L-426.55 201.27L-421.45 204.05L-419.13 204.05L-419.13 201.27L-431.64 191.08Q-427.01 188.76-421.45 188.76L-421.45 188.76L-421.45 183.66L-426.55 183.66L-426.55 175.79L-429.33 158.18L-426.55 158.18L-431.64 142.89Q-429.79 132.69-426.55 132.69L-426.55 132.69L-431.64 109.52L-429.33 91.92Q-431.64 53.92-431.64 40.94L-431.64 40.94L-429.33 40.94L-431.64 35.85Q-431.64 33.07-429.33 33.07L-429.33 33.07L-431.64 15.46L-431.64 5.26Q-431.64-12.81-426.55-23.00L-426.55-23.00L-431.64-25.32L-429.33-38.29L-431.64-43.39L-429.33-48.49L-431.64-61.00L-429.33-61.00L-431.64-66.10L-429.33-84.17L-431.64-94.36L-429.33-99.46L-431.64-114.75L-429.33-119.85Q-431.64-124.48-431.64-127.26L-431.64-127.26L-429.33-127.26L-431.64-132.36Q-431.64-135.14-429.33-140.24L-429.33-140.24L-431.64-155.53L-431.64-157.85Q-431.64-160.63-429.33-160.63L-429.33-160.63L-431.64-165.72L-431.64-178.23L-429.33-183.33L-434.42-186.11L-431.64-191.21L-431.64-196.31Q-436.74-195.38-436.74-191.21L-436.74-191.21Q-434.42-191.21-434.42-188.43L-434.42-188.43L-436.74-188.43Q-441.84-188.43-441.84-193.53L-441.84-193.53L-441.84-196.31Q-441.84-201.40-431.64-201.40L-431.64-201.40Q-431.64-206.50-436.74-206.50L-436.74-206.50Q-433.50-229.21-431.64-234.30L-431.64-234.30L-434.42-234.30Q-439.06-231.99-441.84-231.99L-441.84-231.99L-441.84-234.30Q-441.84-239.40-434.42-239.40L-434.42-239.40Q-434.42-242.18-436.74-242.18L-436.74-242.18Q-436.74-244.03-434.42-257.47L-434.42-257.47Q-434.42-274.62-441.84-285.28L-441.84-285.28L-436.74-295.47L-441.84-305.66L-436.74-320.96Q-441.84-320.96-441.84-326.05L-441.84-326.05L-439.52-331.15Q-441.84-335.78-441.84-341.34L-441.84-341.34L-439.52-341.34L-441.84-346.44L-436.74-354.32L-436.74-356.64L-441.84-364.51Q-440.91-369.61-436.74-369.61L-436.74-369.61L-436.74-366.83L-431.64-369.61L-426.55-369.61L-419.13-364.51Q-419.13-366.83-416.35-371.93ZM-307.00-371.93L-307.00-371.93L-304.22-366.83L-312.09-366.83Q-311.17-371.93-307.00-371.93ZM-426.55-341.34L-426.55-341.34L-426.55-339.03L-419.13-339.03L-419.13-346.44L-421.45-346.44Q-426.55-345.51-426.55-341.34ZM-414.04-344.12L-416.35-344.12Q-414.04-339.49-414.04-333.93L-414.04-333.93L-411.26-333.93Q-411.26-336.25-408.94-341.34L-408.94-341.34L-414.04-344.12ZM-393.65-341.34L-403.84-341.34Q-403.84-335.78-406.16-331.15L-406.16-331.15Q-401.06-331.15-401.06-320.96L-401.06-320.96Q-395.04-320.96-393.65-341.34L-393.65-341.34ZM-375.58-339.03L-383.45-339.03L-401.06-282.96Q-398.74-280.18-398.74-262.57L-398.74-262.57Q-389.94-262.57-385.77-300.57L-385.77-300.57Q-379.75-300.57-375.58-339.03L-375.58-339.03ZM-342.68-339.03L-355.19-339.03L-355.19-331.15Q-363.06-291.30-390.87-216.70L-390.87-216.70Q-393.65-206.96-393.65-193.53L-393.65-193.53L-393.65-181.01L-395.96-175.92L-390.87-173.14L-385.77-175.92L-383.45-170.82Q-383.45-165.72-388.55-165.72L-388.55-165.72Q-388.55-168.04-390.87-168.04L-390.87-168.04L-390.87-165.72Q-390.87-159.70-388.55-155.53L-388.55-155.53L-395.96-142.55L-395.96-140.24Q-395.96-135.14-383.45-135.14L-383.45-135.14L-383.45-130.04L-393.65-130.04L-393.65-127.26Q-383.45-127.26-383.45-122.17L-383.45-122.17Q-383.45-118.46-390.87-114.75L-390.87-114.75Q-390.87-111.97-388.55-111.97L-388.55-111.97Q-388.55-107.34-393.65-94.36L-393.65-94.36Q-390.87-89.73-390.87-84.17L-390.87-84.17L-390.87-81.39Q-390.87-79.07-393.65-79.07L-393.65-79.07Q-389.48-68.88-385.77-68.88L-385.77-68.88Q-383.45-84.17-378.36-84.17L-378.36-84.17L-380.67-89.27Q-379.75-94.36-375.58-94.36L-375.58-94.36Q-370.48-93.44-370.48-89.27L-370.48-89.27Q-380.67-56.83-393.65-35.51L-393.65-35.51L-393.65-33.20Q-390.87-28.10-390.87-25.32L-390.87-25.32L-393.65-25.32Q-390.87-21.15-390.87-12.81L-390.87-12.81L-388.55-12.81L-380.67-17.91L-378.36-17.91L-378.36-15.13Q-380.21 2.48-390.87 2.48L-390.87 2.48L-390.87 7.58Q-390.87 19.63-393.65 33.07L-393.65 33.07L-390.87 43.26Q-393.65 57.16-393.65 66.43L-393.65 66.43Q-388.55 74.77-388.55 78.94L-388.55 78.94L-393.65 81.72L-390.87 86.82L-390.87 91.92Q-390.87 95.62-398.74 99.33L-398.74 99.33Q-403.84 99.33-403.84 94.23L-403.84 94.23L-403.84 76.62L-401.06 71.53L-406.16 71.53L-406.16 61.33L-403.84 56.24Q-408.94 56.24-408.94 51.14L-408.94 51.14Q-408.94 48.36-406.16 48.36L-406.16 48.36L-408.94 43.26Q-405.23 35.38-401.06 7.58L-401.06 7.58Q-402.91 7.58-416.35 5.26L-416.35 5.26L-416.35 10.36Q-415.43 15.46-411.26 15.46L-411.26 15.46Q-414.50 27.97-419.13 27.97L-419.13 27.97Q-414.04 40.94-414.04 46.04L-414.04 46.04Q-419.13 46.50-419.13 51.14L-419.13 51.14L-419.13 63.65L-416.35 76.62L-419.13 76.62Q-419.13 78.94-416.35 78.94L-416.35 78.94L-419.13 91.92L-419.13 94.23L-416.35 107.21Q-421.45 107.67-421.45 112.30L-421.45 112.30Q-416.35 112.30-416.35 124.82L-416.35 124.82L-414.04 124.82L-408.94 122.50L-406.16 127.60L-406.16 129.91Q-419.13 129.91-419.13 135.01L-419.13 135.01Q-411.26 136.86-411.26 155.40L-411.26 155.40Q-416.35 158.18-419.13 158.18L-419.13 158.18L-414.04 188.76L-419.13 191.08Q-419.13 221.66-408.94 221.66L-408.94 221.66Q-403.84 219.34-401.06 219.34L-401.06 219.34L-401.06 226.76L-406.16 226.76L-406.16 229.54Q-406.16 233.71-398.74 252.24L-398.74 252.24Q-403.84 253.17-403.84 257.34L-403.84 257.34Q-385.31 262.44-383.45 262.44L-383.45 262.44Q-363.99 262.44-324.60 257.34L-324.60 257.34L-319.51 260.12L-304.22 257.34Q-298.65 257.34-294.02 260.12L-294.02 260.12Q-288.92 257.34-286.61 257.34L-286.61 257.34Q-272.24 260.12-266.22 260.12L-266.22 260.12Q-265.29 255.02-261.12 255.02L-261.12 255.02L-248.15 262.44L-245.83 257.34L-232.85 260.12L-227.76 260.12Q-222.20 260.12-217.56 257.34L-217.56 257.34L-207.37 262.44Q-201.34 243.90-189.76 229.54L-189.76 229.54Q-184.66 230.00-184.66 234.64L-184.66 234.64Q-184.66 239.73-189.76 239.73L-189.76 239.73Q-189.76 236.95-192.08 236.95L-192.08 236.95Q-192.08 245.76-199.95 260.12L-199.95 260.12Q-188.37 260.12-184.66 262.44L-184.66 262.44Q-176.79 256.88-161.49 214.25L-161.49 214.25Q-154.54 214.25-136.01 160.50L-136.01 160.50Q-138.79 160.50-143.89 158.18L-143.89 158.18L-146.20 158.18L-146.20 160.50L-141.11 160.50L-141.11 163.28Q-153.15 183.66-156.40 183.66L-156.40 183.66L-161.49 183.66L-161.49 180.88Q-161.49 173.47-143.89 145.20L-143.89 145.20Q-146.20 145.20-146.20 142.89L-146.20 142.89L-133.69 135.01L-133.69 142.89L-128.59 142.89L-128.59 135.01L-133.69 135.01L-130.91 122.50L-151.30 122.50Q-151.30 129.91-156.40 129.91L-156.40 129.91Q-156.40 127.13-164.27 117.40L-164.27 117.40Q-166.59 117.40-181.88 129.91L-181.88 129.91Q-181.88 114.62-186.98 114.62L-186.98 114.62L-189.76 114.62Q-189.76 122.50-194.86 122.50L-194.86 122.50L-215.25 122.50L-215.25 117.40L-210.15 117.40L-210.15 114.62L-225.44 114.62L-225.44 117.40L-220.34 117.40L-220.34 122.50L-232.85 119.72Q-237.95 120.64-237.95 124.82L-237.95 124.82L-237.95 127.60L-235.63 127.60Q-230.54 124.82-227.76 124.82L-227.76 124.82L-227.76 129.91Q-231.93 129.91-237.95 135.01L-237.95 135.01L-240.73 135.01Q-246.76 129.91-253.24 129.91L-253.24 129.91L-253.24 124.82Q-245.83 124.82-240.73 114.62L-240.73 114.62L-248.15 114.62L-248.15 122.50L-258.34 122.50Q-263.44 122.50-263.44 117.40L-263.44 117.40L-250.93 117.40L-250.93 114.62L-261.12 114.62Q-273.63 117.86-273.63 122.50L-273.63 122.50Q-286.61 117.40-291.70 117.40L-291.70 117.40L-296.80 127.60L-291.70 129.91Q-291.70 132.69-294.02 132.69L-294.02 132.69L-291.70 145.20L-296.80 153.08L-296.80 155.40Q-288.92 155.40-288.92 160.50L-288.92 160.50Q-288.92 165.59-294.02 178.57L-294.02 178.57Q-291.70 182.74-291.70 188.76L-291.70 188.76L-296.80 191.08Q-300.51 191.08-307.00 170.69L-307.00 170.69Q-307.00 168.37-304.22 168.37L-304.22 168.37L-307.00 155.40L-307.00 150.30L-304.22 145.20L-309.31 142.89L-307.00 124.82Q-307.00 122.03-309.31 117.40L-309.31 117.40L-307.00 104.43Q-312.09 85.43-312.09 84.04L-312.09 84.04Q-309.31 84.04-304.22 73.84L-304.22 73.84L-307.00 68.75L-307.00 63.65Q-307.00 61.33-304.22 61.33L-304.22 61.33L-307.00 56.24L-307.00 51.14Q-307.00 48.36-304.22 48.36L-304.22 48.36Q-304.22 46.04-307.00 46.04L-307.00 46.04L-304.22 20.55L-304.22-10.03Q-304.22-12.81-301.90-12.81L-301.90-12.81L-304.22-17.91L-304.22-20.22Q-304.22-23.00-301.90-23.00L-301.90-23.00L-304.22-28.10Q-304.22-30.42-301.90-30.42L-301.90-30.42L-304.22-35.51L-304.22-53.59Q-314.41-53.59-314.41-58.68L-314.41-58.68Q-314.41-64.71-296.80-66.10L-296.80-66.10L-296.80-68.88Q-309.31-68.88-309.31-73.97L-309.31-73.97L-309.31-76.29Q-301.43-89.73-299.12-99.46L-299.12-99.46L-304.22-109.65Q-301.90-114.29-301.90-117.07L-301.90-117.07Q-304.22-122.17-304.22-124.95L-304.22-124.95Q-299.12-124.95-299.12-130.04L-299.12-130.04Q-307.00-130.04-307.00-135.14L-307.00-135.14L-307.00-137.46L-301.90-145.33L-301.90-150.43L-314.41-147.65Q-314.41-150.43-317.19-150.43L-317.19-150.43Q-317.19-147.65-319.51-142.55L-319.51-142.55Q-312.09-142.55-312.09-137.46L-312.09-137.46L-312.09-135.14Q-319.51-135.14-319.51-130.04L-319.51-130.04L-322.29-130.04L-327.38-132.36Q-319.04-165.26-309.31-188.43L-309.31-188.43L-304.22-186.11L-304.22-191.21L-309.31-198.62Q-304.22-198.62-304.22-203.72L-304.22-203.72Q-304.22-206.50-307.00-206.50L-307.00-206.50Q-304.22-223.65-301.90-229.21L-301.90-229.21Q-305.61-229.21-309.31-237.08L-309.31-237.08Q-307.00-237.08-307.00-239.40L-307.00-239.40L-312.09-239.40Q-312.09-231.99-317.19-231.99L-317.19-231.99L-319.51-231.99L-319.51-234.30L-307.00-254.69L-309.31-267.67L-314.41-267.67Q-319.51-266.74-319.51-262.57L-319.51-262.57L-314.41-254.69Q-319.97-254.69-327.38-234.30L-327.38-234.30L-327.38-226.89Q-320.90-226.89-314.41-221.79L-314.41-221.79Q-316.26-211.60-319.51-211.60L-319.51-211.60L-324.60-213.91L-327.38-213.91L-327.38-211.60Q-317.19-210.21-317.19-203.72L-317.19-203.72L-322.29-201.40Q-322.29-206.50-327.38-206.50L-327.38-206.50L-327.38-203.72L-319.51-193.53L-319.51-191.21Q-319.51-186.11-327.38-186.11L-327.38-186.11L-324.60-181.01L-324.60-178.23Q-342.68-132.36-344.99-109.65L-344.99-109.65L-347.77-109.65Q-352.87-109.65-352.87-117.07L-352.87-117.07Q-347.77-132.36-344.99-132.36L-344.99-132.36L-347.77-137.46Q-341.29-157.85-334.80-157.85L-334.80-157.85L-334.80-170.82L-337.58-170.82Q-348.24-145.80-352.87-145.33L-352.87-145.33L-350.09-140.24L-350.09-137.46Q-365.38-113.36-365.38-96.68L-365.38-96.68L-373.26-96.68L-373.26-101.78Q-363.53-142.55-355.19-142.55L-355.19-142.55L-357.97-147.65L-339.90-193.53Q-342.68-198.62-342.68-201.40L-342.68-201.40Q-338.04-201.40-334.80-224.11L-334.80-224.11L-332.48-224.11L-334.80-229.21Q-330.63-252.38-327.38-252.38L-327.38-252.38L-329.70-257.47L-329.70-262.57L-324.60-262.57L-327.38-267.67L-327.38-272.76L-312.09-303.35L-314.41-308.44Q-312.09-312.61-312.09-318.64L-312.09-318.64Q-322.29-323.74-327.38-323.74L-327.38-323.74L-329.70-318.64Q-322.29-318.64-322.29-313.54L-322.29-313.54Q-335.72-313.54-342.68-305.66L-342.68-305.66Q-344.99-310.76-344.99-313.54L-344.99-313.54L-339.90-323.74Q-342.68-328.37-342.68-331.15L-342.68-331.15Q-337.58-331.15-337.58-336.25L-337.58-336.25L-342.68-339.03ZM-314.41-333.93L-322.29-333.93L-322.29-328.83Q-319.51-328.83-314.41-326.05L-314.41-326.05L-314.41-333.93ZM-421.45-320.96L-421.45-320.96L-419.13-320.96Q-414.04-320.96-414.04-326.05L-414.04-326.05L-414.04-328.83Q-417.28-328.83-421.45-320.96ZM-368.16-315.86L-370.48-315.86Q-370.48-311.69-375.58-305.66L-375.58-305.66L-370.48-303.35L-368.16-313.54L-368.16-315.86ZM-419.13-310.76L-424.23-310.76L-424.23-305.66Q-423.30-300.57-419.13-300.57L-419.13-300.57L-419.13-310.76ZM-332.48-305.66L-332.48-305.66L-327.38-298.25Q-327.38-295.47-337.58-282.96L-337.58-282.96Q-334.80-277.86-334.80-275.08L-334.80-275.08Q-338.04-275.08-344.99-257.47L-344.99-257.47L-342.68-252.38L-344.99-247.28Q-342.68-242.18-342.68-239.40L-342.68-239.40Q-350.09-234.77-365.38-175.92L-365.38-175.92Q-370.48-165.72-373.26-165.72L-373.26-165.72L-375.58-170.82Q-362.60-211.60-360.28-211.60L-360.28-211.60L-357.97-211.60L-357.97-213.91L-360.28-219.01L-357.97-219.01L-360.28-224.11Q-347.77-238.47-347.77-267.67L-347.77-267.67L-347.77-269.98L-350.09-269.98Q-361.21-229.67-378.36-201.40L-378.36-201.40L-380.67-206.50Q-373.26-237.08-363.06-237.08L-363.06-237.08L-368.16-244.50Q-355.19-269.52-350.09-293.15L-350.09-293.15L-347.77-293.15L-350.09-298.25Q-350.09-303.81-332.48-305.66ZM-414.04-300.57L-414.04-300.57Q-414.04-297.79-416.35-293.15L-416.35-293.15L-416.35-290.37L-414.04-290.37Q-414.04-295.47-408.94-295.47L-408.94-295.47Q-408.94-300.57-414.04-300.57ZM-337.58-300.57L-342.68-300.57L-342.68-298.25Q-341.75-293.15-337.58-293.15L-337.58-293.15L-337.58-300.57ZM-373.26-298.25L-378.36-298.25L-378.36-290.37Q-373.26-290.37-373.26-295.47L-373.26-295.47L-373.26-298.25ZM-342.68-293.15L-344.99-293.15L-344.99-277.86L-342.68-277.86L-342.68-293.15ZM-414.04-288.06L-421.45-288.06L-419.13-282.96L-421.45-264.89L-416.35-264.89Q-416.35-271.37-411.26-277.86L-411.26-277.86Q-414.04-282.03-414.04-288.06L-414.04-288.06ZM-309.31-280.18L-314.41-280.18L-314.41-275.08Q-313.48-269.98-309.31-269.98L-309.31-269.98L-309.31-280.18ZM-395.96-229.21L-395.96-229.21Q-389.94-229.21-383.45-264.89L-383.45-264.89Q-389.94-264.89-395.96-229.21ZM-411.26-252.38L-414.04-252.38Q-417.28-234.30-421.45-234.30L-421.45-234.30L-416.35-216.70L-419.13-211.60L-416.35-198.62L-414.04-198.62Q-414.04-206.50-408.94-219.01L-408.94-219.01L-411.26-229.21L-408.94-244.50Q-411.26-249.59-411.26-252.38L-411.26-252.38ZM-406.16-198.62L-408.94-198.62Q-416.35-182.41-416.35-165.72L-416.35-165.72L-403.84-162.94L-403.84-168.04Q-411.26-168.04-411.26-175.92L-411.26-175.92Q-406.16-184.26-406.16-191.21L-406.16-191.21L-406.16-198.62ZM-383.45-188.43L-383.45-198.62L-380.67-198.62Q-375.58-197.70-375.58-193.53L-375.58-193.53L-375.58-188.43L-383.45-188.43ZM-334.80-188.43L-337.58-188.43Q-336.65-183.33-332.48-183.33L-332.48-183.33L-329.70-183.33Q-329.70-188.43-334.80-188.43L-334.80-188.43ZM-301.90-170.82L-309.31-170.82L-312.09-165.72L-309.31-165.72Q-304.22-168.04-301.90-168.04L-301.90-168.04L-301.90-170.82ZM-375.58-165.72L-375.58-165.72L-373.26-165.72L-373.26-157.85Q-373.26-144.87-380.67-142.55L-380.67-142.55L-383.45-142.55Q-381.14-165.72-375.58-165.72ZM-411.26-157.85L-414.04-157.85Q-414.04-152.29-416.35-147.65L-416.35-147.65L-414.04-142.55L-416.35-137.46L-414.04-132.36Q-416.35-128.19-416.35-122.17L-416.35-122.17Q-415.43-117.07-411.26-117.07L-411.26-117.07Q-411.26-121.70-403.84-130.04L-403.84-130.04Q-408.94-130.04-408.94-135.14L-408.94-135.14L-408.94-137.46Q-408.94-140.24-406.16-140.24L-406.16-140.24L-408.94-145.33L-403.84-152.75L-411.26-157.85ZM-327.38-124.95L-322.29-127.26Q-322.29-117.07-317.19-117.07L-317.19-117.07Q-323.68-100.85-329.70-99.46L-329.70-99.46L-334.80-99.46Q-330.16-105.02-327.38-124.95L-327.38-124.95ZM-411.26-109.65L-416.35-111.97L-416.35-101.78L-411.26-101.78L-416.35-68.88Q-412.65-58.68-408.94-58.68L-408.94-58.68L-406.16-63.78Q-411.26-63.78-411.26-68.88L-411.26-68.88Q-410.33-73.97-406.16-73.97L-406.16-73.97L-408.94-79.07L-408.94-84.17L-403.84-91.58L-406.16-96.68L-403.84-109.65Q-406.16-109.65-406.16-111.97L-406.16-111.97L-411.26-109.65ZM-337.58-89.27L-324.60-96.68L-324.60-91.58Q-324.60-87.88-332.48-84.17L-332.48-84.17Q-337.58-84.17-337.58-89.27L-337.58-89.27ZM-360.28-94.36L-360.28-94.36L-355.19-94.36Q-355.19-80.93-363.06-79.07L-363.06-79.07Q-363.06-81.39-365.38-81.39L-365.38-81.39Q-360.28-89.73-360.28-94.36ZM-360.28-76.29L-360.28-76.29L-357.97-71.19L-357.97-68.88L-365.38-68.88L-365.38-71.19Q-364.45-76.29-360.28-76.29ZM-337.58-76.29L-337.58-76.29L-332.48-76.29L-332.48-73.97Q-336.19-63.78-339.90-63.78L-339.90-63.78L-342.68-68.88Q-337.58-68.88-337.58-76.29ZM-393.65-55.90L-393.65-55.90L-393.65-53.59L-388.55-53.59L-388.55-61.00Q-393.65-60.54-393.65-55.90ZM-363.06-63.78L-363.06-63.78L-360.28-63.78L-360.28-58.68Q-360.28-53.59-365.38-53.59L-365.38-53.59L-368.16-58.68Q-367.23-63.78-363.06-63.78ZM-342.68-58.68L-342.68-58.68Q-337.58-57.76-337.58-53.59L-337.58-53.59Q-337.58-48.49-342.68-48.49L-342.68-48.49Q-347.77-48.49-347.77-53.59L-347.77-53.59Q-346.85-58.68-342.68-58.68ZM-416.35-50.81L-416.35-50.81L-411.26-43.39Q-416.35-33.20-416.35-25.32L-416.35-25.32L-414.04-15.13Q-416.35-4.93-416.35 2.48L-416.35 2.48L-411.26 2.48Q-411.26-2.61-408.94-2.61L-408.94-2.61Q-408.94-4.93-411.26-4.93L-411.26-4.93L-403.84-40.61L-406.16-45.71L-406.16-48.49L-403.84-53.59L-408.94-53.59Q-413.57-50.81-416.35-50.81ZM-370.48-53.59L-370.48-53.59L-368.16-48.49L-368.16-43.39Q-368.16-38.29-373.26-38.29L-373.26-38.29L-375.58-38.29L-375.58-48.49Q-374.65-53.59-370.48-53.59ZM-312.09-48.49L-312.09-48.49L-307.00-45.71Q-307.00-44.32-322.29-15.13L-322.29-15.13Q-317.19-14.66-317.19-10.03L-317.19-10.03L-322.29-7.71Q-327.38-7.71-327.38-12.81L-327.38-12.81L-327.38-17.91Q-317.19-35.51-314.41-35.51L-314.41-35.51L-317.19-40.61L-317.19-43.39Q-316.26-48.49-312.09-48.49ZM-347.77-38.29L-347.77-38.29Q-347.77-35.51-344.99-35.51L-344.99-35.51Q-349.63-21.61-355.19-15.13L-355.19-15.13L-352.87-10.03Q-356.58 0.17-360.28 0.17L-360.28 0.17Q-360.28-2.61-363.06-2.61L-363.06-2.61Q-352.87-38.29-347.77-38.29ZM-380.67-25.32L-380.67-28.10L-373.26-28.10L-373.26-25.32Q-373.26-20.22-378.36-20.22L-378.36-20.22L-380.67-25.32ZM-390.87-7.71L-390.87-7.71L-393.65-2.61L-385.77-2.61Q-385.77-7.71-390.87-7.71ZM-329.70 2.48L-324.60 0.17L-324.60 5.26Q-324.60 7.58-327.38 7.58L-327.38 7.58L-324.60 12.68L-324.60 20.55Q-324.60 25.65-329.70 25.65L-329.70 25.65L-334.80 17.77L-329.70 10.36L-329.70 2.48ZM-365.38 2.48L-365.38 2.48L-363.06 7.58L-363.06 10.36Q-363.06 15.46-368.16 15.46L-368.16 15.46L-370.48 10.36L-370.48 7.58Q-369.55 2.48-365.38 2.48ZM-375.58 20.55L-370.48 17.77Q-365.38 18.70-365.38 22.87L-365.38 22.87L-370.48 25.65Q-375.58 25.65-375.58 20.55L-375.58 20.55ZM-334.80 30.75L-334.80 27.97L-327.38 27.97L-327.38 35.85L-329.70 35.85Q-334.80 35.85-334.80 30.75L-334.80 30.75ZM-370.48 30.75L-370.48 30.75L-368.16 30.75L-368.16 35.85Q-374.65 51.14-378.36 51.14L-378.36 51.14L-380.67 46.04Q-373.72 30.75-370.48 30.75ZM-347.77 38.16L-339.90 33.07Q-339.90 35.85-337.58 35.85L-337.58 35.85Q-339.90 40.48-339.90 43.26L-339.90 43.26L-342.68 43.26Q-347.77 43.26-347.77 38.16L-347.77 38.16ZM-342.68 51.14L-342.68 51.14L-339.90 51.14L-339.90 56.24Q-339.90 61.33-344.99 61.33L-344.99 61.33L-347.77 61.33L-347.77 56.24Q-346.85 51.14-342.68 51.14ZM-350.09 63.65L-350.09 63.65Q-344.99 64.58-344.99 68.75L-344.99 68.75L-344.99 81.72Q-344.99 86.82-350.09 86.82L-350.09 86.82L-355.19 84.04Q-352.87 76.62-350.09 76.62L-350.09 76.62L-352.87 71.53Q-350.09 66.43-350.09 63.65ZM-355.19 91.92L-355.19 91.92Q-350.09 92.38-350.09 97.01L-350.09 97.01L-350.09 99.33Q-350.09 112.77-357.97 114.62L-357.97 114.62L-363.06 112.30Q-360.28 91.92-355.19 91.92ZM-159.18 104.43L-159.18 104.43L-156.40 109.52Q-138.33 104.43-128.59 104.43L-128.59 104.43Q-128.59 99.33-136.01 99.33L-136.01 99.33Q-152.69 104.43-159.18 104.43ZM-406.16 107.21L-398.74 102.11Q-393.65 102.57-393.65 107.21L-393.65 107.21L-393.65 109.52Q-393.65 113.23-401.06 117.40L-401.06 117.40L-403.84 117.40L-406.16 107.21ZM-138.79 117.40L-138.79 117.40L-133.69 117.40Q-128.59 117.40-128.59 112.30L-128.59 112.30L-133.69 112.30Q-138.79 112.77-138.79 117.40ZM-370.48 124.82L-370.48 124.82L-368.16 124.82Q-363.06 125.74-363.06 129.91L-363.06 129.91L-363.06 140.11L-368.16 140.11Q-373.26 140.11-373.26 132.69L-373.26 132.69Q-370.48 127.60-370.48 124.82ZM-217.56 127.60L-217.56 127.60L-215.25 127.60Q-210.15 128.06-210.15 132.69L-210.15 132.69Q-218.49 137.79-222.66 137.79L-222.66 137.79L-222.66 132.69Q-221.73 127.60-217.56 127.60ZM-192.08 132.69L-186.98 129.91Q-181.88 130.84-181.88 135.01L-181.88 135.01Q-193.93 150.30-202.27 168.37L-202.27 168.37L-205.05 168.37L-202.27 173.47Q-202.27 176.71-217.56 188.76L-217.56 188.76L-220.34 188.76L-220.34 185.98Q-206.44 158.18-202.27 158.18L-202.27 158.18L-205.05 153.08Q-192.08 140.57-192.08 132.69L-192.08 132.69ZM-161.49 129.91L-161.49 129.91L-156.40 129.91L-154.08 140.11Q-158.71 140.11-166.59 158.18L-166.59 158.18L-164.27 163.28Q-181.88 179.49-181.88 180.88L-181.88 180.88L-181.88 188.76Q-186.05 188.76-192.08 214.25L-192.08 214.25L-194.86 214.25Q-197.17 214.25-197.17 211.47L-197.17 211.47L-202.27 214.25L-205.05 214.25L-205.05 211.47Q-205.05 207.76-186.98 188.76L-186.98 188.76L-189.76 183.66Q-176.79 166.52-176.79 160.50L-176.79 160.50L-171.69 163.28L-169.37 163.28L-169.37 160.50Q-174.47 160.50-174.47 158.18L-174.47 158.18Q-166.59 129.91-161.49 129.91ZM-250.93 140.11L-250.93 140.11L-248.15 140.11Q-248.15 145.20-253.24 145.20L-253.24 145.20L-256.02 145.20Q-255.10 140.11-250.93 140.11ZM-133.69 145.20L-138.79 145.20L-138.79 155.40L-133.69 155.40L-133.69 145.20ZM-227.76 147.98L-227.76 145.20Q-222.66 146.13-222.66 150.30L-222.66 150.30L-222.66 153.08Q-227.76 153.08-227.76 147.98L-227.76 147.98ZM-383.45 150.30L-378.36 147.98L-375.58 147.98L-378.36 153.08L-375.58 165.59Q-383.45 168.37-383.45 170.69L-383.45 170.69Q-380.67 175.79-380.67 178.57L-380.67 178.57Q-385.77 178.57-385.77 185.98L-385.77 185.98Q-390.87 185.98-390.87 180.88L-390.87 180.88Q-388.55 173.47-385.77 173.47L-385.77 173.47L-388.55 168.37Q-388.55 163.28-380.67 163.28L-380.67 163.28L-383.45 150.30ZM-393.65 185.98L-393.65 185.98L-388.55 185.98L-390.87 198.96L-395.96 196.18Q-393.65 191.54-393.65 185.98ZM-176.79 201.27L-164.27 185.98L-159.18 185.98L-159.18 193.86L-164.27 193.86L-164.27 209.15L-169.37 209.15Q-173.08 209.15-176.79 201.27L-176.79 201.27ZM-138.79 188.76L-143.89 191.08Q-141.11 196.18-141.11 198.96L-141.11 198.96L-138.79 198.96L-138.79 188.76ZM-225.44 201.27L-225.44 201.27L-222.66 201.27L-222.66 206.37L-237.95 221.66L-240.73 221.66Q-229.15 201.27-225.44 201.27ZM-148.98 206.37L-148.98 206.37L-148.98 209.15Q-146.20 213.78-146.20 216.56L-146.20 216.56Q-151.30 219.34-154.08 219.34L-154.08 219.34L-154.08 224.44L-151.30 224.44Q-147.59 224.44-143.89 216.56L-143.89 216.56L-143.89 211.47Q-143.89 206.37-148.98 206.37ZM-174.47 209.15L-174.47 209.15Q-174.47 211.47-171.69 211.47L-171.69 211.47Q-181.88 231.86-184.66 231.86L-184.66 231.86Q-184.66 229.08-186.98 224.44L-186.98 224.44Q-184.66 209.15-174.47 209.15ZM-205.05 219.34L-205.05 219.34L-202.27 219.34L-202.27 226.76Q-207.37 226.76-217.56 242.05L-217.56 242.05L-220.34 242.05L-220.34 239.73Q-209.69 219.34-205.05 219.34ZM-161.49 224.44L-161.49 224.44L-161.49 226.76Q-160.57 231.86-156.40 231.86L-156.40 231.86L-151.30 231.86L-151.30 226.76Q-157.32 226.76-161.49 224.44ZM-243.05 226.76L-243.05 226.76L-240.73 231.86Q-247.22 247.15-250.93 247.15L-250.93 247.15L-250.93 244.83Q-248.15 226.76-243.05 226.76ZM-141.11 236.95L-148.98 236.95Q-148.98 242.51-151.30 247.15L-151.30 247.15Q-141.11 247.15-141.11 257.34L-141.11 257.34L-136.01 255.02L-130.91 255.02Q-128.59 255.02-128.59 257.34L-128.59 257.34Q-123.50 255.02-120.72 255.02L-120.72 255.02L-120.72 252.24Q-141.11 245.29-141.11 236.95L-141.11 236.95ZM-169.37 249.93L-169.37 249.93L-161.49 249.93L-161.49 244.83L-164.27 244.83Q-169.37 245.29-169.37 249.93ZM-148.98 252.24L-156.40 247.15L-161.49 257.34L-156.40 260.12L-151.30 260.12Q-151.30 257.34-148.98 252.24L-148.98 252.24ZM-258.34 249.93L-253.24 247.15L-250.93 247.15Q-250.93 249.93-248.15 255.02L-248.15 255.02L-253.24 257.34L-258.34 249.93ZM-148.98 262.44L-148.98 262.44L-148.98 267.54L-138.79 267.54L-138.79 265.22Q-144.35 265.22-148.98 262.44ZM-171.69 267.54L-171.69 267.54L-171.69 272.63L-156.40 270.32Q-156.40 265.22-164.27 265.22L-164.27 265.22Q-168.91 267.54-171.69 267.54ZM189.28-368.68L199.48-373.78L199.48-371.00L194.38-363.59L210.14-360.81Q210.14-366.83 228.21-368.68L228.21-368.68Q232.84-368.68 243.96-363.59L243.96-363.59Q248.60-365.90 251.38-365.90L251.38-365.90L256.94-363.59Q261.11-365.90 267.13-365.90L267.13-365.90Q272.23-358.49 303.27-345.05L303.27-345.05Q325.52-330.22 332.00-316.78L332.00-316.78Q339.88-316.78 342.20-303.81L342.20-303.81Q355.17-302.88 355.17-295.93L355.17-295.93L352.86-290.84Q359.81-287.59 370.93-267.20L370.93-267.20L368.15-262.11Q372.78-262.11 389.00-231.06L389.00-231.06L386.68-225.96Q396.88-206.04 399.66-187.04L399.66-187.04L391.78-181.94Q385.29-181.94 381.12-210.21L381.12-210.21Q383.90-210.21 383.90-212.99L383.90-212.99L378.81-215.30L373.71-215.30L373.71-212.99L378.81-205.11L373.71-197.23Q381.12-197.23 381.12-192.14L381.12-192.14Q377.42-192.14 373.71-184.26L373.71-184.26Q380.20-184.26 386.68-168.97L386.68-168.97L386.68-166.19Q386.68-161.09 381.12-161.09L381.12-161.09L383.90-155.99Q383.90-153.21 381.12-153.21L381.12-153.21Q386.68-140.24 386.68-135.14L386.68-135.14Q383.90-135.14 383.90-132.36L383.90-132.36Q389.00-131.90 389.00-127.26L389.00-127.26L386.68-127.26L389.00-122.17L389.00-117.07Q389.00-111.97 373.71-111.97L373.71-111.97L373.71-109.19Q389.00-109.19 389.00-104.09L389.00-104.09Q386.68-104.09 386.68-101.31L386.68-101.31Q389.00-101.31 389.00-99.00L389.00-99.00Q383.90-98.07 383.90-93.44L383.90-93.44Q389.00-92.97 389.00-88.34L389.00-88.34Q386.68-88.34 386.68-86.02L386.68-86.02L381.12-88.34L378.81-88.34L378.81-86.02Q384.83-86.02 386.68-70.27L386.68-70.27Q389.00-70.27 389.00-67.49L389.00-67.49L383.90-60.07L383.90-54.51L386.68-49.42Q381.12-48.49 381.12-44.32L381.12-44.32Q381.12-40.61 389.00-36.44L389.00-36.44L381.12-23.47L386.68-15.59L386.68-10.49Q378.81-10.49 378.81-5.39L378.81-5.39L378.81-2.61Q382.51-2.61 394.10 4.80L394.10 4.80L394.10 10.36L389.00 10.36L389.00 12.68L391.78 12.68Q396.88 10.36 399.66 10.36L399.66 10.36L399.66 12.68Q399.66 44.19 383.90 51.60L383.90 51.60L386.68 56.70L386.68 67.36Q386.68 75.23 376.03 75.23L376.03 75.23L378.81 80.33Q378.81 95.62 368.15 95.62L368.15 95.62L368.15 98.40Q369.07 103.50 373.71 103.50L373.71 103.50Q363.98 132.23 355.17 132.23L355.17 132.23L357.95 137.33Q351.47 155.40 344.98 155.40L344.98 155.40L347.76 160.50Q339.88 167.91 332.00 189.22L332.00 189.22L295.86 238.34Q274.55 251.32 262.03 267.07L262.03 267.07Q256.01 267.07 246.28 277.27L246.28 277.27L241.18 277.27L228.21 274.95Q228.21 280.05 225.43 280.05L225.43 280.05L218.01 280.05Q197.16 298.12 179.09 298.12L179.09 298.12Q172.60 280.05 166.11 280.05L166.11 280.05Q163.33 280.05 158.24 282.36L158.24 282.36Q138.78 277.27 137.39 277.27L137.39 277.27Q137.39 280.05 127.19 285.14L127.19 285.14Q99.39 281.90 70.20 267.07L70.20 267.07L67.41 272.17Q70.20 277.27 70.20 280.05L70.20 280.05L67.41 280.05Q59.54 280.05 18.30 228.15L18.30 228.15Q18.30 225.37 20.61 225.37L20.61 225.37Q15.98 211.47 10.42 204.52L10.42 204.52L5.32 207.30Q-15.53 196.18-15.53 171.15L-15.53 171.15L-15.53 168.37L-10.43 168.37L-10.43 165.59Q-19.70 165.59-28.50 145.20L-28.50 145.20L-26.19 139.64L-41.48 85.43L-36.38 82.65Q-36.38 80.33-46.58 67.36L-46.58 67.36L-44.26 62.26Q-49.36 52.53-49.36 41.41L-49.36 41.41L-49.36 36.31Q-57.23 36.31-57.23 28.43L-57.23 28.43L-52.14 25.65Q-52.14 28.43-49.36 28.43L-49.36 28.43L-49.36 25.65L-54.45 17.77L-49.36 10.36Q-53.06 10.36-57.23-0.30L-57.23-0.30L-52.14-2.61Q-57.23-11.42-57.23-18.37L-57.23-18.37Q-52.14-18.37-52.14-23.47L-52.14-23.47Q-57.23-23.47-57.23-28.56L-57.23-28.56Q-52.14-28.56-49.36-57.29L-49.36-57.29L-46.58-57.29L-49.36-62.39Q-45.19-70.73-39.16-117.07L-39.16-117.07L-46.58-117.07L-52.14-114.29L-54.45-119.39L-54.45-122.17L-49.36-119.39Q-37.31-124.48-36.38-130.04L-36.38-130.04L-36.38-132.36Q-36.38-135.14-39.16-135.14L-39.16-135.14Q-29.43-171.28-23.41-171.28L-23.41-171.28L-26.19-176.84Q-26.19-179.16-23.41-179.16L-23.41-179.16L-26.19-184.26L-15.53-194.92Q-20.63-194.92-20.63-200.01L-20.63-200.01L-20.63-202.79L-10.43-202.79L-10.43-205.11L-15.53-205.11L-15.53-212.99L-7.65-207.89L-5.34-207.89L-5.34-210.21Q-7.65-215.30-7.65-218.09L-7.65-218.09Q-2.56-218.09-2.56-223.18L-2.56-223.18Q-2.56-225.96-5.34-225.96L-5.34-225.96Q-2.56-237.08 7.64-241.25L7.64-241.25Q10.88-254.23 15.52-254.23L15.52-254.23Q18.30-249.59 18.30-246.81L18.30-246.81L20.61-246.81Q20.61-264.89 38.69-272.76L38.69-272.76L36.37-277.86Q36.83-282.96 41.47-282.96L41.47-282.96L46.56-280.18Q46.56-302.42 96.14-324.66L96.14-324.66Q96.14-332.08 101.24-332.08L101.24-332.08L106.34-329.76Q106.34-333.00 119.31-342.73L119.31-342.73L121.63-342.73L127.19-339.95Q127.19-347.83 176.31-360.81L176.31-360.81L176.31-358.03L181.41-360.81L186.50-360.81L192.06-358.03L192.06-360.81Q189.28-365.90 189.28-368.68L189.28-368.68ZM225.43-355.71L225.43-355.71L225.43-352.93L236.08-350.61L238.40-355.71L238.40-358.03Q234.23-355.71 225.43-355.71ZM184.19-350.61L181.41-350.61L181.41-347.83L192.06-345.05Q192.06-350.61 184.19-350.61L184.19-350.61ZM249.06-339.95L249.06-339.95Q251.38-334.86 251.38-332.08L251.38-332.08L264.35-332.08Q262.03-339.95 249.06-339.95ZM303.27-339.95L293.08-339.95L293.08-337.64Q295.86-337.64 300.96-334.86L300.96-334.86L303.27-339.95ZM127.19-301.03L124.41-301.03L124.41-295.93Q146.19-314.00 155.46-329.76L155.46-329.76L155.46-332.08L153.14-332.08Q147.12-332.08 127.19-301.03L127.19-301.03ZM142.48-267.20L140.17-267.20L137.39-272.76Q140.17-272.76 163.33-298.71L163.33-298.71Q160.55-298.71 160.55-301.03L160.55-301.03Q174.92-314.00 181.41-314.00L181.41-314.00L179.09-319.10L184.19-326.98L184.19-329.76L176.31-329.76Q161.94-329.76 114.22-269.98L114.22-269.98L101.24-272.76L101.24-267.20L108.66-267.20L108.66-262.11Q108.66-257.01 103.56-257.01L103.56-257.01Q101.24-262.11 101.24-264.89L101.24-264.89L93.36-264.89Q101.24-252.84 101.24-249.13L101.24-249.13Q80.39-223.18 80.39-212.99L80.39-212.99L70.20-212.99L70.20-223.18Q62.78-223.18 54.44-202.79L54.44-202.79L44.25-192.14L38.69-194.92L25.71-184.26L23.39-184.26L23.39-189.82L36.37-202.79L44.25-197.23L51.66-207.89L51.66-215.30L44.25-215.30L44.25-223.18Q49.34-223.18 54.44-236.16L54.44-236.16L44.25-236.16Q44.71-241.25 49.34-241.25L49.34-241.25L51.66-241.25L57.22-238.94Q57.22-244.03 67.41-254.23L67.41-254.23Q62.32-254.23 62.32-259.79L62.32-259.79L62.32-262.11Q69.27-262.11 80.39-285.74L80.39-285.74L80.39-293.15L70.20-293.15Q70.20-282.03 54.44-277.86L54.44-277.86Q47.49-264.89 41.47-264.89L41.47-264.89Q42.39-259.79 46.56-259.79L46.56-259.79Q46.56-262.11 49.34-262.11L49.34-262.11L51.66-257.01Q48.88-257.01 38.69-249.13L38.69-249.13Q33.59-251.91 31.27-251.91L31.27-251.91L31.27-249.13L36.37-241.25L36.37-236.16Q36.37-231.06 20.61-231.06L20.61-231.06L20.61-228.28L25.71-228.28L25.71-225.96Q20.61-219.48 20.61-215.30L20.61-215.30Q23.39-210.67 23.39-207.89L23.39-207.89L18.30-205.11L18.30-212.99L15.52-212.99Q11.81-212.99 7.64-205.11L7.64-205.11Q18.30-192.14 18.30-189.82L18.30-189.82Q14.13-187.04 2.54-187.04L2.54-187.04L2.54-179.16Q8.57-179.16 12.74-176.84L12.74-176.84Q17.83-179.16 20.61-179.16L20.61-179.16L23.39-174.06Q19.69-174.06 7.64-153.21L7.64-153.21L7.64-150.90Q12.27-150.90 25.71-166.19L25.71-166.19L28.49-166.19L28.49-161.09Q25.25-161.09 15.52-145.33L15.52-145.33L12.74-145.33Q8.10-148.11 5.32-148.11L5.32-148.11L-0.24-140.24L-0.24-127.26L-2.56-127.26Q-12.75-135.14-18.31-135.14L-18.31-135.14L-15.53-130.04Q-20.63-129.12-20.63-124.95L-20.63-124.95L-10.43-124.95L-10.43-122.17Q-15.07-111.97-20.63-111.97L-20.63-111.97Q-18.31-106.87-18.31-104.09L-18.31-104.09L-15.53-104.09Q-12.75-104.09-2.56-122.17L-2.56-122.17L2.54-122.17L2.54-117.07L-2.56-109.19Q-0.24-109.19-0.24-106.41L-0.24-106.41Q-13.21-99.00-20.63-99.00L-20.63-99.00L-20.63-104.09L-26.19-104.09L-26.19-99.00Q-26.19-96.22-15.53-91.12L-15.53-91.12Q-15.53-78.14-31.28-78.14L-31.28-78.14L-31.28-73.05L-23.41-73.05L-23.41-70.27L-28.50-62.39L-28.50-57.29L-15.53-57.29Q-22.48-44.32-26.19-44.32L-26.19-44.32Q-26.19-49.42-31.28-49.42L-31.28-49.42L-33.60-49.42L-33.60-47.10L-23.41-36.44Q-28.50-34.12-31.28-34.12L-31.28-34.12L-31.28-28.56Q-23.41-28.56-23.41-26.25L-23.41-26.25L-13.21-31.34L-15.53-36.44L-15.53-39.22Q-11.82-39.22-7.65-28.56L-7.65-28.56L-23.41-18.37L-26.19-18.37Q-26.19-21.15-28.50-26.25L-28.50-26.25Q-33.60-23.47-36.38-23.47L-36.38-23.47L-36.38-13.27Q-23.41-12.34-23.41-5.39L-23.41-5.39Q-33.60-1.69-33.60 2.48L-33.60 2.48L-31.28 2.48Q-31.28-0.30-28.50-0.30L-28.50-0.30L-26.19 4.80Q-28.50 12.68-31.28 12.68L-31.28 12.68Q-28.50 17.31-28.50 23.34L-28.50 23.34Q-20.16 17.77-15.53 17.77L-15.53 17.77Q-15.53 28.43-28.50 28.43L-28.50 28.43Q-23.41 35.38-23.41 46.50L-23.41 46.50Q-31.28 46.50-31.28 51.60L-31.28 51.60Q-31.28 55.77-18.31 69.67L-18.31 69.67Q-22.02 69.67-26.19 77.55L-26.19 77.55L-26.19 80.33Q-18.31 91.45-18.31 98.40L-18.31 98.40Q-23.41 101.18-26.19 101.18L-26.19 101.18L-26.19 103.50L-18.31 103.50L-18.31 111.38L-23.41 111.38Q-10.90 139.64-5.34 139.64L-5.34 139.64Q-2.56 139.64-2.56 150.30L-2.56 150.30Q-7.65 151.23-7.65 155.40L-7.65 155.40L-0.24 155.40L-0.24 158.18L-2.56 163.28L-0.24 163.28Q4.86 160.50 7.64 160.50L7.64 160.50L7.64 165.59L2.54 165.59L2.54 178.57L7.64 178.57L7.64 173.47L15.52 173.47L12.74 191.54L18.30 189.22Q23.39 190.15 23.39 194.32L23.39 194.32Q20.61 199.42 20.61 202.20L20.61 202.20Q23.39 207.30 23.39 210.08L23.39 210.08L28.49 210.08L28.49 202.20Q63.71 228.15 75.29 243.44L75.29 243.44L80.39 241.12L83.17 241.12L83.17 243.44L80.39 249.00Q103.56 249.93 103.56 254.10L103.56 254.10L108.66 251.32L111.44 251.32L116.53 254.10Q116.53 250.39 129.51 241.12L129.51 241.12Q132.29 246.22 132.29 249.00L132.29 249.00Q150.36 249.00 150.36 243.44L150.36 243.44Q147.58 238.81 147.58 236.03L147.58 236.03L176.31 210.08L179.09 215.17Q162.41 234.64 155.46 238.34L155.46 238.34L153.14 249.00L166.11 249.00Q215.23 190.15 215.23 184.13L215.23 184.13L215.23 178.57L223.11 178.57L223.11 181.35Q212.45 204.98 184.19 236.03L184.19 236.03Q181.41 236.03 181.41 238.34L181.41 238.34L189.28 238.34L189.28 233.25L194.38 233.25L194.38 236.03L192.06 241.12L197.16 241.12Q215.23 236.03 218.01 236.03L218.01 236.03L218.01 233.25Q210.14 233.25 210.14 228.15L210.14 228.15Q224.96 223.51 238.40 194.32L238.40 194.32Q249.52 185.05 264.35 155.40L264.35 155.40Q267.13 155.40 267.13 145.20L267.13 145.20L280.11 147.52L280.11 152.62Q268.06 172.08 251.38 189.22L251.38 189.22L251.38 197.10L254.16 197.10Q269.91 190.15 269.91 178.57L269.91 178.57Q272.23 178.57 287.98 155.40L287.98 155.40Q285.20 155.40 285.20 152.62L285.20 152.62Q300.96 140.11 300.96 132.23L300.96 132.23L300.96 127.13L298.18 127.13Q298.18 138.25 282.89 145.20L282.89 145.20L277.33 145.20L277.33 142.42L313.93 98.40Q308.84 98.40 308.84 93.31L308.84 93.31Q319.03 93.31 326.91 46.50L326.91 46.50L332.00 43.72L329.22 30.75L334.78 23.34L334.78 20.55L332.00 15.46L319.03 20.55L319.03 15.46Q329.22 12.68 337.10 12.68L337.10 12.68L337.10 4.80L332.00 4.80L332.00 2.48Q332.00-2.61 347.76-2.61L347.76-2.61L347.76-5.39L342.20-13.27L342.20-23.47L347.76-23.47L342.20-31.34L342.20-34.12Q347.76-47.10 352.86-47.10L352.86-47.10L352.86-49.42L347.76-49.42Q347.76-47.10 344.98-47.10L344.98-47.10L344.98-52.20L347.76-57.29Q344.98-61.93 344.98-67.49L344.98-67.49Q350.08-67.49 350.08-73.05L350.08-73.05L350.08-111.97L347.76-130.04L350.08-130.04L347.76-135.14L347.76-137.92L352.86-145.33Q343.13-145.33 339.88-181.94L339.88-181.94Q342.20-181.94 342.20-184.26L342.20-184.26Q332.00-191.21 321.81-218.09L321.81-218.09L321.81-220.87L324.13-225.96L303.27-254.23Q303.27-267.67 280.11-275.08L280.11-275.08L280.11-280.18L285.20-280.18L285.20-282.96Q277.79-282.96 267.13-290.84L267.13-290.84Q259.25-290.84 259.25-301.03L259.25-301.03L256.94-301.03L251.38-298.71L243.96-308.91L243.96-314.00L249.06-314.00L249.06-308.91L254.16-308.91Q254.16-312.61 246.28-316.78L246.28-316.78L241.18-314.00Q241.18-323.74 202.26-332.08L202.26-332.08Q188.36-328.83 179.09-303.81L179.09-303.81Q168.43-303.81 168.43-290.84L168.43-290.84L142.48-267.20ZM269.91-332.08L269.91-332.08L269.91-329.76Q272.23-324.66 272.23-321.88L272.23-321.88L277.33-324.66Q286.13-319.10 293.08-319.10L293.08-319.10Q293.08-324.66 269.91-332.08ZM306.05-326.98L300.96-329.76L298.18-324.66L298.18-321.88L300.96-321.88Q306.05-321.88 306.05-326.98L306.05-326.98ZM51.66-220.87L51.66-220.87L54.44-220.87Q58.15-220.87 72.51-241.25L72.51-241.25Q75.29-236.62 75.29-233.84L75.29-233.84Q72.51-228.74 72.51-225.96L72.51-225.96L75.29-225.96Q81.32-231.06 85.49-231.06L85.49-231.06L83.17-236.16L96.14-254.23L93.36-254.23Q90.12-254.23 80.39-241.25L80.39-241.25Q75.29-241.25 75.29-246.81L75.29-246.81Q79.00-246.81 101.24-277.86L101.24-277.86L114.22-280.18L114.22-285.74L111.44-285.74L106.34-282.96L106.34-285.74Q111.90-298.25 132.29-319.10L132.29-319.10L134.60-319.10L134.60-324.66Q117.00-324.66 96.14-290.84L96.14-290.84Q96.14-285.74 83.17-277.86L83.17-277.86Q83.17-264.42 70.20-257.01L70.20-257.01Q70.20-248.67 51.66-220.87ZM197.16-314.00L210.14-324.66L212.45-324.66Q203.65-308.91 199.48-308.91L199.48-308.91L197.16-314.00ZM308.84-314.00L308.84-314.00L311.15-314.00Q316.25-314.00 316.25-319.10L316.25-319.10L313.93-319.10Q308.84-318.64 308.84-314.00ZM96.14-311.69L96.14-311.69L85.49-301.03L90.58-301.03Q97.07-306.13 101.24-306.13L101.24-306.13Q101.24-311.69 96.14-311.69ZM324.13-303.81L324.13-303.81L326.91-303.81Q332.00-303.81 332.00-308.91L332.00-308.91L329.22-308.91Q324.13-307.98 324.13-303.81ZM83.17-298.71L83.17-298.71L83.17-295.93Q83.63-290.84 88.27-290.84L88.27-290.84L88.27-293.15Q88.27-298.71 83.17-298.71ZM181.41-295.93L181.41-295.93L186.50-295.93L186.50-293.15Q186.50-287.59 173.53-285.74L173.53-285.74L173.53-288.06Q173.53-291.76 181.41-295.93ZM124.41-290.84L116.53-290.84L116.53-285.74L119.31-285.74Q124.41-285.74 124.41-290.84L124.41-290.84ZM316.25-282.96L313.93-282.96L313.93-277.86L321.81-277.86Q321.81-282.96 316.25-282.96L316.25-282.96ZM166.11-275.08L173.53-280.18L176.31-275.08L168.43-269.98L166.11-275.08ZM220.33-277.86L220.33-280.18L223.11-280.18Q228.21-279.71 228.21-275.08L228.21-275.08L228.21-272.76L225.43-272.76Q220.33-272.76 220.33-277.86L220.33-277.86ZM202.26-277.86L202.26-277.86L205.04-272.76Q205.04-267.20 199.48-267.20L199.48-267.20L197.16-272.76Q198.09-277.86 202.26-277.86ZM155.46-267.20L155.46-267.20L163.33-267.20L163.33-262.11Q163.33-258.40 155.46-254.23L155.46-254.23Q150.36-254.23 150.36-259.79L150.36-259.79Q155.46-259.79 155.46-267.20ZM212.45-259.79L212.45-267.20Q218.01-266.74 218.01-262.11L218.01-262.11L212.45-259.79ZM137.39-264.89L137.39-264.89L142.48-264.89L142.48-262.11Q142.48-258.40 132.29-251.91L132.29-251.91L129.51-251.91L129.51-257.01Q129.51-260.72 137.39-264.89ZM189.28-259.79L189.28-259.79L189.28-254.23Q189.28-249.13 184.19-249.13L184.19-249.13L184.19-254.23Q185.11-259.79 189.28-259.79ZM207.36-257.01L207.36-257.01L207.36-254.23Q207.36-249.13 202.26-249.13L202.26-249.13L202.26-251.91Q203.18-257.01 207.36-257.01ZM365.83-254.23L360.73-254.23Q360.73-251.91 357.95-246.81L357.95-246.81L363.05-246.81Q363.05-249.59 365.83-254.23L365.83-254.23ZM119.31-249.13L119.31-249.13L121.63-249.13Q127.19-248.67 127.19-244.03L127.19-244.03L127.19-241.25Q114.68-220.87 111.44-220.87L111.44-220.87L108.66-220.87L108.66-223.18L116.53-233.84Q114.22-238.94 114.22-241.25L114.22-241.25Q119.31-241.25 119.31-249.13ZM173.53-244.03L173.53-249.13L184.19-249.13L184.19-246.81L181.41-241.25Q176.31-244.03 173.53-244.03L173.53-244.03ZM140.17-244.03L145.26-246.81L147.58-246.81L147.58-244.03Q147.58-238.94 142.48-238.94L142.48-238.94L140.17-244.03ZM171.21-231.06L171.21-238.94Q176.31-238.01 176.31-233.84L176.31-233.84L171.21-231.06ZM137.39-236.16L137.39-236.16L137.39-228.28Q137.39-223.18 132.29-223.18L132.29-223.18L129.51-223.18L129.51-225.96Q133.68-236.16 137.39-236.16ZM184.19-231.06L192.06-236.16L192.06-231.06Q192.06-225.96 186.50-225.96L186.50-225.96L184.19-231.06ZM41.47-231.06L41.47-231.06L44.25-225.96L44.25-223.18L36.37-223.18L36.37-225.96Q36.83-231.06 41.47-231.06ZM378.81-228.28L365.83-228.28L365.83-223.18L373.71-223.18Q378.81-223.18 378.81-228.28L378.81-228.28ZM163.33-228.28L163.33-228.28L163.33-220.87L158.24-220.87L158.24-223.18Q159.16-228.28 163.33-228.28ZM347.76-225.96L344.98-225.96L344.98-218.09L347.76-218.09Q352.86-218.09 352.86-223.18L352.86-223.18L347.76-225.96ZM36.37-212.99L41.47-215.30L44.25-215.30L44.25-207.89L41.47-207.89Q36.37-207.89 36.37-212.99L36.37-212.99ZM70.20-210.21L70.20-210.21Q70.20-207.89 72.51-207.89L72.51-207.89Q51.66-168.04 38.69-153.21L38.69-153.21Q33.59-153.21 33.59-158.31L33.59-158.31Q59.54-187.97 59.54-202.79L59.54-202.79Q63.71-202.79 70.20-210.21ZM166.11-205.11L166.11-205.11L171.21-205.11Q171.21-191.21 158.24-184.26L158.24-184.26L155.46-184.26Q166.11-199.09 166.11-205.11ZM93.36-202.79L93.36-202.79Q93.36-200.01 96.14-200.01L96.14-200.01Q91.97-189.82 88.27-189.82L88.27-189.82L83.17-189.82Q87.80-201.40 93.36-202.79ZM108.66-194.92L108.66-194.92L111.44-189.82L103.56-184.26L103.56-189.82Q104.49-194.92 108.66-194.92ZM36.37-184.26L36.37-184.26L41.47-184.26Q37.76-174.06 33.59-174.06L33.59-174.06L33.59-176.84Q36.37-181.48 36.37-184.26ZM365.83-176.84L365.83-176.84L363.05-171.28L370.93-171.28Q370.93-176.84 365.83-176.84ZM389.00-176.84L394.10-179.16L401.97-179.16L396.88-171.28L401.97-171.28L401.97-166.19L399.66-161.09Q404.75-160.16 404.75-155.99L404.75-155.99L404.75-153.21L401.97-137.92Q404.75-133.29 404.75-127.26L404.75-127.26L401.97-122.17Q404.75-117.07 404.75-114.29L404.75-114.29L399.66-111.97L396.88-117.07L396.88-132.36L389.00-176.84ZM-15.53-140.24L-15.53-140.24L-5.34-140.24Q-5.34-153.68 10.42-168.97L10.42-168.97L7.64-168.97Q2.54-168.97-15.53-140.24ZM121.63-168.97L121.63-168.97L124.41-163.87L111.44-153.21Q106.34-153.21 106.34-158.31L106.34-158.31Q108.66-158.31 121.63-168.97ZM36.37-153.21L36.37-153.21L38.69-148.11Q35.91-148.11 20.61-117.07L20.61-117.07L15.52-117.07L15.52-119.39Q30.34-149.04 36.37-153.21ZM59.54-145.33L59.54-153.21L64.63-153.21L64.63-145.33L59.54-145.33ZM72.51-137.92L72.51-148.11L77.61-148.11L77.61-137.92L72.51-137.92ZM189.28-148.11L189.28-148.11L192.06-148.11L192.06-137.92Q204.57-137.92 230.99-93.44L230.99-93.44Q230.99-74.44 236.08-67.49L236.08-67.49Q233.30-63.32 233.30-57.29L233.30-57.29L243.96-57.29L249.06-60.07L251.38-54.51L246.28-52.20L246.28-54.51L241.18-52.20L236.08-54.51L233.30-36.44L241.18-41.54L243.96-36.44Q235.16-31.34 230.99-31.34L230.99-31.34L230.99-26.25Q238.40-26.25 238.40-21.15L238.40-21.15Q234.69-18.37 223.11-18.37L223.11-18.37L223.11-15.59Q238.40-15.59 238.40-8.17L238.40-8.17L238.40-5.39L233.30-5.39L233.30-10.49Q228.67-8.17 223.11-8.17L223.11-8.17L223.11-5.39L233.30-5.39Q233.30 2.48 223.11 2.48L223.11 2.48L228.21 10.36Q223.11 10.82 223.11 15.46L223.11 15.46L218.01 12.68L215.23 12.68L215.23 15.46L220.33 15.46Q220.33 20.55 205.04 23.34L205.04 23.34L205.04 28.43Q212.45 28.43 212.45 33.53L212.45 33.53Q207.82 36.31 205.04 36.31L205.04 36.31L197.16 36.31Q199.48 40.94 199.48 43.72L199.48 43.72L184.19 56.70L181.41 56.70L176.31 54.38L176.31 59.48L186.50 59.48L186.50 62.26Q186.50 67.36 179.09 67.36L179.09 67.36Q174.46 67.36 163.33 62.26L163.33 62.26L163.33 77.55L158.24 77.55L158.24 75.23L160.55 69.67Q127.19 59.02 108.66 23.34L108.66 23.34Q104.49-5.39 98.46-5.39L98.46-5.39Q98.46-8.17 101.24-8.17L101.24-8.17L98.46-21.15L98.46-28.56Q98.46-31.34 101.24-31.34L101.24-31.34L98.46-36.44L98.46-39.22Q98.46-45.24 106.34-62.39L106.34-62.39Q101.24-62.39 101.24-67.49L101.24-67.49L106.34-67.49L101.24-78.14Q106.34-78.14 111.44-93.44L111.44-93.44L106.34-93.44L106.34-99.00Q113.75-99.00 134.60-127.26L134.60-127.26Q132.29-127.26 132.29-130.04L132.29-130.04L134.60-130.04L140.17-127.26L142.48-132.36Q140.17-132.36 140.17-135.14L140.17-135.14L145.26-137.92L147.58-137.92L147.58-132.36L166.11-145.33L184.19-143.02Q185.11-148.11 189.28-148.11ZM51.66-143.02L51.66-143.02L59.54-143.02L59.54-140.24Q59.54-136.07 49.34-130.04L49.34-130.04L49.34-135.14Q51.66-140.24 51.66-143.02ZM168.43-135.14L163.33-135.14L160.55-130.04L160.55-127.26L163.33-127.26Q163.33-132.36 168.43-132.36L168.43-132.36L168.43-135.14ZM41.47-130.04L41.47-130.04L46.56-130.04L46.56-127.26Q46.56-123.56 38.69-119.39L38.69-119.39L38.69-122.17Q41.47-127.26 41.47-130.04ZM181.41-127.26L173.53-127.26L173.53-124.95L186.50-122.17Q186.50-127.26 181.41-127.26L181.41-127.26ZM166.11-88.34L166.11-88.34L168.43-83.24L155.46-65.17Q163.33-65.17 163.33-60.07L163.33-60.07Q150.36-60.07 150.36-39.22L150.36-39.22L155.46-41.54Q155.46-39.22 158.24-39.22L158.24-39.22Q155.46-31.34 153.14-31.34L153.14-31.34L155.46-26.25L155.46-23.47L153.14-18.37Q159.63-17.44 171.21-0.30L171.21-0.30L168.43-0.30Q173.53 10.36 173.53 17.77L173.53 17.77L171.21 17.77Q164.72 10.36 160.55 10.36L160.55 10.36L160.55 4.80L166.11 4.80Q163.33 0.17 163.33-2.61L163.33-2.61L147.58-2.61L147.58-0.30Q167.04 23.34 168.43 23.34L168.43 23.34Q168.43 28.43 171.21 28.43L171.21 28.43Q176.31 25.65 179.09 25.65L179.09 25.65Q181.41 34.46 189.28 36.31L189.28 36.31L197.16 20.55Q192.06 20.55 192.06 15.46L192.06 15.46L197.16 12.68Q197.16 15.46 199.48 15.46L199.48 15.46Q199.48 7.58 212.45 7.58L212.45 7.58Q212.45 2.48 202.26 2.48L202.26 2.48L202.26-0.30L215.23-15.59L218.01-15.59L215.23-28.56Q218.01-28.56 218.01-31.34L218.01-31.34Q215.23-31.34 215.23-34.12L215.23-34.12Q219.87-36.44 225.43-36.44L225.43-36.44L220.33-44.32Q223.11-49.42 223.11-52.20L223.11-52.20Q215.23-54.51 215.23-67.49L215.23-67.49Q215.70-80.46 220.33-80.46L220.33-80.46Q215.23-89.27 215.23-93.44L215.23-93.44Q218.01-98.53 218.01-101.31L218.01-101.31Q213.84-101.31 207.36-111.97L207.36-111.97L202.26-109.19L197.16-109.19L199.48-122.17L197.16-122.17Q187.43-121.24 166.11-88.34ZM381.12-122.17L373.71-122.17L373.71-117.07Q378.34-119.39 381.12-119.39L381.12-119.39L381.12-122.17ZM168.43-114.29L168.43-114.29L171.21-114.29Q176.31-114.29 176.31-119.39L176.31-119.39L173.53-119.39Q168.43-118.92 168.43-114.29ZM31.27-114.29L36.37-117.07L38.69-111.97Q31.73-91.12 25.71-91.12L25.71-91.12L25.71-93.44Q25.71-100.39 33.59-111.97L33.59-111.97Q31.27-111.97 31.27-114.29L31.27-114.29ZM12.74-111.97L12.74-111.97Q12.74-109.19 15.52-109.19L15.52-109.19Q11.81-99.00 7.64-99.00L7.64-99.00L5.32-99.00L5.32-104.09Q5.32-107.80 12.74-111.97ZM396.88-106.41L401.97-109.19L404.75-104.09L401.97-104.09L404.75-99.00L404.75-96.22Q404.75-91.12 399.66-91.12L399.66-91.12Q399.66-92.97 396.88-106.41L396.88-106.41ZM-62.33-101.31L-57.23-104.09L-54.45-104.09L-54.45-101.31Q-54.45-96.22-59.55-96.22L-59.55-96.22L-62.33-101.31ZM207.36-99.00L212.45-101.31L212.45-93.44Q207.36-93.44 207.36-99.00L207.36-99.00ZM2.54-96.22L2.54-96.22L5.32-96.22L5.32-93.44Q2.54-88.80 2.54-86.02L2.54-86.02L-5.34-86.02L-5.34-88.34Q-5.34-92.05 2.54-96.22ZM38.69-88.34L44.25-91.12L46.56-91.12L46.56-88.34Q46.56-83.24 41.47-83.24L41.47-83.24L38.69-88.34ZM267.13-88.34L272.23-91.12L275.01-86.02L269.91-83.24L267.13-88.34ZM396.88-75.36L396.88-86.02L401.97-86.02Q401.97-73.05 407.07-65.17L407.07-65.17Q401.97-65.17 401.97-57.29L401.97-57.29Q404.75-52.20 404.75-49.42L404.75-49.42L399.66-47.10L396.88-52.20L396.88-54.51Q396.88-60.54 399.66-65.17L399.66-65.17Q396.88-69.80 396.88-75.36L396.88-75.36ZM-7.65-80.46L-7.65-80.46Q-2.56-80.00-2.56-75.36L-2.56-75.36L-7.65-73.05L-13.21-73.05L-13.21-75.36Q-12.29-80.46-7.65-80.46ZM12.74-80.46L12.74-80.46L15.52-80.46L15.52-78.14Q15.52-73.05 10.42-73.05L10.42-73.05L7.64-73.05L7.64-75.36Q8.57-80.46 12.74-80.46ZM262.03-75.36L267.13-78.14Q272.23-77.22 272.23-73.05L272.23-73.05L267.13-70.27Q262.03-70.27 262.03-75.36L262.03-75.36ZM-23.41-65.17L-18.31-67.49L-15.53-67.49Q-11.82-67.49-7.65-60.07L-7.65-60.07L-13.21-57.29Q-23.41-61.00-23.41-65.17L-23.41-65.17ZM5.32-65.17L5.32-65.17L10.42-65.17L10.42-60.07Q3.01-60.07-7.65-44.32L-7.65-44.32L-7.65-49.42Q1.15-65.17 5.32-65.17ZM396.88-41.54L396.88-44.32L399.66-44.32Q404.75-43.39 404.75-39.22L404.75-39.22L399.66-36.44L396.88-41.54ZM378.81-39.22L378.81-39.22L378.81-36.44Q379.27-31.34 383.90-31.34L383.90-31.34L383.90-34.12Q383.90-39.22 378.81-39.22ZM391.78-26.25L399.66-31.34L404.75-31.34L404.75-26.25Q400.58-26.25 394.10-21.15L394.10-21.15L391.78-26.25ZM407.07-18.37L407.07-18.37L407.07-13.27Q407.07-9.56 399.66-5.39L399.66-5.39L401.97-0.30L401.97 4.80L396.88 4.80Q391.78 4.80 391.78-0.30L391.78-0.30L396.88-8.17Q391.78-8.17 391.78-13.27L391.78-13.27Q400.12-18.37 407.07-18.37ZM319.03-15.59L319.03-15.59L321.81-15.59L321.81-13.27Q321.81-8.17 316.25-8.17L316.25-8.17L313.93-8.17L313.93-10.49Q314.86-15.59 319.03-15.59ZM-13.21-2.61L-15.53-8.17L-10.43-8.17L-10.43 2.48Q-10.43 6.19-18.31 10.36L-18.31 10.36L-23.41 10.36L-13.21-2.61ZM249.06-5.39L254.16-8.17L259.25-8.17L259.25-2.61Q256.47-2.61 251.38-0.30L251.38-0.30L249.06-5.39ZM215.23-2.61L215.23-2.61L215.23-0.30Q216.16 4.80 220.33 4.80L220.33 4.80L220.33 2.48Q220.33-2.61 215.23-2.61ZM383.90 2.48L373.71 2.48L373.71 7.58Q379.27 7.58 383.90 10.36L383.90 10.36L383.90 2.48ZM251.38 4.80L251.38 4.80L254.16 4.80Q254.16 8.51 246.28 12.68L246.28 12.68L243.96 12.68Q243.96 8.97 251.38 4.80ZM129.51 23.34L129.51 23.34L129.51 25.65L134.60 25.65Q134.60 21.48 140.17 15.46L140.17 15.46L137.39 15.46Q133.68 15.46 129.51 23.34ZM378.81 20.55L370.93 20.55L370.93 25.65Q373.71 25.65 378.81 28.43L378.81 28.43L378.81 20.55ZM360.73 28.43L347.76 25.65L347.76 30.75L360.73 30.75L360.73 28.43ZM282.89 30.75L287.98 28.43L290.30 33.53L285.20 36.31L282.89 30.75ZM176.31 33.53L171.21 33.53L171.21 41.41L181.41 41.41L181.41 38.63Q181.41 33.53 176.31 33.53L176.31 33.53ZM212.45 41.41L212.45 36.31L220.33 36.31L220.33 41.41L212.45 41.41ZM298.18 43.72L303.27 41.41L306.05 46.50L300.96 49.28L298.18 43.72ZM199.48 49.28L215.23 46.50L215.23 49.28Q215.23 54.84 202.26 56.70L202.26 56.70L199.48 51.60L199.48 49.28ZM293.08 51.60L293.08 51.60L295.86 51.60L295.86 56.70Q295.86 62.26 290.30 62.26L290.30 62.26L287.98 56.70Q288.91 51.60 293.08 51.60ZM282.89 62.26L285.20 62.26L285.20 64.58L282.89 69.67Q285.20 69.67 285.20 72.45L285.20 72.45L272.23 85.43L269.91 80.33Q275.47 80.33 282.89 62.26L282.89 62.26ZM249.06 69.67L254.16 67.36L256.94 67.36L256.94 69.67Q256.94 75.23 251.38 75.23L251.38 75.23L249.06 69.67ZM-20.63 82.65L-20.63 75.23Q-15.53 75.70-15.53 80.33L-15.53 80.33L-20.63 82.65ZM147.58 82.65L147.58 82.65L150.36 82.65L150.36 85.43Q146.65 95.62 142.48 95.62L142.48 95.62L140.17 90.53Q140.17 86.82 147.58 82.65ZM262.03 88.21L262.03 82.65L269.91 82.65Q269.91 88.21 264.35 88.21L264.35 88.21L262.03 88.21ZM179.09 93.31L179.09 88.21L186.50 88.21Q186.50 93.31 181.41 93.31L181.41 93.31L179.09 93.31ZM339.88 95.62L339.88 95.62L339.88 101.18L342.20 101.18Q348.69 95.62 352.86 95.62L352.86 95.62L352.86 90.53L350.08 90.53Q344.05 95.62 339.88 95.62ZM267.13 90.53L267.13 90.53L269.91 90.53L269.91 93.31Q264.35 103.50 254.16 103.50L254.16 103.50L254.16 98.40Q258.79 98.40 267.13 90.53ZM280.11 93.31L285.20 90.53L287.98 95.62L282.89 98.40L280.11 93.31ZM282.89 101.18L282.89 101.18L285.20 101.18L285.20 103.50Q281.50 114.16 277.33 114.16L277.33 114.16L269.91 114.16L269.91 108.60Q274.08 108.60 282.89 101.18ZM269.91 119.25L269.91 119.25L272.23 119.25L272.23 121.57Q267.13 128.06 267.13 132.23L267.13 132.23L262.03 132.23L256.94 129.45L256.94 134.55L251.38 134.55L251.38 129.45Q252.30 124.35 256.94 124.35L256.94 124.35L264.35 124.35Q265.28 119.25 269.91 119.25ZM155.46 129.45L155.46 127.13L158.24 127.13Q163.33 127.60 163.33 132.23L163.33 132.23L158.24 134.55L155.46 129.45ZM223.11 139.64L233.30 132.23L236.08 132.23L236.08 137.33Q231.91 137.33 225.43 145.20L225.43 145.20L223.11 139.64ZM246.28 142.42L246.28 139.64Q251.38 140.57 251.38 145.20L251.38 145.20L233.30 176.25L228.21 176.25Q228.21 167.45 246.28 142.42L246.28 142.42ZM225.43 147.52L225.43 147.52L228.21 152.62Q228.21 158.18 223.11 158.18L223.11 158.18L218.01 158.18L218.01 155.40Q218.01 151.69 225.43 147.52ZM96.14 160.50L96.14 160.50L98.46 165.59L93.36 168.37L90.58 168.37L90.58 165.59Q91.51 160.50 96.14 160.50ZM215.23 160.50L215.23 160.50L215.23 168.37Q215.23 173.47 210.14 173.47L210.14 173.47L207.36 168.37Q207.36 164.67 215.23 160.50ZM-5.34 184.13L-5.34 184.13L-5.34 189.22Q-5.34 192.93 2.54 197.10L2.54 197.10L5.32 197.10Q-1.63 184.13-5.34 184.13ZM83.17 181.35L83.17 181.35L85.49 186.44L80.39 189.22L77.61 189.22L77.61 186.44Q78.54 181.35 83.17 181.35ZM186.50 191.54L192.06 189.22L194.38 194.32L189.28 197.10L186.50 191.54ZM251.38 199.42L246.28 199.42Q246.28 204.52 241.18 204.52L241.18 204.52L241.18 210.08Q247.67 204.52 251.38 204.52L251.38 204.52L251.38 199.42ZM243.96 241.12L243.96 241.12L246.28 241.12Q255.08 233.25 259.25 233.25L259.25 233.25L259.25 228.15L256.94 228.15Q253.23 228.15 243.96 241.12ZM225.43 249.00L225.43 249.00L225.43 254.10L238.40 251.32Q238.40 246.22 233.30 246.22L233.30 246.22Q228.21 249.00 225.43 249.00ZM67.41 254.10L67.41 254.10L64.63 259.20L77.61 261.98Q77.61 257.80 67.41 254.10ZM171.21 254.10L171.21 254.10L166.11 261.98L181.41 259.20L181.41 256.41Q172.60 254.10 171.21 254.10ZM54.44 256.41L49.34 256.41L49.34 259.20Q49.81 264.29 54.44 264.29L54.44 264.29L54.44 256.41ZM134.60 259.20L134.60 259.20L134.60 264.29L160.55 264.29L160.55 256.41L155.46 259.20L153.14 259.20Q147.12 259.20 142.48 256.41L142.48 256.41Q137.39 259.20 134.60 259.20ZM210.14 256.41L207.36 256.41Q207.36 259.20 205.04 264.29L205.04 264.29L210.14 264.29L210.14 256.41ZM93.36 264.29L83.17 261.98Q83.17 267.07 90.58 267.07L90.58 267.07L93.36 267.07L93.36 264.29ZM181.41 282.36L181.41 282.36L179.09 287.92L179.09 290.24Q184.19 287.92 186.50 287.92L186.50 287.92Q186.50 282.36 181.41 282.36ZM90.58 293.02L90.58 290.24L93.36 290.24Q98.46 291.17 98.46 295.34L98.46 295.34L93.36 298.12L90.58 293.02ZM119.31 293.02L119.31 290.24L121.63 290.24Q127.19 291.17 127.19 295.34L127.19 295.34L121.63 298.12L119.31 293.02Z"/></g>
</svg>