<?xml version="1.0" encoding="UTF-8"?>
<!DOCTYPE svg PUBLIC "-//W3C//DTD SVG 1.1//EN" "http://www.w3.org/Graphics/SVG/1.1/DTD/svg11.dtd">
<svg xmlns="http://www.w3.org/2000/svg" version="1.1" width="512px" height="512px" style="shape-rendering:geometricPrecision; text-rendering:geometricPrecision; image-rendering:optimizeQuality; fill-rule:evenodd; clip-rule:evenodd" xmlns:xlink="http://www.w3.org/1999/xlink">
<g><path style="opacity:0.998" fill="#98db7b" d="M 199.5,-0.5 C 203.5,-0.5 207.5,-0.5 211.5,-0.5C 268.923,32.4038 326.257,65.5704 383.5,99C 384.883,100.271 385.883,101.771 386.5,103.5C 326.302,138.431 265.969,173.098 205.5,207.5C 145.136,172.99 85.1365,137.99 25.5,102.5C 27.3355,99.8324 29.6688,97.6657 32.5,96C 88.2295,63.8065 143.896,31.6398 199.5,-0.5 Z"/></g>
<g><path style="opacity:0.999" fill="#77cc7c" d="M 386.5,103.5 C 386.987,104.473 387.487,105.473 388,106.5C 388.5,153.832 388.667,201.165 388.5,248.5C 327.292,240.199 279.125,261.199 244,311.5C 225.599,341.333 218.766,373.667 223.5,408.5C 218.231,412.801 212.231,415.468 205.5,416.5C 205.5,346.833 205.5,277.167 205.5,207.5C 265.969,173.098 326.302,138.431 386.5,103.5 Z"/></g>
<g><path style="opacity:0.995" fill="#b7ea7b" d="M 25.5,102.5 C 85.1365,137.99 145.136,172.99 205.5,207.5C 205.5,277.167 205.5,346.833 205.5,416.5C 201.56,416.242 197.893,415.076 194.5,413C 137.923,380.797 81.7562,347.964 26,314.5C 24.7246,312.283 23.7246,309.949 23,307.5C 22.3333,241.167 22.3333,174.833 23,108.5C 23.2401,106.148 24.0735,104.148 25.5,102.5 Z"/></g>
<g><path style="opacity:0.997" fill="#52bc7d" d="M 388.5,248.5 C 388.5,253.833 388.5,259.167 388.5,264.5C 336.526,256.762 294.359,273.428 262,314.5C 243.869,340.355 236.369,369.021 239.5,400.5C 234.167,403.167 228.833,405.833 223.5,408.5C 218.766,373.667 225.599,341.333 244,311.5C 279.125,261.199 327.292,240.199 388.5,248.5 Z"/></g>
<g><path style="opacity:0.999" fill="#615260" d="M 388.5,264.5 C 413.18,269.335 434.18,280.668 451.5,298.5C 446.825,303.603 445.325,309.603 447,316.5C 450.968,323.146 454.968,329.813 459,336.5C 478.705,378.594 474.705,418.26 447,455.5C 413.342,492.791 372.509,503.625 324.5,488C 315.18,484.011 306.513,479.011 298.5,473C 289.987,467.625 282.32,468.458 275.5,475.5C 254.691,454.879 242.691,429.879 239.5,400.5C 236.369,369.021 243.869,340.355 262,314.5C 294.359,273.428 336.526,256.762 388.5,264.5 Z"/></g>
<g><path style="opacity:0.976" fill="#4e3d4d" d="M 451.5,298.5 C 483.394,331.71 494.561,371.043 485,416.5C 469.274,469.919 434.108,501.586 379.5,511.5C 368.833,511.5 358.167,511.5 347.5,511.5C 319.454,507.477 295.454,495.477 275.5,475.5C 282.32,468.458 289.987,467.625 298.5,473C 306.513,479.011 315.18,484.011 324.5,488C 372.509,503.625 413.342,492.791 447,455.5C 474.705,418.26 478.705,378.594 459,336.5C 454.968,329.813 450.968,323.146 447,316.5C 445.325,309.603 446.825,303.603 451.5,298.5 Z"/></g>
<g><path style="opacity:1" fill="#b5e67b" d="M 376.5,320.5 C 384.498,320 388.331,323.667 388,331.5C 376.919,370.903 365.586,410.237 354,449.5C 348.042,455.339 343.042,454.672 339,447.5C 338.333,445.5 338.333,443.5 339,441.5C 349.87,402.353 361.203,363.353 373,324.5C 374.376,323.295 375.542,321.962 376.5,320.5 Z"/></g>
<g><path style="opacity:1" fill="#faf9fa" d="M 318.5,345.5 C 326.498,345 330.331,348.667 330,356.5C 320.53,366.971 310.697,377.137 300.5,387C 310,396.5 319.5,406 329,415.5C 331.705,422.752 329.205,427.085 321.5,428.5C 319.209,428.378 317.209,427.545 315.5,426C 304.667,415.167 293.833,404.333 283,393.5C 279.667,389.167 279.667,384.833 283,380.5C 294.728,368.604 306.562,356.937 318.5,345.5 Z"/></g>
<g><path style="opacity:1" fill="#fdfdfd" d="M 401.5,345.5 C 404.32,345.248 406.986,345.748 409.5,347C 421.667,359.167 433.833,371.333 446,383.5C 446.755,386.303 446.422,388.97 445,391.5C 433.167,403.333 421.333,415.167 409.5,427C 402.411,429.927 398.077,427.593 396.5,420C 396.625,418.373 397.125,416.873 398,415.5C 407.5,406 417,396.5 426.5,387C 417,377.5 407.5,368 398,358.5C 395.343,353.084 396.51,348.75 401.5,345.5 Z"/></g>
</svg>
