<?xml version="1.0" encoding="UTF-8"?>
<!DOCTYPE svg PUBLIC "-//W3C//DTD SVG 1.1//EN" "http://www.w3.org/Graphics/SVG/1.1/DTD/svg11.dtd">
<svg xmlns="http://www.w3.org/2000/svg" version="1.1" width="512px" height="512px" style="shape-rendering:geometricPrecision; text-rendering:geometricPrecision; image-rendering:optimizeQuality; fill-rule:evenodd; clip-rule:evenodd" xmlns:xlink="http://www.w3.org/1999/xlink">
<g><path style="opacity:0.999" fill="#e0eaef" d="M 55.5,-0.5 C 114.167,-0.5 172.833,-0.5 231.5,-0.5C 233.5,0.5 235.5,1.5 237.5,2.5C 236.336,38.6644 236.169,74.9977 237,111.5C 239.372,124.206 246.872,132.039 259.5,135C 296.669,135.831 333.669,135.664 370.5,134.5C 371.927,136.148 372.76,138.148 373,140.5C 373.5,168.831 373.667,197.165 373.5,225.5C 370.543,230.256 368.543,235.422 367.5,241C 367.724,245.518 369.39,249.352 372.5,252.5C 350.833,273.5 329.5,294.833 308.5,316.5C 303.5,321.167 298.5,325.833 293.5,330.5C 287.838,326.093 281.838,325.426 275.5,328.5C 262.374,334.363 258.541,344.03 264,357.5C 291.528,385.362 319.361,412.862 347.5,440C 358.49,442.341 367.157,438.841 373.5,429.5C 373.666,439.839 373.5,450.172 373,460.5C 369.351,476.815 359.517,487.315 343.5,492C 331.553,493.391 319.553,493.891 307.5,493.5C 303.972,483.642 296.972,478.309 286.5,477.5C 286.821,471.974 286.488,466.64 285.5,461.5C 284.183,452.016 278.85,446.182 269.5,444C 241.835,443.5 214.169,443.333 186.5,443.5C 158.674,438.334 146.34,449.667 149.5,477.5C 139.109,477.854 132.109,482.854 128.5,492.5C 104.833,492.5 81.1667,492.5 57.5,492.5C 38.1542,488.991 25.9875,477.658 21,458.5C 20.3333,316.5 20.3333,174.5 21,32.5C 25.7703,14.3808 37.2703,3.38084 55.5,-0.5 Z"/></g>
<g><path style="opacity:1" fill="#d2e4e7" d="M 31.5,-0.5 C 39.5,-0.5 47.5,-0.5 55.5,-0.5C 37.2703,3.38084 25.7703,14.3808 21,32.5C 20.3333,174.5 20.3333,316.5 21,458.5C 25.9875,477.658 38.1542,488.991 57.5,492.5C 37.4509,495.873 20.6176,490.206 7,475.5C 3.64258,470.458 1.14258,465.124 -0.5,459.5C -0.5,316.833 -0.5,174.167 -0.5,31.5C 4.4913,15.1754 15.158,4.5087 31.5,-0.5 Z"/></g>
<g><path style="opacity:1" fill="#d2e4e7" d="M 237.5,2.5 C 240.861,3.68395 243.861,5.51729 246.5,8C 286.028,47.8612 325.861,87.3612 366,126.5C 368.157,128.817 369.657,131.484 370.5,134.5C 333.669,135.664 296.669,135.831 259.5,135C 246.872,132.039 239.372,124.206 237,111.5C 236.169,74.9977 236.336,38.6644 237.5,2.5 Z"/></g>
<g><path style="opacity:1" fill="#b4d2d7" d="M 66.5,128.5 C 108.168,128.333 149.835,128.5 191.5,129C 194.683,130.018 196.016,132.185 195.5,135.5C 195.849,138.971 194.516,141.471 191.5,143C 149.833,143.667 108.167,143.667 66.5,143C 61.2353,138.076 61.2353,133.242 66.5,128.5 Z"/></g>
<g><path style="opacity:1" fill="#b5d2d7" d="M 65.5,189.5 C 144.501,189.333 223.501,189.5 302.5,190C 308.45,192.477 309.95,196.643 307,202.5C 306.097,203.701 304.931,204.535 303.5,205C 223.833,205.667 144.167,205.667 64.5,205C 58.9385,199.353 59.2719,194.186 65.5,189.5 Z"/></g>
<g><path style="opacity:0.983" fill="#c7865b" d="M 481.5,317.5 C 477.158,318.854 472.824,318.688 468.5,317C 441,289.5 413.5,262 386,234.5C 383.792,230.116 382.959,225.449 383.5,220.5C 389.482,218.642 395.149,219.475 400.5,223C 426.638,250.139 453.138,276.972 480,303.5C 482.557,308.079 483.057,312.745 481.5,317.5 Z"/></g>
<g><path style="opacity:1" fill="#bf7d51" d="M 383.5,220.5 C 382.959,225.449 383.792,230.116 386,234.5C 413.5,262 441,289.5 468.5,317C 472.824,318.688 477.158,318.854 481.5,317.5C 477.561,330.309 468.894,335.809 455.5,334C 453.113,333.436 451.113,332.27 449.5,330.5C 424.529,303.862 398.863,277.862 372.5,252.5C 369.39,249.352 367.724,245.518 367.5,241C 368.543,235.422 370.543,230.256 373.5,225.5C 376.387,222.948 379.72,221.282 383.5,220.5 Z"/></g>
<g><path style="opacity:1" fill="#b5d2d7" d="M 65.5,251.5 C 127.168,251.333 188.834,251.5 250.5,252C 256.448,254.433 257.948,258.6 255,264.5C 254.097,265.701 252.931,266.535 251.5,267C 189.5,267.667 127.5,267.667 65.5,267C 60.7762,264.565 59.2762,260.731 61,255.5C 62.3968,253.93 63.8968,252.596 65.5,251.5 Z"/></g>
<g><path style="opacity:0.998" fill="#f4dd46" d="M 372.5,252.5 C 398.863,277.862 424.529,303.862 449.5,330.5C 441.5,338.833 433.5,347.167 425.5,355.5C 415.587,363.909 406.087,372.909 397,382.5C 396.536,383.094 396.369,383.761 396.5,384.5C 393.167,387.5 389.833,390.5 386.5,393.5C 361.117,367.116 335.117,341.45 308.5,316.5C 329.5,294.833 350.833,273.5 372.5,252.5 Z"/></g>
<g><path style="opacity:1" fill="#b5d2d7" d="M 66.5,313.5 C 111.501,313.333 156.501,313.5 201.5,314C 208.311,319.33 207.977,324.33 200.5,329C 156.167,329.667 111.833,329.667 67.5,329C 62.9315,326.459 61.4315,322.625 63,317.5C 64.3756,316.295 65.5423,314.962 66.5,313.5 Z"/></g>
<g><path style="opacity:1" fill="#f2d232" d="M 308.5,316.5 C 335.117,341.45 361.117,367.116 386.5,393.5C 381.833,398.5 377.167,403.5 372.5,408.5C 345.55,383.217 319.217,357.217 293.5,330.5C 298.5,325.833 303.5,321.167 308.5,316.5 Z"/></g>
<g><path style="opacity:0.998" fill="#c7865a" d="M 293.5,330.5 C 319.217,357.217 345.55,383.217 372.5,408.5C 376.022,413.39 377.022,418.723 375.5,424.5C 369.685,426.441 364.352,425.608 359.5,422C 333,395.5 306.5,369 280,342.5C 277.805,337.983 276.305,333.316 275.5,328.5C 281.838,325.426 287.838,326.093 293.5,330.5 Z"/></g>
<g><path style="opacity:1" fill="#bf7d51" d="M 275.5,328.5 C 276.305,333.316 277.805,337.983 280,342.5C 306.5,369 333,395.5 359.5,422C 364.352,425.608 369.685,426.441 375.5,424.5C 375.107,426.284 374.441,427.95 373.5,429.5C 367.157,438.841 358.49,442.341 347.5,440C 319.361,412.862 291.528,385.362 264,357.5C 258.541,344.03 262.374,334.363 275.5,328.5 Z"/></g>
<g><path style="opacity:1" fill="#bf7d51" d="M 425.5,355.5 C 430.167,359.5 434.833,363.5 439.5,367.5C 439.631,368.239 439.464,368.906 439,369.5C 428.937,379.395 419.104,389.395 409.5,399.5C 405.403,394.313 401.07,389.313 396.5,384.5C 396.369,383.761 396.536,383.094 397,382.5C 406.087,372.909 415.587,363.909 425.5,355.5 Z"/></g>
<g><path style="opacity:0.988" fill="#c7865b" d="M 439.5,367.5 C 460.005,383.834 480.671,400 501.5,416C 505.897,420.208 509.231,425.042 511.5,430.5C 511.5,435.167 511.5,439.833 511.5,444.5C 505.631,459.697 494.631,468.697 478.5,471.5C 468.657,470.829 460.824,466.495 455,458.5C 439.825,438.803 424.658,419.137 409.5,399.5C 419.104,389.395 428.937,379.395 439,369.5C 439.464,368.906 439.631,368.239 439.5,367.5 Z"/></g>
<g><path style="opacity:1" fill="#b4d2d7" d="M 64.5,375.5 C 116.501,375.333 168.501,375.5 220.5,376C 225.689,378.913 226.856,383.08 224,388.5C 223.25,389.126 222.416,389.626 221.5,390C 169.167,390.667 116.833,390.667 64.5,390C 60.7885,387.487 59.6218,383.987 61,379.5C 62.3756,378.295 63.5423,376.962 64.5,375.5 Z"/></g>
<g><path style="opacity:1" fill="#bf7d51" d="M 186.5,443.5 C 177.231,445.919 172.231,451.752 171.5,461C 209.499,461.5 247.499,461.667 285.5,461.5C 285.5,466.833 285.5,472.167 285.5,477.5C 244.832,477.333 204.165,477.5 163.5,478C 156.572,480.594 152.072,485.427 150,492.5C 149.333,498.167 149.333,503.833 150,509.5C 150.995,510.066 151.828,510.733 152.5,511.5C 145.167,511.5 137.833,511.5 130.5,511.5C 130.217,510.711 129.717,510.044 129,509.5C 128.501,503.843 128.334,498.176 128.5,492.5C 132.109,482.854 139.109,477.854 149.5,477.5C 146.34,449.667 158.674,438.334 186.5,443.5 Z"/></g>
<g><path style="opacity:1" fill="#c7865b" d="M 186.5,443.5 C 214.169,443.333 241.835,443.5 269.5,444C 278.85,446.182 284.183,452.016 285.5,461.5C 247.499,461.667 209.499,461.5 171.5,461C 172.231,451.752 177.231,445.919 186.5,443.5 Z"/></g>
<g><path style="opacity:0.996" fill="#c7865b" d="M 285.5,461.5 C 286.488,466.64 286.821,471.974 286.5,477.5C 296.972,478.309 303.972,483.642 307.5,493.5C 308.023,499.718 307.356,505.718 305.5,511.5C 254.5,511.5 203.5,511.5 152.5,511.5C 151.828,510.733 150.995,510.066 150,509.5C 149.333,503.833 149.333,498.167 150,492.5C 152.072,485.427 156.572,480.594 163.5,478C 204.165,477.5 244.832,477.333 285.5,477.5C 285.5,472.167 285.5,466.833 285.5,461.5 Z"/></g>
</svg>
