<svg xmlns="http://www.w3.org/2000/svg" xmlns:xlink="http://www.w3.org/1999/xlink" version="1.1" width="1080" height="1080" viewBox="0 0 1080 1080" xml:space="preserve">
<desc>Created with Fabric.js 3.5.0</desc>
<defs>
</defs>
<rect x="0" y="0" width="100%" height="100%" fill="#ffffff"/>
<g transform="matrix(6.701 0 0 6.701 540.1265 540.1273)" id="65340">
<path style="stroke: rgb(178,22,84); stroke-width: 55; stroke-dasharray: none; stroke-linecap: butt; stroke-dashoffset: 0; stroke-linejoin: miter; stroke-miterlimit: 4; is-custom-font: none; font-file-url: none; fill: none; fill-rule: nonzero; opacity: 1;" vector-effect="non-scaling-stroke" transform=" translate(-79, -78.9999)" d="M 154.685 2.50049 H 154.711 L 154.738 2.49994 C 155.15 2.49126 155.491 2.81853 155.5 3.2304 L 155.5 3.23069 C 155.5 3.24095 155.5 3.25176 155.5 3.26283 L 155.499 3.28886 V 3.3149 V 154.686 C 155.499 155.135 155.135 155.5 154.685 155.5 H 3.31409 C 2.86449 155.5 2.5 155.135 2.5 154.686 V 3.3149 C 2.5 2.86483 2.86465 2.50049 3.31409 2.50049 H 154.685 Z" stroke-linecap="round"/>
</g>
<g transform="matrix(1 0 0 1 540 532.058)" style="" id="216781">
		
<path xml:space="preserve" font-family="Bungee Shade" font-size="402" style="stroke: none; stroke-width: 0; stroke-dasharray: none; stroke-linecap: butt; stroke-dashoffset: 0; stroke-linejoin: miter; stroke-miterlimit: 4; is-custom-font: none; font-file-url: none; fill: rgb(0,54,147); fill-rule: nonzero; opacity: 1; white-space: pre;" d="M-227.73 174.12L-227.73 174.12L-354.36 174.12Q-407.02 174.12-432.15 146.79Q-457.27 119.45-457.27 76.03L-457.27 76.03L-457.27-37.33Q-457.27-59.44-450.84-75.52Q-444.41-91.60-431.95-102.45L-431.95-102.45L-380.09-146.27Q-367.63-156.72-348.13-161.95Q-328.63-167.18-302.50-167.18L-302.50-167.18L-202.00-167.18Q-192.36-167.18-187.93-162.75Q-183.51-158.33-183.51-148.68L-183.51-148.68L-183.51-100.04Q-183.51-94.82-184.92-91.20Q-186.33-87.58-189.14-85.17L-189.14-85.17L-241.40-41.75Q-243.01-40.14-246.43-38.94Q-249.84-37.73-253.86-37.73L-253.86-37.73L-306.12-37.73L-306.12 20.16Q-305.72 19.35-304.72 18.35Q-303.71 17.34-302.91 16.54L-302.91 16.54L-251.05-27.28Q-249.04-28.89-245.62-29.89Q-242.20-30.90-238.18-30.90L-238.18-30.90L-175.87-30.90Q-166.23-30.90-161.80-26.48Q-157.38-22.05-157.38-12.41L-157.38-12.41L-157.38 111.81Q-157.38 117.04-158.79 120.66Q-160.20 124.27-163.01 126.69L-163.01 126.69L-215.27 170.10Q-216.88 171.71-220.30 172.92Q-223.71 174.12-227.73 174.12ZM-302.50 126.28L-175.87 126.28Q-168.24 126.28-164.82 122.87Q-161.40 119.45-161.40 111.81L-161.40 111.81L-161.40-12.41Q-161.40-20.04-164.82-23.46Q-168.24-26.88-175.87-26.88L-175.87-26.88L-238.18-26.88Q-245.82-26.88-249.24-23.46Q-252.66-20.04-252.66-12.41L-252.66-12.41L-252.66 50.31L-291.65 50.31Q-300.90 50.31-305.52 45.48Q-310.14 40.66-310.14 30.61L-310.14 30.61L-310.14-65.47Q-310.14-75.52-304.11-80.54Q-298.08-85.57-285.62-85.57L-285.62-85.57L-202.00-85.57Q-194.37-85.57-190.95-88.99Q-187.53-92.40-187.53-100.04L-187.53-100.04L-187.53-148.68Q-187.53-156.32-190.95-159.74Q-194.37-163.16-202.00-163.16L-202.00-163.16L-302.50-163.16Q-352.75-163.16-377.08-143.06Q-401.40-122.96-401.40-81.15L-401.40-81.15L-401.40 44.28Q-401.40 86.08-377.08 106.18Q-352.75 126.28-302.50 126.28L-302.50 126.28ZM-205.22 90.10L-285.22 90.10Q-307.33 90.10-321.40 87.29Q-335.47 84.48-343.51 78.25Q-351.55 72.01-354.56 62.17Q-357.58 52.32-357.58 38.25L-357.58 38.25L-357.58-74.31Q-357.58-102.86-344.71-114.92Q-331.85-126.98-293.26-126.98L-293.26-126.98L-223.71-126.98L-223.71-122.96L-293.26-122.96Q-328.63-122.96-341.10-111.90Q-353.56-100.85-353.56-74.31L-353.56-74.31L-353.56 38.25Q-353.56 64.38-339.69 75.23Q-325.82 86.08-285.22 86.08L-285.22 86.08L-209.24 86.08L-209.24 9.30L-205.22 9.30L-205.22 90.10ZM-47.23 174.12L-47.23 174.12L-109.54 174.12Q-119.19 174.12-123.61 169.70Q-128.04 165.28-128.04 155.63L-128.04 155.63L-128.04-104.87Q-128.04-110.09-126.63-113.71Q-125.22-117.33-122.41-119.74L-122.41-119.74L-70.55-163.56Q-68.54-165.17-65.12-166.17Q-61.71-167.18-57.69-167.18L-57.69-167.18L121.61-167.18Q131.25-167.18 135.68-162.75Q140.10-158.33 140.10-148.68L140.10-148.68L140.10-100.85Q140.10-95.62 138.69-92.00Q137.28-88.38 134.47-85.97L134.47-85.97L89.45-48.59Q98.69-48.59 103.11-44.16Q107.54-39.74 107.54-30.09L107.54-30.09L107.54 18.15Q107.54 23.37 106.13 26.99Q104.72 30.61 101.91 33.02L101.91 33.02L49.65 76.44Q48.04 78.04 44.62 79.25Q41.21 80.46 37.19 80.46L37.19 80.46L23.12 80.46L23.12 111.81Q23.12 117.04 21.71 120.66Q20.30 124.27 17.49 126.69L17.49 126.69L-34.77 170.10Q-36.38 171.71-39.80 172.92Q-43.21 174.12-47.23 174.12ZM-57.69 126.28L4.62 126.28Q12.26 126.28 15.68 122.87Q19.10 119.45 19.10 111.81L19.10 111.81L19.10 32.62L89.04 32.62Q96.68 32.62 100.10 29.20Q103.52 25.78 103.52 18.15L103.52 18.15L103.52-30.09Q103.52-37.73 100.10-41.15Q96.68-44.57 89.04-44.57L89.04-44.57L19.10-44.57L19.10-86.37L121.61-86.37Q129.24-86.37 132.66-89.79Q136.08-93.21 136.08-100.85L136.08-100.85L136.08-148.68Q136.08-156.32 132.66-159.74Q129.24-163.16 121.61-163.16L121.61-163.16L-57.69-163.16Q-65.32-163.16-68.74-159.74Q-72.16-156.32-72.16-148.68L-72.16-148.68L-72.16 111.81Q-72.16 119.45-68.74 122.87Q-65.32 126.28-57.69 126.28L-57.69 126.28ZM-24.32 90.10L-28.34 90.10L-28.34-126.98L99.90-126.98L99.90-122.96L-24.32-122.96L-24.32-7.98L67.34-7.98L67.34-3.96L-24.32-3.96L-24.32 90.10ZM251.85 72.01L251.85 72.01L251.85 90.10L247.83 90.10L247.83 72.01Q247.83 63.17 248.44 55.33Q249.04 47.49 253.86 41.06L253.86 41.06L302.10-24.87L253.86-89.99Q249.44-96.42 248.64-104.26Q247.83-112.10 247.83-120.95L247.83-120.95L247.83-126.98L251.85-126.98L251.85-120.95Q251.85-112.50 252.66-104.87Q253.46-97.23 257.48-91.60L257.48-91.60L305.72-26.48L353.56-26.48L400.19-91.60Q404.21-97.23 405.02-104.87Q405.82-112.50 405.82-120.95L405.82-120.95L405.82-126.98L409.84-126.98L409.84-120.95Q409.84-112.10 409.04-104.26Q408.23-96.42 403.81-89.99L403.81-89.99L356.37-24.06L403.81 41.06Q408.23 47.49 409.04 55.33Q409.84 63.17 409.84 72.01L409.84 72.01L409.84 90.10L405.82 90.10L405.82 72.01Q405.82 63.57 405.02 55.93Q404.21 48.30 400.19 42.67L400.19 42.67L353.16-22.46L304.92-22.46L257.48 42.67Q253.46 47.89 252.66 55.73Q251.85 63.57 251.85 72.01ZM294.87 111.81L294.87 111.81L294.87 72.01Q294.87 67.99 295.27 63.57Q295.67 59.15 298.49 55.13L298.49 55.13L316.58 29.80Q318.99 26.19 321.00 24.58Q323.01 22.97 326.22 22.97L326.22 22.97L331.85 22.97Q335.07 22.97 337.08 24.58Q339.09 26.19 341.50 29.80L341.50 29.80L359.19 55.13Q362.00 59.15 362.40 63.57Q362.81 67.99 362.81 72.01L362.81 72.01L362.81 111.81Q362.81 119.45 366.22 122.87Q369.64 126.28 377.28 126.28L377.28 126.28L438.38 126.28Q446.02 126.28 449.44 122.87Q452.85 119.45 452.85 111.81L452.85 111.81L452.85 68.80Q452.85 50.31 449.84 41.06Q446.82 31.81 437.58 19.35L437.58 19.35L405.02-24.06L437.58-68.28Q446.42-80.75 449.64-89.99Q452.85-99.24 452.85-117.73L452.85-117.73L452.85-148.68Q452.85-156.32 449.44-159.74Q446.02-163.16 438.38-163.16L438.38-163.16L377.28-163.16Q369.64-163.16 366.22-159.74Q362.81-156.32 362.81-148.68L362.81-148.68L362.81-120.95Q362.81-116.93 362.40-112.50Q362.00-108.08 359.19-104.06L359.19-104.06L341.10-78.74Q338.69-75.52 336.68-73.71Q334.67-71.90 331.45-71.90L331.45-71.90L326.63-71.90Q323.41-71.90 321.20-73.71Q318.99-75.52 316.98-78.74L316.98-78.74L299.29-104.06Q296.48-108.08 296.07-112.50Q295.67-116.93 295.67-120.95L295.67-120.95L295.67-148.68Q295.67-156.32 292.25-159.74Q288.84-163.16 281.20-163.16L281.20-163.16L219.29-163.16Q211.65-163.16 208.24-159.74Q204.82-156.32 204.82-148.68L204.82-148.68L204.82-117.73Q204.82-99.24 207.83-89.99Q210.85-80.75 220.10-68.28L220.10-68.28L252.66-24.47L220.10 19.35Q211.25 31.81 208.04 41.06Q204.82 50.31 204.82 68.80L204.82 68.80L204.82 111.81Q204.82 119.45 208.24 122.87Q211.65 126.28 219.29 126.28L219.29 126.28L280.40 126.28Q288.03 126.28 291.45 122.87Q294.87 119.45 294.87 111.81ZM293.26 126.69L293.26 126.69L241.00 170.10Q239.39 171.71 235.97 172.92Q232.56 174.12 228.54 174.12L228.54 174.12L167.43 174.12Q157.79 174.12 153.36 169.70Q148.94 165.28 148.94 155.63L148.94 155.63L148.94 112.62Q148.94 92.92 152.16 83.27Q155.37 73.62 165.02 60.76L165.02 60.76L195.98 19.35L165.02-22.05Q155.37-34.92 152.16-44.57Q148.94-54.21 148.94-73.91L148.94-73.91L148.94-104.87Q148.94-110.09 150.35-113.71Q151.76-117.33 154.57-119.74L154.57-119.74L206.43-163.56Q208.44-165.17 211.85-166.17Q215.27-167.18 219.29-167.18L219.29-167.18L281.20-167.18Q290.85-167.18 295.27-162.75Q299.69-158.33 299.69-148.68L299.69-148.68L299.69-120.95Q299.69-117.33 299.89-113.51Q300.09-109.69 302.51-106.47L302.51-106.47L306.93-100.04L306.93-104.87Q306.93-110.09 308.33-113.71Q309.74-117.33 312.56-119.74L312.56-119.74L364.41-163.56Q366.42-165.17 369.84-166.17Q373.26-167.18 377.28-167.18L377.28-167.18L438.38-167.18Q448.03-167.18 452.45-162.75Q456.87-158.33 456.87-148.68L456.87-148.68L456.87-117.73Q456.87-98.03 453.66-88.38Q450.44-78.74 440.79-65.87L440.79-65.87L409.84-24.06L440.79 16.94Q450.44 29.80 453.66 39.45Q456.87 49.10 456.87 68.80L456.87 68.80L456.87 111.81Q456.87 117.04 455.47 120.66Q454.06 124.27 451.25 126.69L451.25 126.69L398.99 170.10Q397.38 171.71 393.96 172.92Q390.54 174.12 386.52 174.12L386.52 174.12L325.42 174.12Q315.77 174.12 311.35 169.70Q306.93 165.28 306.93 155.63L306.93 155.63L306.93 115.83Q306.93 112.21 306.73 108.60Q306.53 104.98 304.11 101.36L304.11 101.36L298.89 94.12L298.89 111.81Q298.89 117.04 297.48 120.66Q296.07 124.27 293.26 126.69Z"/></g>
</svg>