<svg xmlns="http://www.w3.org/2000/svg" xmlns:xlink="http://www.w3.org/1999/xlink" version="1.1" width="1080" height="1080" viewBox="0 0 1080 1080" xml:space="preserve">
<desc>Created with Fabric.js 3.5.0</desc>
<defs>
</defs>
<rect x="0" y="0" width="100%" height="100%" fill="#ffffff"/>
<g transform="matrix(6.701 0 0 6.701 540.1265 540.1273)" id="65340">
<path style="stroke: rgb(178,22,84); stroke-width: 55; stroke-dasharray: none; stroke-linecap: butt; stroke-dashoffset: 0; stroke-linejoin: miter; stroke-miterlimit: 4; is-custom-font: none; font-file-url: none; fill: none; fill-rule: nonzero; opacity: 1;" vector-effect="non-scaling-stroke" transform=" translate(-79, -78.9999)" d="M 154.685 2.50049 H 154.711 L 154.738 2.49994 C 155.15 2.49126 155.491 2.81853 155.5 3.2304 L 155.5 3.23069 C 155.5 3.24095 155.5 3.25176 155.5 3.26283 L 155.499 3.28886 V 3.3149 V 154.686 C 155.499 155.135 155.135 155.5 154.685 155.5 H 3.31409 C 2.86449 155.5 2.5 155.135 2.5 154.686 V 3.3149 C 2.5 2.86483 2.86465 2.50049 3.31409 2.50049 H 154.685 Z" stroke-linecap="round"/>
</g>
<g transform="matrix(1 0 0 1 540 549.8034)" style="" id="691383">
		
<path xml:space="preserve" font-family="Kbzipadeedoodah YG j" font-size="864" style="stroke: none; stroke-width: 0; stroke-dasharray: none; stroke-linecap: butt; stroke-dashoffset: 0; stroke-linejoin: miter; stroke-miterlimit: 4; is-custom-font: true; font-file-url: https://cdn.pixelied.com/user-assets/fonts/f47c6167-0690-40a7-92ee-d86431ad0a5a.ttf; fill: rgb(241,90,36); fill-rule: nonzero; opacity: 1; white-space: pre;" d="M20.30 228.22L28.94 238.58Q72.14 206.62 96.34 194.52L96.34 194.52L93.74 191.06Q92.88 191.06 92.88 191.93L92.88 191.93Q77.33 197.98 49.68 212.66L49.68 212.66Q29.81 223.90 20.30 228.22L20.30 228.22ZM43.63 255.86L43.63 255.86Q54.86 249.82 79.06 228.22L79.06 228.22Q97.20 212.66 109.30 205.75L109.30 205.75Q105.84 203.16 103.25 200.57L103.25 200.57Q79.06 212.66 34.13 245.50L34.13 245.50Q38.45 250.68 43.63 255.86ZM61.78 271.42L61.78 271.42Q96.34 238.58 126.58 217.85L126.58 217.85Q121.39 214.39 117.07 211.80L117.07 211.80Q104.11 217.85 85.10 235.13L85.10 235.13Q60.91 255.00 50.54 261.91L50.54 261.91Q55.73 267.10 61.78 271.42ZM88.56 288.70L88.56 288.70Q110.16 253.27 141.26 225.62L141.26 225.62L134.35 222.17Q104.11 243.77 68.69 276.60L68.69 276.60Q78.19 283.51 88.56 288.70ZM116.21 300.79L116.21 300.79Q130.03 261.05 152.50 230.81L152.50 230.81L149.90 229.94Q117.94 256.73 96.34 293.02L96.34 293.02Q106.70 297.34 116.21 300.79ZM136.08 306.84L136.08 306.84Q138.67 299.93 143.42 283.94Q148.18 267.96 152.50 256.30Q156.82 244.63 162.86 234.26L162.86 234.26L161.14 233.40Q138.67 264.50 124.85 303.38L124.85 303.38Q130.03 305.11 136.08 306.84ZM144.72 308.57L144.72 308.57L155.09 310.30Q155.95 303.38 159.41 283.08Q162.86 262.78 164.59 251.54L164.59 251.54Q159.41 261.91 152.93 283.51Q146.45 305.11 144.72 308.57ZM39.31 187.61L6.48 198.84Q7.34 201.43 7.34 204.89L7.34 204.89Q10.80 212.66 15.98 220.44L15.98 220.44L46.22 204.89Q72.14 191.06 87.70 184.15L87.70 184.15L79.06 173.78Q65.23 178.10 39.31 187.61L39.31 187.61ZM-63.50-307.46L-63.50-307.46Q-3.89-323.02 25.49-324.74L25.49-324.74L25.49-329.93Q14.26-328.20-14.26-322.15L-14.26-322.15Q-44.50-315.24-62.64-314.38L-62.64-314.38Q-63.50-310.92-63.50-307.46ZM-66.10-287.59L-66.10-287.59Q-44.50-291.05 25.49-306.60L25.49-306.60L25.49-311.78L25.49-316.10Q-2.16-314.38-65.23-297.96L-65.23-297.96Q-66.10-292.78-66.10-287.59ZM-66.96-278.95L-66.96-275.50Q-60.91-276.36-12.53-285.00L-12.53-285.00L25.49-291.05L25.49-297.96Q-43.63-282.41-66.96-278.95L-66.96-278.95ZM-67.82-266.86L-67.82-263.40Q-48.82-259.94-19.44-261.67L-19.44-261.67Q-14.26-261.67 2.16-262.97Q18.58-264.26 26.35-265.13L26.35-265.13L26.35-282.41L-10.80-276.36Q-60.05-267.72-67.82-266.86L-67.82-266.86ZM-66.96-239.21L-66.96-239.21Q-45.36-239.21 27.22-245.26L27.22-245.26L27.22-256.49Q18.58-255.62 2.59-254.33Q-13.39-253.03-19.44-253.03L-19.44-253.03Q-48.82-251.30-67.82-254.76L-67.82-254.76Q-67.82-246.98-66.96-239.21ZM-66.10-223.66L-66.10-223.66Q-46.22-222.79-15.98-224.52L-15.98-224.52Q27.22-226.25 28.94-226.25L28.94-226.25L28.08-236.62Q-45.36-230.57-66.96-230.57L-66.96-230.57Q-66.96-227.11-66.10-223.66ZM-64.37-198.60L-64.37-198.60Q-24.62-202.92 30.67-202.92L30.67-202.92L29.81-217.61Q27.22-217.61-15.12-215.88L-15.12-215.88Q-46.22-214.15-66.10-215.02L-66.10-215.02Q-65.23-207.24-64.37-198.60ZM-63.50-189.96L-62.64-186.50Q6.48-186.50 31.54-188.23L31.54-188.23L31.54-194.28Q-23.76-194.28-63.50-189.96L-63.50-189.96ZM-61.78-177.86L-60.05-164.90Q-41.90-168.36-13.39-166.63L-13.39-166.63Q30.67-164.04 34.13-164.04L34.13-164.04L32.40-179.59Q6.48-177.86-61.78-177.86L-61.78-177.86ZM-59.18-157.13L-57.46-149.35Q-18.58-144.17 35.86-140.71L35.86-140.71L34.13-155.40Q30.67-155.40-14.26-157.99L-14.26-157.99Q-42.77-159.72-59.18-157.13L-59.18-157.13ZM-56.59-139.85L-54-123.43Q-25.49-127.75 37.58-121.70L37.58-121.70L36.72-132.07Q-16.85-135.53-56.59-139.85L-56.59-139.85ZM-41.90-20.62L-41.90-10.25Q-18.58-11.11 41.04-11.11L41.04-11.11L41.04-23.21Q34.99-23.21 20.74-23.64Q6.48-24.07-2.16-24.50Q-10.80-24.94-22.03-23.64Q-33.26-22.34-41.90-20.62L-41.90-20.62ZM-41.04-1.61L-41.04 10.49Q-16.85 8.76 41.04 5.30L41.04 5.30L41.04-2.47Q-18.58-2.47-41.04-1.61L-41.04-1.61ZM-41.90 32.95L-41.90 32.95Q-8.21 26.90 41.90 28.63L41.90 28.63L41.90 13.94Q-16.85 17.40-41.04 19.13L-41.04 19.13Q-41.04 26.04-41.90 32.95ZM-43.63 58.01L-43.63 58.01Q-12.53 54.55 43.63 54.55L43.63 54.55Q42.77 46.78 42.77 37.27L42.77 37.27Q-9.07 35.54-41.90 41.59L-41.90 41.59Q-42.77 50.23-43.63 58.01ZM-47.09 75.29L-47.09 75.29L6.48 72.70Q32.40 70.10 45.36 70.10L45.36 70.10Q44.50 66.65 44.50 63.19L44.50 63.19Q-14.26 63.19-45.36 67.51L-45.36 67.51Q-46.22 70.97-47.09 75.29ZM-48.82 83.93L-52.27 97.75Q13.39 97.75 47.95 89.98L47.95 89.98Q47.09 83.93 46.22 78.74L46.22 78.74Q33.26 78.74 6.48 80.47L6.48 80.47Q-29.81 83.93-48.82 83.93L-48.82 83.93ZM-91.15 166.01L-91.15 166.01L-96.34 172.92Q-69.55 218.71-52.27 242.04L-52.27 242.04Q-47.95 236.86-44.50 230.81L-44.50 230.81Q-48.82 223.90-68.69 198.84L-68.69 198.84Q-83.38 179.83-91.15 166.01ZM-113.62 188.47L-113.62 188.47L-117.07 191.06L-116.21 191.06Q-98.93 240.31-82.51 269.69L-82.51 269.69Q-69.55 260.18-58.32 248.09L-58.32 248.09Q-76.46 223.90-102.38 178.97L-102.38 178.97L-106.70 182.42Q-104.98 185.88-87.70 213.53L-87.70 213.53Q-74.74 234.26-67.82 248.95L-67.82 248.95Q-66.10 252.41-69.98 254.57Q-73.87 256.73-76.46 252.41L-76.46 252.41Q-81.65 240.31-95.47 217.85L-95.47 217.85Q-111.89 191.06-113.62 188.47ZM-147.31 206.62L-147.31 206.62L-152.50 208.34Q-150.77 223.03-149.04 250.68L-149.04 250.68Q-146.45 281.78-144.72 294.74L-144.72 294.74Q-114.48 290.42-89.42 274.87L-89.42 274.87Q-106.70 244.63-123.98 195.38L-123.98 195.38L-127.44 197.98Q-122.26 211.80-114.48 235.99L-114.48 235.99Q-104.11 267.96-101.52 274.87L-101.52 274.87Q-100.66 279.19-104.54 280.49Q-108.43 281.78-110.16 278.33L-110.16 278.33Q-113.62 267.10-123.12 238.58L-123.12 238.58Q-130.03 215.26-135.22 201.43L-135.22 201.43Q-136.94 203.16-139.54 204.02L-139.54 204.02Q-135.22 221.30-127.44 282.65L-127.44 282.65Q-126.58 286.97-130.90 287.83Q-135.22 288.70-136.08 284.38L-136.08 284.38Q-143.86 223.03-147.31 206.62ZM-161.14 210.07L-161.14 210.07L-162.86 210.07L-162.86 296.47L-153.36 296.47Q-155.09 282.65-157.68 250.68L-157.68 250.68Q-159.41 224.76-161.14 210.07ZM-179.28 210.94L-179.28 210.94Q-181.87 210.94-184.46 210.07L-184.46 210.07L-195.70 250.68L-206.93 293.02Q-200.02 294.74-193.97 295.61L-193.97 295.61Q-189.65 247.22-179.28 210.94ZM-202.61 242.04L-193.10 209.21Q-194.83 208.34-195.70 208.34L-195.70 208.34Q-198.29 226.49-202.61 242.04L-202.61 242.04ZM-204.34 205.75L-204.34 205.75L-206.06 204.89Q-210.38 216.98-216.43 229.51Q-222.48 242.04-231.55 258.89Q-240.62 275.74-243.22 281.78L-243.22 281.78Q-237.17 284.38-230.26 286.97L-230.26 286.97Q-210.38 255.00-204.34 205.75ZM-213.84 202.30L-213.84 202.30L-216.43 200.57Q-224.21 221.30-252.72 277.46L-252.72 277.46L-250.99 278.33Q-247.54 271.42-238.46 254.57Q-229.39 237.72-223.78 225.62Q-218.16 213.53-213.84 202.30ZM-224.21 197.11L-224.21 197.11L-225.07 196.25Q-234.58 210.94-250.99 234.26L-250.99 234.26L-273.46 265.37L-260.50 273.14Q-231.98 216.98-224.21 197.11ZM-232.85 191.93L-232.85 191.93Q-236.30 189.34-238.90 187.61L-238.90 187.61Q-244.94 197.98-257.90 213.53L-257.90 213.53Q-281.23 243.77-287.28 253.27L-287.28 253.27Q-287.28 254.14-288.14 254.14L-288.14 254.14Q-284.69 257.59-280.37 260.18L-280.37 260.18L-257.90 229.08Q-241.49 205.75-232.85 191.93ZM-245.81 181.56L-245.81 181.56Q-250.13 178.10-254.45 173.78L-254.45 173.78L-279.50 204.02Q-297.65 224.76-307.15 236.86L-307.15 236.86L-295.06 248.95Q-294.19 248.95-294.19 248.09L-294.19 248.09Q-288.14 238.58-264.82 208.34L-264.82 208.34Q-251.86 192.79-245.81 181.56ZM-260.50 167.74L-260.50 167.74L-265.68 161.69Q-274.32 170.33-292.46 185.02L-292.46 185.02Q-313.20 203.16-322.70 213.53L-322.70 213.53Q-324.43 214.39-325.30 214.39L-325.30 214.39Q-320.11 223.03-313.20 230.81L-313.20 230.81Q-303.70 217.85-286.42 197.98L-286.42 197.98Q-263.95 172.06-260.50 167.74ZM-271.73 155.64L-271.73 155.64L-275.18 150.46Q-283.82 155.64-305.42 172.92L-305.42 172.92Q-325.30 188.47-337.39 195.38L-337.39 195.38L-333.94 202.30L-329.62 208.34L-329.62 206.62Q-325.30 203.16-297.65 178.97L-297.65 178.97Q-279.50 163.42-271.73 155.64ZM-280.37 143.54L-280.37 143.54L-281.23 141.82Q-326.16 163.42-346.03 180.70L-346.03 180.70L-341.71 187.61Q-330.48 181.56-310.61 166.01L-310.61 166.01Q-289.01 148.73-280.37 143.54ZM-286.42 134.90L-286.42 134.90L-288.14 132.31Q-298.51 136.63-317.52 147.86L-317.52 147.86Q-340.85 160.82-352.94 166.01L-352.94 166.01L-353.81 166.01L-350.35 172.92Q-329.62 155.64-286.42 134.90ZM-292.46 124.54L-292.46 124.54L-294.19 120.22Q-328.75 135.77-363.31 146.14L-363.31 146.14L-357.26 158.23L-356.40 157.37Q-344.30 153.05-321.84 140.09L-321.84 140.09Q-302.83 128.86-292.46 124.54ZM-298.51 112.44L-298.51 112.44L-301.10 108.12Q-346.03 116.76-369.36 128.86L-369.36 128.86Q-369.36 129.72-370.22 129.72L-370.22 129.72L-366.77 138.36Q-365.90 137.50-365.04 137.50L-365.04 137.50Q-332.21 127.99-298.51 112.44ZM-351.22-114.79L-351.22-114.79L-351.22-126.02Q-399.60-126.89-416.02-121.70L-416.02-121.70L-416.88-121.70L-416.88-107.02Q-409.10-107.88-395.28-108.74Q-381.46-109.61-371.09-110.90Q-360.72-112.20-351.22-114.79ZM-350.35-89.74L-350.35-89.74Q-350.35-97.51-351.22-106.15L-351.22-106.15Q-360.72-103.56-371.95-102.26Q-383.18-100.97-396.14-100.10Q-409.10-99.24-416.02-98.38L-416.02-98.38L-416.02-88.01Q-403.92-88.01-381.89-88.87Q-359.86-89.74-350.35-89.74ZM-348.62-71.59L-348.62-71.59Q-349.49-76.78-349.49-81.10L-349.49-81.10Q-359.86-81.10-381.89-80.23Q-403.92-79.37-416.02-79.37L-416.02-79.37L-414.29-62.09Q-402.19-65.54-378-68.14Q-353.81-70.73-348.62-71.59ZM-345.17-44.81L-345.17-44.81Q-346.90-53.45-347.76-62.95L-347.76-62.95Q-353.81-62.09-377.57-59.50Q-401.33-56.90-414.29-53.45L-414.29-53.45L-412.56-39.62Q-374.54-39.62-345.17-44.81ZM-343.44-28.39L-343.44-28.39L-344.30-36.17Q-373.68-30.98-411.70-30.98L-411.70-30.98Q-410.83-22.34-409.10-12.84L-409.10-12.84Q-406.51-13.70-381.46-19.75Q-356.40-25.80-343.44-28.39ZM-339.98-12.84L-339.98-12.84L-341.71-19.75Q-354.67-17.16-379.30-11.11Q-403.92-5.06-408.24-4.20L-408.24-4.20L-407.38 0.12Q-397.01-1.61-376.27-5.93L-376.27-5.93Q-352.94-11.11-339.98-12.84ZM-334.80 13.08L-334.80 13.08L-338.26-4.20Q-347.76-2.47-374.54 2.71L-374.54 2.71Q-395.28 7.03-405.65 8.76L-405.65 8.76L-402.19 28.63Q-360.72 22.58-334.80 13.08ZM-327.02 39.00L-327.02 39.00Q-330.48 30.36-332.21 20.86L-332.21 20.86Q-358.99 31.22-399.60 37.27L-399.60 37.27Q-397.87 44.18-396.14 51.96L-396.14 51.96Q-352.08 49.37-327.02 39.00ZM-320.98 60.60L-320.98 60.60L-324.43 47.64Q-350.35 57.14-394.42 60.60L-394.42 60.60L-389.23 77.88Q-383.18 76.15-371.52 73.56Q-359.86 70.97-358.99 70.97L-358.99 70.97Q-334.80 65.78-320.98 60.60ZM-313.20 79.61L-313.20 79.61L-317.52 68.38Q-333.07 73.56-357.26 79.61L-357.26 79.61Q-358.99 79.61-369.79 82.20Q-380.59 84.79-386.64 86.52L-386.64 86.52L-383.18 96.02Q-348.62 90.84-313.20 79.61ZM-306.29 96.02L-309.74 87.38Q-346.03 98.62-380.59 103.80L-380.59 103.80L-373.68 121.94L-372.82 121.94Q-349.49 108.98-304.56 99.48L-304.56 99.48L-306.29 96.02ZM-328.75-354.12L-328.75-354.12L-327.89-359.30Q-365.90-372.26-385.78-366.21L-385.78-366.21L-385.78-364.49Q-380.59-363.62-355.54-358.44L-355.54-358.44Q-338.26-354.98-328.75-354.12ZM-331.34-336.84L-331.34-336.84L-330.48-345.48Q-340.85-346.34-357.26-349.80L-357.26-349.80Q-382.32-355.85-387.50-355.85L-387.50-355.85L-390.10-347.21Q-377.14-341.16-357.26-339.43L-357.26-339.43Q-352.94-338.57-346.03-338.14Q-339.12-337.70-337.39-337.70L-337.39-337.70Q-334.80-336.84-331.34-336.84ZM-334.80-320.42L-334.80-320.42L-333.07-328.20Q-335.66-329.06-338.26-329.06L-338.26-329.06Q-339.98-329.06-346.90-329.50Q-353.81-329.93-358.13-330.79L-358.13-330.79Q-378-332.52-391.82-338.57L-391.82-338.57L-394.42-325.61Q-373.68-320.42-334.80-320.42ZM-337.39-304.01L-337.39-304.01L-335.66-311.78Q-374.54-311.78-396.14-316.97L-396.14-316.97L-397.87-305.74Q-387.50-305.74-367.20-304.87Q-346.90-304.01-337.39-304.01ZM-339.98-285.86L-339.98-285.86L-338.26-295.37Q-347.76-295.37-368.06-296.23Q-388.37-297.09-399.60-297.09L-399.60-297.09L-401.33-289.32Q-391.82-289.32-371.09-287.59Q-350.35-285.86-339.98-285.86ZM-341.71-270.31L-341.71-270.31L-340.85-277.22Q-351.22-277.22-371.95-278.95Q-392.69-280.68-403.06-280.68L-403.06-280.68L-403.92-271.18Q-372.82-274.63-341.71-270.31ZM-345.17-246.12L-345.17-246.12L-343.44-261.67Q-374.54-265.99-405.65-261.67L-405.65-261.67L-407.38-247.85Q-359.86-248.71-345.17-246.12ZM-347.76-222.79L-347.76-222.79Q-346.90-229.70-346.03-237.48L-346.03-237.48Q-359.86-240.07-409.10-239.21L-409.10-239.21Q-409.97-231.43-410.83-222.79L-410.83-222.79Q-403.06-223.66-350.35-223.66L-350.35-223.66Q-348.62-223.66-347.76-222.79ZM-350.35-202.92L-349.49-202.92Q-348.62-208.97-347.76-215.88L-347.76-215.88Q-349.49-215.02-350.35-215.02L-350.35-215.02Q-403.92-215.02-411.70-214.15L-411.70-214.15L-412.56-204.65Q-397.87-202.92-350.35-202.92L-350.35-202.92ZM-350.35-183.91L-350.35-183.91Q-350.35-189.10-349.49-194.28L-349.49-194.28L-350.35-194.28Q-398.74-194.28-413.42-196.01L-413.42-196.01Q-414.29-187.37-414.29-178.73L-414.29-178.73Q-397.01-184.78-350.35-183.91ZM-351.22-155.40L-351.22-155.40Q-351.22-164.90-350.35-175.27L-350.35-175.27Q-398.74-176.14-415.15-170.09L-415.15-170.09Q-416.02-162.31-416.02-154.54L-416.02-154.54Q-362.45-153.67-351.22-155.40ZM-351.22-145.90L-351.22-145.90Q-362.45-145.03-416.02-145.90L-416.02-145.90Q-416.88-138.12-416.88-130.34L-416.88-130.34Q-398.74-135.53-352.08-134.66L-352.08-134.66Q-352.08-140.71-351.22-145.90ZM-171.50 297.34L-171.50 214.39Q-181.01 249.82-185.33 296.47L-185.33 296.47Q-179.28 297.34-173.23 297.34L-173.23 297.34L-171.50 297.34ZM-65.23 128.86L-64.37 129.72Q-23.76 115.03 52.27 109.85L52.27 109.85Q51.41 104.66 49.68 98.62L49.68 98.62Q13.39 106.39-55.73 106.39L-55.73 106.39Q-60.05 118.49-65.23 128.86L-65.23 128.86ZM-39.31 156.50L-27.22 172.92Q20.30 166.01 66.96 152.18L66.96 152.18Q65.23 148.73 64.37 145.27L64.37 145.27Q63.50 147.00 61.78 147.00L61.78 147.00Q41.04 150.46 9.07 153.05L9.07 153.05Q-37.58 155.64-39.31 156.50L-39.31 156.50ZM-22.03 180.70L-22.03 180.70L-17.71 187.61Q-14.26 186.74-10.80 186.74L-10.80 186.74Q-6.48 186.74-3.02 188.47L-3.02 188.47Q-0.43 189.34 1.30 191.06L1.30 191.06L35.86 178.97Q60.91 170.33 74.74 166.01L74.74 166.01Q73.01 162.55 71.28 159.96L71.28 159.96Q25.49 172.92-22.03 180.70ZM-36.72 175.51L-36.72 175.51Q-52.27 151.32-66.10 140.09L-66.10 140.09Q-68.69 140.95-70.42 138.36L-70.42 138.36L-76.46 147.00Q-39.31 199.70-32.40 211.80L-32.40 211.80Q-30.67 208.34-28.94 204.02L-28.94 204.02Q-28.94 197.98-24.62 192.79L-24.62 192.79L-31.54 182.42L-32.40 182.42Q-36.72 183.29-37.58 178.97L-37.58 178.97Q-37.58 176.38-36.72 175.51ZM-291.60-363.62L-291.60-363.62Q-303.70-295.37-309.74-247.85L-309.74-247.85Q-315.79-197.74-317.09-138.55Q-318.38-79.37-308.02-24.07Q-297.65 31.22-275.18 82.20L-275.18 82.20Q-259.63 118.49-237.60 142.25Q-215.57 166.01-192.24 173.78L-192.24 173.78Q-141.26 189.34-98.93 118.49L-98.93 118.49Q-78.19 83.06-76.03 26.47Q-73.87-30.12-84.24-88.01L-84.24-88.01Q-85.10-98.38-89.42-127.32Q-93.74-156.26-95.47-169.66Q-97.20-183.05-99.79-208.10Q-102.38-233.16-102.38-249.57Q-102.38-265.99-101.09-285.86Q-99.79-305.74-96.34-322.15L-96.34-322.15Q-94.61-326.47-92.02-329.93L-92.02-329.93L-92.02-330.79Q-92.02-337.70-86.83-342.89Q-81.65-348.07-74.74-348.07L-74.74-348.07Q-56.59-348.07-22.03-355.85L-22.03-355.85Q18.58-364.49 37.58-365.35L37.58-365.35Q41.04-365.35 43.63-364.49L43.63-364.49L44.50-364.49Q51.41-364.49 56.16-358.87Q60.91-353.26 60.91-346.34L60.91-346.34Q59.18-306.60 61.34-263.40Q63.50-220.20 68.26-164.90Q73.01-109.61 74.74-80.23L74.74-80.23Q75.60-63.81 75.60-7.66Q75.60 48.50 80.78 81.34Q85.97 114.17 101.52 143.54L101.52 143.54Q123.12 185.02 180.14 204.02L180.14 204.02Q187.06 205.75 189.65 211.80L189.65 211.80Q202.61 216.12 201.74 229.94L201.74 229.94Q200.88 236.86 188.78 317.21L188.78 317.21Q192.24 322.39 192.24 328.44L192.24 328.44Q192.24 335.35 187.06 340.54Q181.87 345.72 174.96 345.72L174.96 345.72Q120.53 345.72 69.55 317.64Q18.58 289.56-10.80 242.90L-10.80 242.90Q-38.45 286.97-81.65 309.43Q-124.85 331.90-173.23 331.90L-173.23 331.90Q-229.39 331.03-280.37 301.66Q-331.34 272.28-363.31 219.58L-363.31 219.58Q-505.01-13.70-417.74-380.90L-417.74-380.90Q-416.88-390.41-408.24-394.73L-408.24-394.73Q-372.82-412.87-306.29-388.68L-306.29-388.68Q-299.38-386.09-296.78-379.18L-296.78-379.18Q-289.87-373.13-291.60-363.62ZM-47.95-101.83L-47.95-101.83L38.45-101.83L37.58-113.06Q-25.49-119.11-53.14-114.79L-53.14-114.79L-50.54-100.97Q-49.68-101.83-47.95-101.83ZM-42.77-77.64L-42.77-77.64L40.18-77.64L40.18-78.50Q40.18-85.42 39.31-93.19L39.31-93.19L-47.95-93.19Q-48.82-93.19-49.68-94.06L-49.68-94.06L-49.68-93.19Q-47.95-82.82-47.09-73.32L-47.09-73.32Q-47.09-77.64-42.77-77.64ZM-85.10 159.10L-85.10 159.96Q-77.33 172.92-61.78 192.79L-61.78 192.79L-39.31 223.03L-36.72 219.58Q-38.45 218.71-39.31 216.98L-39.31 216.98Q-46.22 203.16-81.65 154.78L-81.65 154.78L-85.10 159.10ZM-43.63 147.86L-43.63 147.86Q-39.31 147.86 8.21 144.41L8.21 144.41Q40.18 141.82 60.05 138.36L60.05 138.36L60.91 138.36Q57.46 128.86 54.86 118.49L54.86 118.49Q-18.58 123.67-56.59 136.63L-56.59 136.63Q-51.41 141.82-45.36 148.73L-45.36 148.73Q-44.50 147.86-43.63 147.86ZM-204.34 248.09L-204.34 248.09Q-211.25 271.42-222.48 289.56L-222.48 289.56Q-219.02 290.42-214.70 291.29L-214.70 291.29Q-211.25 274.01-204.34 248.09ZM-47.09-73.32L-47.09-73.32Q-43.63-48.26-42.77-29.25L-42.77-29.25Q-33.26-31.85-21.60-32.71Q-9.94-33.58-1.30-33.14Q7.34-32.71 21.60-32.28Q35.86-31.85 41.04-31.85L41.04-31.85L41.04-44.81Q-22.03-54.31-41.04-55.18L-41.04-55.18Q-45.36-55.18-45.36-59.50Q-45.36-63.81-41.04-63.81L-41.04-63.81Q-21.17-62.95 41.04-54.31L41.04-54.31L41.04-69.00L-42.77-69.00Q-47.09-69.00-47.09-73.32ZM322.70-327.33L322.70-327.33Q331.34-342.02 343.44-356.71L343.44-356.71Q338.26-354.98 334.80-351.53L334.80-351.53Q324.43-342.02 322.70-327.33ZM433.30-273.77L428.98-265.99Q435.89-273.77 440.21-283.27L440.21-283.27L433.30-273.77ZM425.52-278.09L443.66-304.87Q443.66-310.92 441.07-316.97L441.07-316.97Q435.02-305.74 422.93-289.32L422.93-289.32Q401.33-260.81 395.28-252.17L395.28-252.17Q403.92-252.17 412.56-255.62L412.56-255.62Q417.74-265.13 425.52-278.09L425.52-278.09ZM437.62-326.47L437.62-326.47Q434.16-333.38 428.11-338.57L428.11-338.57Q420.34-328.20 412.13-314.38Q403.92-300.55 393.55-279.81Q383.18-259.08 379.73-253.90L379.73-253.90Q382.32-253.03 385.78-252.17L385.78-252.17Q392.69-263.40 416.02-294.50L416.02-294.50Q429.84-313.51 437.62-326.47ZM422.06-344.62L422.06-344.62Q419.47-346.34 416.02-348.07L416.02-348.07Q397.87-328.20 356.40-262.54L356.40-262.54Q363.31-258.21 371.09-255.62L371.09-255.62Q374.54-261.67 384.91-282.41Q395.28-303.14 403.92-317.83Q412.56-332.52 422.06-344.62ZM408.24-352.39L408.24-352.39Q405.65-354.12 402.19-354.98L402.19-354.98Q400.46-353.26 372.82-316.97L372.82-316.97Q352.94-291.05 343.44-273.77L343.44-273.77L349.49-267.72Q390.10-332.52 408.24-352.39ZM393.55-358.44L393.55-358.44Q389.23-359.30 384.05-361.03L384.05-361.03Q356.40-332.52 331.34-289.32L331.34-289.32Q333.94-285.00 337.39-280.68L337.39-280.68Q346.90-297.96 365.90-322.15L365.90-322.15L377.14-336.84Q388.37-350.66 393.55-358.44ZM373.68-363.62L373.68-363.62L372.82-363.62Q365.04-363.62 358.99-361.90L358.99-361.90Q338.26-338.57 326.16-316.97L326.16-316.97Q325.30-314.38 322.70-314.38L322.70-314.38Q323.57-306.60 327.02-298.82L327.02-298.82Q349.49-336.84 373.68-363.62ZM396.14-393.00L396.14-393.00Q441.94-380.90 462.67-350.66Q483.41-320.42 476.50-285.00L476.50-285.00Q468.72-249.57 437.18-229.27Q405.65-208.97 364.18-221.93L364.18-221.93Q330.48-232.30 309.31-260.38Q288.14-288.45 287.28-320.42L287.28-320.42Q287.28-355.85 312.34-377.45L312.34-377.45Q338.26-400.78 384.91-398.18L384.91-398.18Q390.96-398.18 396.14-393.00ZM367.63 401.88L367.63 401.88Q346.90 401.02 331.34 401.88L331.34 401.88L332.21 404.47Q346.90 404.47 367.63 401.88ZM401.33 371.64L401.33 371.64L401.33 364.73Q390.96 365.59 365.90 366.46Q340.85 367.32 327.02 367.32L327.02 367.32L328.75 382.87Q346.03 378.55 373.68 375.10L373.68 375.10Q381.46 374.23 401.33 371.64ZM401.33 396.70L401.33 396.70L401.33 380.28L374.54 383.74Q348.62 387.19 329.62 390.65L329.62 390.65L330.48 393.24Q353.81 391.51 401.33 396.70ZM401.33 356.09L401.33 356.09L401.33 345.72Q398.74 344.86 395.28 344.86L395.28 344.86Q392.69 344.86 381.46 343.56Q370.22 342.26 364.18 342.26L364.18 342.26Q341.71 340.54 325.30 342.26L325.30 342.26Q325.30 350.90 326.16 358.68L326.16 358.68Q339.98 358.68 365.90 357.82Q391.82 356.95 401.33 356.09ZM399.60 229.94L399.60 229.94L399.60 221.30Q364.18 221.30 323.57 223.03L323.57 223.03Q322.70 229.94 322.70 236.86L322.70 236.86Q354.67 230.81 399.60 229.94ZM399.60 256.73L399.60 256.73L399.60 238.58Q353.81 239.45 322.70 245.50L322.70 245.50L322.70 265.37Q329.62 264.50 341.71 263.21Q353.81 261.91 358.99 261.91L358.99 261.91Q381.46 259.32 396.14 255.86L396.14 255.86Q397.87 255.86 399.60 256.73ZM399.60 263.64L399.60 263.64Q398.74 264.50 397.87 264.50L397.87 264.50Q382.32 267.96 359.86 269.69L359.86 269.69Q355.54 270.55 342.58 271.85Q329.62 273.14 322.70 274.01L322.70 274.01L322.70 285.24Q337.39 287.83 359.86 286.10L359.86 286.10Q361.58 286.10 384.91 284.38L384.91 284.38Q393.55 283.51 400.46 282.65L400.46 282.65L400.46 278.33Q399.60 269.69 399.60 263.64ZM399.60 184.15L399.60 184.15Q399.60 175.51 400.46 167.74L400.46 167.74Q389.23 167.74 364.18 169.03Q339.12 170.33 325.30 170.33L325.30 170.33Q324.43 181.56 324.43 191.93L324.43 191.93Q327.02 191.93 363.31 187.61L363.31 187.61Q384.91 185.02 399.60 184.15ZM399.60 212.66L399.60 212.66L399.60 192.79Q386.64 193.66 365.04 196.25L365.04 196.25Q329.62 200.57 323.57 200.57L323.57 200.57L323.57 214.39Q364.18 212.66 399.60 212.66ZM408.24-139.85L408.24-139.85L408.24-145.03Q400.46-144.17 382.75-143.30Q365.04-142.44 356.40-142.44L356.40-142.44L356.40-140.71Q365.90-140.71 384.48-140.28Q403.06-139.85 408.24-139.85ZM353.81-118.25L408.24-118.25L408.24-131.21Q403.06-131.21 384.48-131.64Q365.90-132.07 355.54-132.07L355.54-132.07Q354.67-126.02 353.81-118.25L353.81-118.25ZM408.24-97.51L408.24-97.51L408.24-109.61L352.94-109.61Q352.08-104.42 350.35-97.51L350.35-97.51Q364.18-98.38 382.32-98.38L382.32-98.38Q384.91-98.38 408.24-97.51ZM408.24-77.64L408.24-77.64L408.24-88.87Q384.91-89.74 382.32-89.74L382.32-89.74Q362.45-89.74 348.62-88.87L348.62-88.87L346.90-80.23Q358.13-80.23 378.86-79.37Q399.60-78.50 408.24-77.64ZM408.24-60.36L408.24-60.36L408.24-69.00Q399.60-69.00 378.43-70.30Q357.26-71.59 346.03-71.59L346.03-71.59L344.30-62.95Q352.94-62.09 374.54-61.22Q396.14-60.36 408.24-60.36ZM340.85-41.35L407.38-41.35Q407.38-46.54 408.24-51.72L408.24-51.72Q396.14-51.72 374.11-53.02Q352.08-54.31 342.58-54.31L342.58-54.31Q341.71-47.40 340.85-41.35L340.85-41.35ZM407.38-22.34L407.38-22.34L407.38-32.71L339.98-32.71L339.12-23.21L372.82-23.21Q377.14-23.21 389.23-22.78Q401.33-22.34 407.38-22.34ZM407.38 3.58L407.38 3.58L407.38-13.70Q400.46-13.70 388.80-14.14Q377.14-14.57 372.82-14.57L372.82-14.57L338.26-14.57L336.53 7.03Q356.40 2.71 407.38 3.58ZM406.51 29.50L406.51 29.50L406.51 12.22Q354.67 11.35 335.66 15.67L335.66 15.67L335.66 17.40Q361.58 26.04 402.19 26.04L402.19 26.04Q405.65 26.04 406.51 29.50ZM329.62 96.89L403.92 96.89Q403.92 89.98 404.78 83.06L404.78 83.06Q393.55 82.20 365.90 83.06L365.90 83.06Q343.44 83.06 330.48 82.20L330.48 82.20L329.62 96.89ZM401.33 140.95L401.33 139.22L374.54 139.22Q342.58 140.09 327.02 147.86L327.02 147.86Q327.02 148.73 326.16 148.73L326.16 148.73L325.30 161.69Q339.12 161.69 364.18 160.39Q389.23 159.10 400.46 159.10L400.46 159.10Q400.46 149.59 401.33 140.95L401.33 140.95ZM403.06 116.76L403.06 116.76L403.06 105.53L328.75 105.53L327.89 119.35Q340.85 119.35 365.47 118.06Q390.10 116.76 403.06 116.76ZM402.19 130.58L402.19 125.40Q390.10 125.40 365.04 126.70Q339.98 127.99 327.02 127.99L327.02 127.99L327.02 139.22Q343.44 131.45 374.54 130.58L374.54 130.58L402.19 130.58ZM439.34-167.50L439.34-167.50Q442.80-163.18 442.80-157.13L442.80-157.13Q442.80 33.82 435.89 142.68L435.89 142.68Q432.43 194.52 435.02 277.46L435.02 277.46Q436.75 372.50 435.02 414.84L435.02 414.84Q435.02 421.75 429.41 426.50Q423.79 431.26 416.88 431.26L416.88 431.26L414.29 431.26L413.42 431.26Q407.38 432.12 384.48 435.14Q361.58 438.17 352.94 438.17L352.94 438.17L320.11 438.17Q315.79 437.30 311.47 434.71L311.47 434.71Q301.97 432.12 299.38 421.75L299.38 421.75Q289.01 362.14 289.01 267.53Q289.01 172.92 292.90 116.76Q296.78 60.60 305.42-37.03L305.42-37.03Q307.15-52.58 314.93-96.65L314.93-96.65Q321.84-131.21 321.84-151.08L321.84-151.08Q321.84-158.86 327.89-164.04L327.89-164.04Q330.48-177.00 344.30-177.00L344.30-177.00Q357.26-177.00 383.62-178.30Q409.97-179.59 422.93-179.59Q435.89-179.59 439.34-167.50ZM350.35 45.05L350.35 45.05Q367.63 40.73 405.65 41.59L405.65 41.59L406.51 32.09Q405.65 34.68 402.19 34.68L402.19 34.68Q361.58 34.68 334.80 26.04L334.80 26.04L333.07 46.78Q340.85 45.05 350.35 45.05ZM341.71 54.55L341.71 54.55Q336.53 54.55 332.21 55.42L332.21 55.42L331.34 73.56Q343.44 74.42 365.90 74.42L365.90 74.42Q393.55 73.56 404.78 74.42L404.78 74.42Q405.65 62.33 405.65 50.23L405.65 50.23L401.33 50.23Q400.46 52.82 397.87 52.82L397.87 52.82Q358.99 52.82 352.08 53.69L352.08 53.69Q348.62 54.55 346.03 55.42Q343.44 56.28 341.71 54.55ZM323.57 312.89L375.41 312.89Q376.27 311.16 378.86 311.16L378.86 311.16Q391.82 310.30 400.46 308.57L400.46 308.57L400.46 291.29Q394.42 292.15 385.78 292.15L385.78 292.15Q361.58 294.74 360.72 294.74L360.72 294.74Q338.26 296.47 322.70 293.88L322.70 293.88Q323.57 303.38 323.57 312.89L323.57 312.89ZM401.33 317.21L394.42 318.94Q392.69 319.80 391.82 319.80L391.82 319.80Q378 322.39 323.57 321.53L323.57 321.53Q324.43 327.58 324.43 333.63L324.43 333.63Q341.71 331.90 365.04 333.63L365.04 333.63Q371.09 333.63 382.32 334.92Q393.55 336.22 396.14 336.22L396.14 336.22L401.33 337.08L401.33 317.21Z"/></g>
</svg>