<svg xmlns="http://www.w3.org/2000/svg" xmlns:xlink="http://www.w3.org/1999/xlink" version="1.1" width="1080" height="1080" viewBox="0 0 1080 1080" xml:space="preserve">
<desc>Created with Fabric.js 3.5.0</desc>
<defs>
</defs>
<rect x="0" y="0" width="100%" height="100%" fill="#ffffff"/>
<g transform="matrix(6.701 0 0 6.701 540.1265 540.1273)" id="65340">
<path style="stroke: rgb(178,22,84); stroke-width: 55; stroke-dasharray: none; stroke-linecap: butt; stroke-dashoffset: 0; stroke-linejoin: miter; stroke-miterlimit: 4; is-custom-font: none; font-file-url: none; fill: none; fill-rule: nonzero; opacity: 1;" vector-effect="non-scaling-stroke" transform=" translate(-79, -78.9999)" d="M 154.685 2.50049 H 154.711 L 154.738 2.49994 C 155.15 2.49126 155.491 2.81853 155.5 3.2304 L 155.5 3.23069 C 155.5 3.24095 155.5 3.25176 155.5 3.26283 L 155.499 3.28886 V 3.3149 V 154.686 C 155.499 155.135 155.135 155.5 154.685 155.5 H 3.31409 C 2.86449 155.5 2.5 155.135 2.5 154.686 V 3.3149 C 2.5 2.86483 2.86465 2.50049 3.31409 2.50049 H 154.685 Z" stroke-linecap="round"/>
</g>
<g transform="matrix(1 0 0 1 540 512.7349)" style="" id="289187">
		
<path xml:space="preserve" font-family="Alef" font-size="776" font-style="normal" font-weight="bold" text-decoration="underline " style="stroke: none; stroke-width: 0; stroke-dasharray: none; stroke-linecap: butt; stroke-dashoffset: 0; stroke-linejoin: miter; stroke-miterlimit: 4; is-custom-font: none; font-file-url: none; fill: rgb(129,241,26); fill-rule: nonzero; opacity: 1; white-space: pre;" d="M-326.63-301.09L-220.91-301.09L-220.91 243.77L-326.63 243.77L-326.63-301.09ZM350.10-45.71L350.10 217.25Q333.43 225.59 312.21 232.22Q290.99 238.85 266.74 243.39Q242.49 247.94 216.35 250.40Q190.20 252.87 164.06 252.87L164.06 252.87Q97.75 252.87 48.11 239.23Q-1.53 225.59-34.49 193.76Q-67.46 161.93-83.75 109.45Q-100.04 56.97-100.04-21.08L-100.04-21.08Q-100.04-102.55-82.99-157.87Q-65.94-213.19-34.11-247.10Q-2.28-281.01 43.00-295.79Q88.28-310.57 144.35-310.57L144.35-310.57Q168.22-310.57 192.66-308.10Q217.10-305.64 240.97-300.72Q264.85-295.79 287.01-288.40Q309.18-281.01 328.50-271.54L328.50-271.54L299.33-197.65Q261.06-215.84 223.73-223.80Q186.41-231.75 153.07-231.75L153.07-231.75Q115.18-231.75 87.71-219.82Q60.24-207.88 42.43-183.44Q24.62-159.00 16.09-121.30Q7.57-83.60 7.57-32.45L7.57-32.45Q7.57 21.73 16.28 60.57Q25.00 99.41 43.75 124.80Q62.51 150.18 91.50 162.12Q120.48 174.05 161.40 174.05L161.40 174.05Q181.86 174.05 203.27 171.02Q224.68 167.99 246.66 162.69L246.66 162.69L246.66 31.21L159.89 31.21L159.89-45.71L350.10-45.71Z"/></g>
</svg>