<svg xmlns="http://www.w3.org/2000/svg" xmlns:xlink="http://www.w3.org/1999/xlink" version="1.1" width="1080" height="1080" viewBox="0 0 1080 1080" xml:space="preserve">
<desc>Created with Fabric.js 3.5.0</desc>
<defs>
</defs>
<rect x="0" y="0" width="100%" height="100%" fill="#ffffff"/>
<g transform="matrix(6.701 0 0 6.701 540.1265 540.1273)" id="65340">
<path style="stroke: rgb(178,22,84); stroke-width: 55; stroke-dasharray: none; stroke-linecap: butt; stroke-dashoffset: 0; stroke-linejoin: miter; stroke-miterlimit: 4; is-custom-font: none; font-file-url: none; fill: none; fill-rule: nonzero; opacity: 1;" vector-effect="non-scaling-stroke" transform=" translate(-79, -78.9999)" d="M 154.685 2.50049 H 154.711 L 154.738 2.49994 C 155.15 2.49126 155.491 2.81853 155.5 3.2304 L 155.5 3.23069 C 155.5 3.24095 155.5 3.25176 155.5 3.26283 L 155.499 3.28886 V 3.3149 V 154.686 C 155.499 155.135 155.135 155.5 154.685 155.5 H 3.31409 C 2.86449 155.5 2.5 155.135 2.5 154.686 V 3.3149 C 2.5 2.86483 2.86465 2.50049 3.31409 2.50049 H 154.685 Z" stroke-linecap="round"/>
</g>
<g transform="matrix(1 0 0 1 540 517.1527)" style="filter: url(#SVGID_2);" id="420023">
<filter id="SVGID_2" y="-21.3%" height="142.6%" x="-20.27%" width="140.54%">
	<feGaussianBlur in="SourceAlpha" stdDeviation="0"/>
	<feOffset dx="5" dy="13" result="oBlur"/>
	<feFlood flood-color="rgb(72,152,156)" flood-opacity="1"/>
	<feComposite in2="oBlur" operator="in"/>
	<feMerge>
		<feMergeNode/>
		<feMergeNode in="SourceGraphic"/>
	</feMerge>
</filter>
		
<path xml:space="preserve" font-family="Modak" font-size="522" font-style="normal" style="stroke: rgb(72,152,156); stroke-width: 5; stroke-dasharray: none; stroke-linecap: butt; stroke-dashoffset: 0; stroke-linejoin: miter; stroke-miterlimit: 4; is-custom-font: none; font-file-url: none; fill: rgb(156,238,187); fill-rule: nonzero; opacity: 1; white-space: pre;" d="M-318.10-260.14L-318.10-223.69Q-317.08-222.93-312.24-222.93Q-307.39-222.93-304.84-226.75Q-302.30-230.57-302.30-239.24L-302.30-239.24L-302.30-248.42Q-302.30-257.59-304.46-261.54Q-306.63-265.49-311.60-265.49Q-316.57-265.49-318.35-264.47L-318.35-264.47Q-318.10-263.20-318.10-260.14L-318.10-260.14ZM-186.58-165.58L-186.58-165.58L-142.48-120.46Q-147.07-80.70-167.59-59.29Q-188.11-37.88-224.30-37.88L-224.30-37.88Q-251.57-37.88-271.71-50.88L-271.71-50.88Q-297.45-67.19-310.20-102.88L-310.20-102.88L-319.37-127.86Q-330.08-128.11-346.39-130.66L-346.39-130.66Q-348.43-128.62-348.43-125.05L-348.43-125.05Q-348.43-118.17-327.78-116.90L-327.78-116.90L-313.26-80.19L-313.26-58.53Q-342.57-37.88-388.45-37.88L-388.45-37.88Q-421.33-37.88-440.95-51.39Q-460.58-64.90-460.58-90.64L-460.58-90.64L-460.58-332.78Q-460.58-344.00-439.93-354.57Q-419.29-365.15-385.90-371.65Q-352.51-378.15-319.12-378.15L-319.12-378.15Q-242.65-378.15-199.58-346.80L-199.58-346.80Q-154.21-313.92-154.21-254.28L-154.21-254.28Q-154.21-220.12-173.45-195.78Q-192.70-171.44-222.01-162.01L-222.01-162.01Q-222.01-153.85-212.19-153.85Q-202.38-153.85-186.58-165.58ZM-18.36-371.27L-18.36-371.27L128.71-371.27Q136.10-359.03 139.67-344.63Q143.24-330.23 143.24-318.76L143.24-318.76Q143.24-293.02 133.17-280.02Q123.10-267.02 105.01-267.02L105.01-267.02L2.29-267.02Q-7.14-267.02-7.14-259.63L-7.14-259.63L-7.14-257.59Q-7.14-256.06-6.63-255.55L-6.63-255.55L115.20-255.55Q119.79-247.65 123.10-235.67L123.10-235.67Q126.16-222.67 126.16-212.48L126.16-212.48Q126.16-182.15 114.95-165.07L114.95-165.07L59.64-165.07Q20.90-165.07 7.13-162.14Q-6.63-159.21-9.95-157.17L-9.95-157.17Q-13.26-154.87-13.26-151.30Q-13.26-147.74-9.69-145.70L-9.69-145.70Q3.56-150.03 18.09-151.81L18.09-151.81Q37.21-153.60 59.64-153.60L59.64-153.60L131.26-153.60Q146.81-131.68 146.81-100.84L146.81-100.84Q146.81-83.51 142.47-67.70Q138.14-51.90 129.48-42.22L129.48-42.22L-61.43-42.22Q-93.04-42.22-112.15-57.51L-112.15-57.51Q-133.05-73.82-133.05-105.43L-133.05-105.43L-133.05-347.82Q-133.05-360.05-105.02-365.66Q-76.98-371.27-18.36-371.27ZM159.30-89.62L159.30-89.62L159.30-345.02Q159.30-358.27 180.58-367.06Q201.86-375.86 230.66-375.86L230.66-375.86Q246.98-375.86 261.38-371.91Q275.78-367.96 283.42-361.84L283.42-361.84Q293.88-348.58 302.54-334.82Q311.21-321.06 341.54-270.59L341.54-270.59Q344.34-270.59 346.64-272.37Q348.93-274.16 348.93-277.85Q348.93-281.55 342.56-292.26L342.56-292.26L315.03-339.66L315.03-353.68Q328.03-364.39 346.64-370.25Q365.24-376.11 385.12-376.11L385.12-376.11Q417.49-376.11 437.37-364.39L437.37-364.39Q460.57-350.37 460.57-320.55L460.57-320.55L460.57-79.17Q460.57-57.25 439.67-47.31L439.67-47.31Q421.83-38.39 392.01-38.39L392.01-38.39Q375.44-38.39 359.76-41.96Q344.09-45.53 335.17-51.14L335.17-51.14Q317.07-74.33 299.23-103.13L299.23-103.13L273.23-146.46Q265.84-145.44 265.84-138.56L265.84-138.56Q265.84-134.23 273.23-121.99L273.23-121.99L305.09-70.51L305.09-57.00Q275.52-37.88 238.44-37.88Q201.35-37.88 180.32-51.39Q159.30-64.90 159.30-89.62Z"/><path xml:space="preserve" font-family="Modak" font-size="522" font-style="normal" style="stroke: rgb(72,152,156); stroke-width: 5; stroke-dasharray: none; stroke-linecap: butt; stroke-dashoffset: 0; stroke-linejoin: miter; stroke-miterlimit: 4; is-custom-font: none; font-file-url: none; fill: rgb(156,238,187); fill-rule: nonzero; opacity: 1; white-space: pre;" d="M-305.48 216.74L-305.48 194.56Q-305.48 169.07-307.78 159.52Q-310.07 149.96-316.19 149.96L-316.19 149.96Q-320.01 149.96-323.07 152.51L-323.07 152.51Q-322.56 157.10-321.54 164.74Q-320.52 172.39-320.52 197.37L-320.52 197.37L-320.52 213.93Q-320.52 231.27-321.28 239.17Q-322.05 247.07-322.56 252.68L-322.56 252.68Q-322.81 255.73-323.07 258.79L-323.07 258.79Q-320.01 261.34-316.19 261.34L-316.19 261.34Q-310.07 261.34-307.78 251.78Q-305.48 242.23-305.48 216.74L-305.48 216.74ZM-336.07 370.69L-400.55 370.69Q-428.85 370.69-444.27 355.65Q-459.69 340.61-459.69 310.28L-459.69 310.28L-459.69 80.89Q-459.69 61.51-420.82 48.13Q-381.95 34.75-334.03 34.75L-334.03 34.75Q-249.66 34.75-202.25 75.53L-202.25 75.53Q-151.28 119.37-151.28 206.29L-151.28 206.29Q-151.28 284.54-200.60 327.61Q-249.92 370.69-336.07 370.69L-336.07 370.69ZM-22.82 41.63L-22.82 41.63L124.25 41.63Q131.64 53.87 135.21 68.27Q138.78 82.67 138.78 94.14L138.78 94.14Q138.78 119.88 128.71 132.88Q118.64 145.88 100.55 145.88L100.55 145.88L-2.17 145.88Q-11.60 145.88-11.60 153.27L-11.60 153.27L-11.60 155.31Q-11.60 156.84-11.09 157.35L-11.09 157.35L110.74 157.35Q115.33 165.25 118.64 177.23L118.64 177.23Q121.70 190.23 121.70 200.43L121.70 200.43Q121.70 230.76 110.49 247.83L110.49 247.83L55.18 247.83Q16.43 247.83 2.67 250.76Q-11.09 253.70-14.41 255.73L-14.41 255.73Q-17.72 258.03-17.72 261.60Q-17.72 265.17-14.15 267.20L-14.15 267.20Q-0.90 262.87 13.63 261.09L13.63 261.09Q32.75 259.30 55.18 259.30L55.18 259.30L126.80 259.30Q142.35 281.22 142.35 312.06L142.35 312.06Q142.35 329.40 138.01 345.20Q133.68 361.00 125.01 370.69L125.01 370.69L-65.89 370.69Q-97.50 370.69-116.61 355.39L-116.61 355.39Q-137.51 339.08-137.51 307.48L-137.51 307.48L-137.51 65.08Q-137.51 52.85-109.48 47.24Q-81.44 41.63-22.82 41.63ZM297.32 152.76L297.32 189.21Q298.34 189.98 303.18 189.98Q308.02 189.98 310.57 186.15Q313.12 182.33 313.12 173.66L313.12 173.66L313.12 164.49Q313.12 155.31 310.95 151.36Q308.79 147.41 303.82 147.41Q298.85 147.41 297.06 148.43L297.06 148.43Q297.32 149.70 297.32 152.76L297.32 152.76ZM428.84 247.32L428.84 247.32L472.93 292.44Q468.34 332.20 447.82 353.61Q427.31 375.02 391.11 375.02L391.11 375.02Q363.84 375.02 343.70 362.02L343.70 362.02Q317.96 345.71 305.22 310.02L305.22 310.02L296.04 285.05Q285.34 284.79 269.02 282.24L269.02 282.24Q266.98 284.28 266.98 287.85L266.98 287.85Q266.98 294.73 287.63 296.01L287.63 296.01L302.16 332.71L302.16 354.37Q272.85 375.02 226.97 375.02L226.97 375.02Q194.09 375.02 174.46 361.51Q154.84 348.00 154.84 322.26L154.84 322.26L154.84 80.12Q154.84 68.91 175.48 58.33Q196.13 47.75 229.52 41.25Q262.91 34.75 296.30 34.75L296.30 34.75Q372.76 34.75 415.84 66.10L415.84 66.10Q461.21 98.98 461.21 158.62L461.21 158.62Q461.21 192.78 441.96 217.12Q422.72 241.46 393.41 250.89L393.41 250.89Q393.41 259.05 403.22 259.05Q413.03 259.05 428.84 247.32Z"/></g>
</svg>